%TF.GenerationSoftware,KiCad,Pcbnew,(6.0.8)*%
%TF.CreationDate,2023-08-07T17:47:23+10:00*%
%TF.ProjectId,REDPITAYA-BRK,52454450-4954-4415-9941-2d42524b2e6b,rev?*%
%TF.SameCoordinates,Original*%
%TF.FileFunction,Drillmap*%
%TF.FilePolarity,Positive*%
%FSLAX45Y45*%
G04 Gerber Fmt 4.5, Leading zero omitted, Abs format (unit mm)*
G04 Created by KiCad (PCBNEW (6.0.8)) date 2023-08-07 17:47:23*
%MOMM*%
%LPD*%
G01*
G04 APERTURE LIST*
%ADD10C,0.200000*%
%ADD11C,0.025000*%
%ADD12C,0.089000*%
G04 APERTURE END LIST*
D10*
X9652000Y-3124200D02*
X9652000Y-7137400D01*
X17018000Y-7137400D02*
X17018000Y-3149600D01*
X9652000Y-7137400D02*
X17018000Y-7137400D01*
X11633200Y-2387600D02*
X11633200Y-3124200D01*
X9652000Y-3124200D02*
X11633200Y-3124200D01*
X15036800Y-2387600D02*
X11633200Y-2387600D01*
X15036800Y-3149600D02*
X17018000Y-3149600D01*
X15036800Y-2387600D02*
X15036800Y-3149600D01*
D11*
X9890800Y-4667100D02*
X9915800Y-4692100D01*
X9915800Y-4667100D02*
X9890800Y-4692100D01*
X9890800Y-5161600D02*
X9915800Y-5186600D01*
X9915800Y-5161600D02*
X9890800Y-5186600D01*
X9893300Y-4413100D02*
X9918300Y-4438100D01*
X9918300Y-4413100D02*
X9893300Y-4438100D01*
X9899300Y-3917100D02*
X9924300Y-3942100D01*
X9924300Y-3917100D02*
X9899300Y-3942100D01*
X9899500Y-5517500D02*
X9924500Y-5542500D01*
X9924500Y-5517500D02*
X9899500Y-5542500D01*
X9907300Y-6034200D02*
X9932300Y-6059200D01*
X9932300Y-6034200D02*
X9907300Y-6059200D01*
X9926700Y-6844500D02*
X9951700Y-6869500D01*
X9951700Y-6844500D02*
X9926700Y-6869500D01*
X9927700Y-6349000D02*
X9952700Y-6374000D01*
X9952700Y-6349000D02*
X9927700Y-6374000D01*
X10040800Y-4666600D02*
X10065800Y-4691600D01*
X10065800Y-4666600D02*
X10040800Y-4691600D01*
X10040800Y-5161100D02*
X10065800Y-5186100D01*
X10065800Y-5161100D02*
X10040800Y-5186100D01*
X10043000Y-5516000D02*
X10068000Y-5541000D01*
X10068000Y-5516000D02*
X10043000Y-5541000D01*
X10043300Y-4412600D02*
X10068300Y-4437600D01*
X10068300Y-4412600D02*
X10043300Y-4437600D01*
X10045900Y-3543500D02*
X10070900Y-3568500D01*
X10070900Y-3543500D02*
X10045900Y-3568500D01*
X10046800Y-3917100D02*
X10071800Y-3942100D01*
X10071800Y-3917100D02*
X10046800Y-3942100D01*
X10050800Y-6032700D02*
X10075800Y-6057700D01*
X10075800Y-6032700D02*
X10050800Y-6057700D01*
X10070200Y-6843000D02*
X10095200Y-6868000D01*
X10095200Y-6843000D02*
X10070200Y-6868000D01*
X10071200Y-6347500D02*
X10096200Y-6372500D01*
X10096200Y-6347500D02*
X10071200Y-6372500D01*
X10188300Y-4666600D02*
X10213300Y-4691600D01*
X10213300Y-4666600D02*
X10188300Y-4691600D01*
X10188300Y-5161100D02*
X10213300Y-5186100D01*
X10213300Y-5161100D02*
X10188300Y-5186100D01*
X10190300Y-3915600D02*
X10215300Y-3940600D01*
X10215300Y-3915600D02*
X10190300Y-3940600D01*
X10190500Y-5516000D02*
X10215500Y-5541000D01*
X10215500Y-5516000D02*
X10190500Y-5541000D01*
X10190800Y-4412600D02*
X10215800Y-4437600D01*
X10215800Y-4412600D02*
X10190800Y-4437600D01*
X10198300Y-6032700D02*
X10223300Y-6057700D01*
X10223300Y-6032700D02*
X10198300Y-6057700D01*
X10217700Y-6843000D02*
X10242700Y-6868000D01*
X10242700Y-6843000D02*
X10217700Y-6868000D01*
X10218700Y-6347500D02*
X10243700Y-6372500D01*
X10243700Y-6347500D02*
X10218700Y-6372500D01*
X10452300Y-5118300D02*
X10477300Y-5143300D01*
X10477300Y-5118300D02*
X10452300Y-5143300D01*
X10528500Y-5880300D02*
X10553500Y-5905300D01*
X10553500Y-5880300D02*
X10528500Y-5905300D01*
X10630100Y-3416500D02*
X10655100Y-3441500D01*
X10655100Y-3416500D02*
X10630100Y-3441500D01*
X10757100Y-6718500D02*
X10782100Y-6743500D01*
X10782100Y-6718500D02*
X10757100Y-6743500D01*
X10807900Y-6312100D02*
X10832900Y-6337100D01*
X10832900Y-6312100D02*
X10807900Y-6337100D01*
X11087300Y-5600900D02*
X11112300Y-5625900D01*
X11112300Y-5600900D02*
X11087300Y-5625900D01*
X11087800Y-5750900D02*
X11112800Y-5775900D01*
X11112800Y-5750900D02*
X11087800Y-5775900D01*
X11087800Y-5898400D02*
X11112800Y-5923400D01*
X11112800Y-5898400D02*
X11087800Y-5923400D01*
X11089800Y-4817400D02*
X11114800Y-4842400D01*
X11114800Y-4817400D02*
X11089800Y-4842400D01*
X11089800Y-4964900D02*
X11114800Y-4989900D01*
X11114800Y-4964900D02*
X11089800Y-4989900D01*
X11091300Y-5108400D02*
X11116300Y-5133400D01*
X11116300Y-5108400D02*
X11091300Y-5133400D01*
X11092100Y-6434360D02*
X11117100Y-6459360D01*
X11117100Y-6434360D02*
X11092100Y-6459360D01*
X11092100Y-6581860D02*
X11117100Y-6606860D01*
X11117100Y-6581860D02*
X11092100Y-6606860D01*
X11092200Y-4179000D02*
X11117200Y-4204000D01*
X11117200Y-4179000D02*
X11092200Y-4204000D01*
X11092200Y-4326500D02*
X11117200Y-4351500D01*
X11117200Y-4326500D02*
X11092200Y-4351500D01*
X11093600Y-6725360D02*
X11118600Y-6750360D01*
X11118600Y-6725360D02*
X11093600Y-6750360D01*
X11587600Y-6436360D02*
X11612600Y-6461360D01*
X11612600Y-6436360D02*
X11587600Y-6461360D01*
X11587600Y-6583860D02*
X11612600Y-6608860D01*
X11612600Y-6583860D02*
X11587600Y-6608860D01*
X11588800Y-5601800D02*
X11613800Y-5626800D01*
X11613800Y-5601800D02*
X11588800Y-5626800D01*
X11589100Y-6727360D02*
X11614100Y-6752360D01*
X11614100Y-6727360D02*
X11589100Y-6752360D01*
X11589300Y-5751800D02*
X11614300Y-5776800D01*
X11614300Y-5751800D02*
X11589300Y-5776800D01*
X11589300Y-5899300D02*
X11614300Y-5924300D01*
X11614300Y-5899300D02*
X11589300Y-5924300D01*
X11595200Y-4176000D02*
X11620200Y-4201000D01*
X11620200Y-4176000D02*
X11595200Y-4201000D01*
X11595200Y-4323500D02*
X11620200Y-4348500D01*
X11620200Y-4323500D02*
X11595200Y-4348500D01*
X11595300Y-4813500D02*
X11620300Y-4838500D01*
X11620300Y-4813500D02*
X11595300Y-4838500D01*
X11595800Y-4963500D02*
X11620800Y-4988500D01*
X11620800Y-4963500D02*
X11595800Y-4988500D01*
X11595800Y-5111000D02*
X11620800Y-5136000D01*
X11620800Y-5111000D02*
X11595800Y-5136000D01*
X11950900Y-5397700D02*
X11975900Y-5422700D01*
X11975900Y-5397700D02*
X11950900Y-5422700D01*
X11999309Y-6512595D02*
X12024309Y-6537595D01*
X12024309Y-6512595D02*
X11999309Y-6537595D01*
X12103300Y-5931100D02*
X12128300Y-5956100D01*
X12128300Y-5931100D02*
X12103300Y-5956100D01*
X12377100Y-6441360D02*
X12402100Y-6466360D01*
X12402100Y-6441360D02*
X12377100Y-6466360D01*
X12377100Y-6588860D02*
X12402100Y-6613860D01*
X12402100Y-6588860D02*
X12377100Y-6613860D01*
X12378600Y-6732360D02*
X12403600Y-6757360D01*
X12403600Y-6732360D02*
X12378600Y-6757360D01*
X12408100Y-4427600D02*
X12433100Y-4452600D01*
X12433100Y-4427600D02*
X12408100Y-4452600D01*
X12409600Y-4571100D02*
X12434600Y-4596100D01*
X12434600Y-4571100D02*
X12409600Y-4596100D01*
X12414100Y-5327360D02*
X12439100Y-5352360D01*
X12439100Y-5327360D02*
X12414100Y-5352360D01*
X12414600Y-5477360D02*
X12439600Y-5502360D01*
X12439600Y-5477360D02*
X12414600Y-5502360D01*
X12414600Y-5624860D02*
X12439600Y-5649860D01*
X12439600Y-5624860D02*
X12414600Y-5649860D01*
X12433500Y-4838900D02*
X12458500Y-4863900D01*
X12458500Y-4838900D02*
X12433500Y-4863900D01*
X12509700Y-4254700D02*
X12534700Y-4279700D01*
X12534700Y-4254700D02*
X12509700Y-4279700D01*
X12886400Y-4285500D02*
X12911400Y-4310500D01*
X12911400Y-4285500D02*
X12886400Y-4310500D01*
X12886400Y-4433000D02*
X12911400Y-4458000D01*
X12911400Y-4433000D02*
X12886400Y-4458000D01*
X12887900Y-4576500D02*
X12912900Y-4601500D01*
X12912900Y-4576500D02*
X12887900Y-4601500D01*
X12912100Y-6443360D02*
X12937100Y-6468360D01*
X12937100Y-6443360D02*
X12912100Y-6468360D01*
X12912100Y-6590860D02*
X12937100Y-6615860D01*
X12937100Y-6590860D02*
X12912100Y-6615860D01*
X12913600Y-6734360D02*
X12938600Y-6759360D01*
X12938600Y-6734360D02*
X12913600Y-6759360D01*
X12915600Y-5323860D02*
X12940600Y-5348860D01*
X12940600Y-5323860D02*
X12915600Y-5348860D01*
X12916100Y-5473860D02*
X12941100Y-5498860D01*
X12941100Y-5473860D02*
X12916100Y-5498860D01*
X12916100Y-5621360D02*
X12941100Y-5646360D01*
X12941100Y-5621360D02*
X12916100Y-5646360D01*
X12941500Y-4940500D02*
X12966500Y-4965500D01*
X12966500Y-4940500D02*
X12941500Y-4965500D01*
X13043100Y-3467300D02*
X13068100Y-3492300D01*
X13068100Y-3467300D02*
X13043100Y-3492300D01*
X13195500Y-3060900D02*
X13220500Y-3085900D01*
X13220500Y-3060900D02*
X13195500Y-3085900D01*
X13195500Y-6134300D02*
X13220500Y-6159300D01*
X13220500Y-6134300D02*
X13195500Y-6159300D01*
X13347900Y-6540700D02*
X13372900Y-6565700D01*
X13372900Y-6540700D02*
X13347900Y-6565700D01*
X13474900Y-4254700D02*
X13499900Y-4279700D01*
X13499900Y-4254700D02*
X13474900Y-4279700D01*
X13551100Y-5143700D02*
X13576100Y-5168700D01*
X13576100Y-5143700D02*
X13551100Y-5168700D01*
X13787200Y-4271260D02*
X13812200Y-4296260D01*
X13812200Y-4271260D02*
X13787200Y-4296260D01*
X13787200Y-5328900D02*
X13812200Y-5353900D01*
X13812200Y-5328900D02*
X13787200Y-5353900D01*
X13788700Y-4414760D02*
X13813700Y-4439760D01*
X13813700Y-4414760D02*
X13788700Y-4439760D01*
X13788700Y-4562260D02*
X13813700Y-4587260D01*
X13813700Y-4562260D02*
X13788700Y-4587260D01*
X13788700Y-5472400D02*
X13813700Y-5497400D01*
X13813700Y-5472400D02*
X13788700Y-5497400D01*
X13788700Y-5619900D02*
X13813700Y-5644900D01*
X13813700Y-5619900D02*
X13788700Y-5644900D01*
X13791600Y-6447000D02*
X13816600Y-6472000D01*
X13816600Y-6447000D02*
X13791600Y-6472000D01*
X13793100Y-6590500D02*
X13818100Y-6615500D01*
X13818100Y-6590500D02*
X13793100Y-6615500D01*
X13793100Y-6738000D02*
X13818100Y-6763000D01*
X13818100Y-6738000D02*
X13793100Y-6763000D01*
X13932100Y-5854900D02*
X13957100Y-5879900D01*
X13957100Y-5854900D02*
X13932100Y-5879900D01*
X14033700Y-4889700D02*
X14058700Y-4914700D01*
X14058700Y-4889700D02*
X14033700Y-4914700D01*
X14274200Y-5329400D02*
X14299200Y-5354400D01*
X14299200Y-5329400D02*
X14274200Y-5354400D01*
X14275700Y-5472900D02*
X14300700Y-5497900D01*
X14300700Y-5472900D02*
X14275700Y-5497900D01*
X14275700Y-5620400D02*
X14300700Y-5645400D01*
X14300700Y-5620400D02*
X14275700Y-5645400D01*
X14285600Y-6443000D02*
X14310600Y-6468000D01*
X14310600Y-6443000D02*
X14285600Y-6468000D01*
X14285600Y-6590500D02*
X14310600Y-6615500D01*
X14310600Y-6590500D02*
X14285600Y-6615500D01*
X14286200Y-4268500D02*
X14311200Y-4293500D01*
X14311200Y-4268500D02*
X14286200Y-4293500D01*
X14287100Y-6734000D02*
X14312100Y-6759000D01*
X14312100Y-6734000D02*
X14287100Y-6759000D01*
X14287700Y-4412000D02*
X14312700Y-4437000D01*
X14312700Y-4412000D02*
X14287700Y-4437000D01*
X14287700Y-4559500D02*
X14312700Y-4584500D01*
X14312700Y-4559500D02*
X14287700Y-4584500D01*
X14414700Y-6108900D02*
X14439700Y-6133900D01*
X14439700Y-6108900D02*
X14414700Y-6133900D01*
X14567100Y-5169100D02*
X14592100Y-5194100D01*
X14592100Y-5169100D02*
X14567100Y-5194100D01*
X14617900Y-3010100D02*
X14642900Y-3035100D01*
X14642900Y-3010100D02*
X14617900Y-3035100D01*
X14617900Y-3111700D02*
X14642900Y-3136700D01*
X14642900Y-3111700D02*
X14617900Y-3136700D01*
X14668700Y-3238700D02*
X14693700Y-3263700D01*
X14693700Y-3238700D02*
X14668700Y-3263700D01*
X14719500Y-6591500D02*
X14744500Y-6616500D01*
X14744500Y-6591500D02*
X14719500Y-6616500D01*
X14744900Y-3314900D02*
X14769900Y-3339900D01*
X14769900Y-3314900D02*
X14744900Y-3339900D01*
X14770300Y-4788100D02*
X14795300Y-4813100D01*
X14795300Y-4788100D02*
X14770300Y-4813100D01*
X14770300Y-5626300D02*
X14795300Y-5651300D01*
X14795300Y-5626300D02*
X14770300Y-5651300D01*
X14821100Y-3010100D02*
X14846100Y-3035100D01*
X14846100Y-3010100D02*
X14821100Y-3035100D01*
X14821100Y-3111700D02*
X14846100Y-3136700D01*
X14846100Y-3111700D02*
X14821100Y-3136700D01*
X14821100Y-3391100D02*
X14846100Y-3416100D01*
X14846100Y-3391100D02*
X14821100Y-3416100D01*
X14871900Y-3187900D02*
X14896900Y-3212900D01*
X14896900Y-3187900D02*
X14871900Y-3212900D01*
X14897300Y-3467300D02*
X14922300Y-3492300D01*
X14922300Y-3467300D02*
X14897300Y-3492300D01*
X14948100Y-3264100D02*
X14973100Y-3289100D01*
X14973100Y-3264100D02*
X14948100Y-3289100D01*
X14948100Y-4940500D02*
X14973100Y-4965500D01*
X14973100Y-4940500D02*
X14948100Y-4965500D01*
X14973500Y-3543500D02*
X14998500Y-3568500D01*
X14998500Y-3543500D02*
X14973500Y-3568500D01*
X15024300Y-3340300D02*
X15049300Y-3365300D01*
X15049300Y-3340300D02*
X15024300Y-3365300D01*
X15049700Y-3619700D02*
X15074700Y-3644700D01*
X15074700Y-3619700D02*
X15049700Y-3644700D01*
X15100500Y-3416500D02*
X15125500Y-3441500D01*
X15125500Y-3416500D02*
X15100500Y-3441500D01*
X15100500Y-5600900D02*
X15125500Y-5625900D01*
X15125500Y-5600900D02*
X15100500Y-5625900D01*
X15101000Y-4280100D02*
X15126000Y-4305100D01*
X15126000Y-4280100D02*
X15101000Y-4305100D01*
X15101000Y-4963500D02*
X15126000Y-4988500D01*
X15126000Y-4963500D02*
X15101000Y-4988500D01*
X15102000Y-5744400D02*
X15127000Y-5769400D01*
X15127000Y-5744400D02*
X15102000Y-5769400D01*
X15102000Y-5891900D02*
X15127000Y-5916900D01*
X15127000Y-5891900D02*
X15102000Y-5916900D01*
X15113400Y-6459000D02*
X15138400Y-6484000D01*
X15138400Y-6459000D02*
X15113400Y-6484000D01*
X15114900Y-6602500D02*
X15139900Y-6627500D01*
X15139900Y-6602500D02*
X15114900Y-6627500D01*
X15114900Y-6750000D02*
X15139900Y-6775000D01*
X15139900Y-6750000D02*
X15114900Y-6775000D01*
X15125900Y-3695900D02*
X15150900Y-3720900D01*
X15150900Y-3695900D02*
X15125900Y-3720900D01*
X15176700Y-3492700D02*
X15201700Y-3517700D01*
X15201700Y-3492700D02*
X15176700Y-3517700D01*
X15202100Y-3772100D02*
X15227100Y-3797100D01*
X15227100Y-3772100D02*
X15202100Y-3797100D01*
X15202100Y-4153100D02*
X15227100Y-4178100D01*
X15227100Y-4153100D02*
X15202100Y-4178100D01*
X15252900Y-3568900D02*
X15277900Y-3593900D01*
X15277900Y-3568900D02*
X15252900Y-3593900D01*
X15278300Y-3848300D02*
X15303300Y-3873300D01*
X15303300Y-3848300D02*
X15278300Y-3873300D01*
X15329100Y-3645100D02*
X15354100Y-3670100D01*
X15354100Y-3645100D02*
X15329100Y-3670100D01*
X15354500Y-3924500D02*
X15379500Y-3949500D01*
X15379500Y-3924500D02*
X15354500Y-3949500D01*
X15405300Y-3721300D02*
X15430300Y-3746300D01*
X15430300Y-3721300D02*
X15405300Y-3746300D01*
X15430700Y-4000700D02*
X15455700Y-4025700D01*
X15455700Y-4000700D02*
X15430700Y-4025700D01*
X15481500Y-3797500D02*
X15506500Y-3822500D01*
X15506500Y-3797500D02*
X15481500Y-3822500D01*
X15506900Y-4076900D02*
X15531900Y-4101900D01*
X15531900Y-4076900D02*
X15506900Y-4101900D01*
X15557700Y-3365700D02*
X15582700Y-3390700D01*
X15582700Y-3365700D02*
X15557700Y-3390700D01*
X15557700Y-3873700D02*
X15582700Y-3898700D01*
X15582700Y-3873700D02*
X15557700Y-3898700D01*
X15606900Y-6460000D02*
X15631900Y-6485000D01*
X15631900Y-6460000D02*
X15606900Y-6485000D01*
X15608400Y-6603500D02*
X15633400Y-6628500D01*
X15633400Y-6603500D02*
X15608400Y-6628500D01*
X15608400Y-6751000D02*
X15633400Y-6776000D01*
X15633400Y-6751000D02*
X15608400Y-6776000D01*
X15608500Y-4813500D02*
X15633500Y-4838500D01*
X15633500Y-4813500D02*
X15608500Y-4838500D01*
X15608500Y-5423100D02*
X15633500Y-5448100D01*
X15633500Y-5423100D02*
X15608500Y-5448100D01*
X15608500Y-5600900D02*
X15633500Y-5625900D01*
X15633500Y-5600900D02*
X15608500Y-5625900D01*
X15609000Y-4252300D02*
X15634000Y-4277300D01*
X15634000Y-4252300D02*
X15609000Y-4277300D01*
X15609000Y-4399800D02*
X15634000Y-4424800D01*
X15634000Y-4399800D02*
X15609000Y-4424800D01*
X15609000Y-4963500D02*
X15634000Y-4988500D01*
X15634000Y-4963500D02*
X15609000Y-4988500D01*
X15609000Y-5111000D02*
X15634000Y-5136000D01*
X15634000Y-5111000D02*
X15609000Y-5136000D01*
X15610000Y-5744400D02*
X15635000Y-5769400D01*
X15635000Y-5744400D02*
X15610000Y-5769400D01*
X15610000Y-5891900D02*
X15635000Y-5916900D01*
X15635000Y-5891900D02*
X15610000Y-5916900D01*
X15633900Y-3924500D02*
X15658900Y-3949500D01*
X15658900Y-3924500D02*
X15633900Y-3949500D01*
X15633900Y-4127700D02*
X15658900Y-4152700D01*
X15658900Y-4127700D02*
X15633900Y-4152700D01*
X15735500Y-3924500D02*
X15760500Y-3949500D01*
X15760500Y-3924500D02*
X15735500Y-3949500D01*
X15735500Y-4127700D02*
X15760500Y-4152700D01*
X15760500Y-4127700D02*
X15735500Y-4152700D01*
X15811700Y-3695900D02*
X15836700Y-3720900D01*
X15836700Y-3695900D02*
X15811700Y-3720900D01*
X15837100Y-3924500D02*
X15862100Y-3949500D01*
X15862100Y-3924500D02*
X15837100Y-3949500D01*
X15837100Y-4127700D02*
X15862100Y-4152700D01*
X15862100Y-4127700D02*
X15837100Y-4152700D01*
X15862500Y-5423100D02*
X15887500Y-5448100D01*
X15887500Y-5423100D02*
X15862500Y-5448100D01*
X15938700Y-3924500D02*
X15963700Y-3949500D01*
X15963700Y-3924500D02*
X15938700Y-3949500D01*
X15938700Y-4127700D02*
X15963700Y-4152700D01*
X15963700Y-4127700D02*
X15938700Y-4152700D01*
X15938700Y-4457900D02*
X15963700Y-4482900D01*
X15963700Y-4457900D02*
X15938700Y-4482900D01*
X16014900Y-6667700D02*
X16039900Y-6692700D01*
X16039900Y-6667700D02*
X16014900Y-6692700D01*
X16040300Y-3924500D02*
X16065300Y-3949500D01*
X16065300Y-3924500D02*
X16040300Y-3949500D01*
X16040300Y-4127700D02*
X16065300Y-4152700D01*
X16065300Y-4127700D02*
X16040300Y-4152700D01*
X16141900Y-3924500D02*
X16166900Y-3949500D01*
X16166900Y-3924500D02*
X16141900Y-3949500D01*
X16141900Y-4127700D02*
X16166900Y-4152700D01*
X16166900Y-4127700D02*
X16141900Y-4152700D01*
X16216600Y-4365200D02*
X16241600Y-4390200D01*
X16241600Y-4365200D02*
X16216600Y-4390200D01*
X16218100Y-3543500D02*
X16243100Y-3568500D01*
X16243100Y-3543500D02*
X16218100Y-3568500D01*
X16218100Y-3670500D02*
X16243100Y-3695500D01*
X16243100Y-3670500D02*
X16218100Y-3695500D01*
X16218100Y-4508700D02*
X16243100Y-4533700D01*
X16243100Y-4508700D02*
X16218100Y-4533700D01*
X16243500Y-3924500D02*
X16268500Y-3949500D01*
X16268500Y-3924500D02*
X16243500Y-3949500D01*
X16243500Y-4127700D02*
X16268500Y-4152700D01*
X16268500Y-4127700D02*
X16243500Y-4152700D01*
X16345100Y-3924500D02*
X16370100Y-3949500D01*
X16370100Y-3924500D02*
X16345100Y-3949500D01*
X16345100Y-4127700D02*
X16370100Y-4152700D01*
X16370100Y-4127700D02*
X16345100Y-4152700D01*
X16374900Y-6817680D02*
X16399900Y-6842680D01*
X16399900Y-6817680D02*
X16374900Y-6842680D01*
X16375900Y-6326180D02*
X16400900Y-6351180D01*
X16400900Y-6326180D02*
X16375900Y-6351180D01*
X16421300Y-6058100D02*
X16446300Y-6083100D01*
X16446300Y-6058100D02*
X16421300Y-6083100D01*
X16472100Y-4991300D02*
X16497100Y-5016300D01*
X16497100Y-4991300D02*
X16472100Y-5016300D01*
X16497500Y-4026100D02*
X16522500Y-4051100D01*
X16522500Y-4026100D02*
X16497500Y-4051100D01*
X16522400Y-6817680D02*
X16547400Y-6842680D01*
X16547400Y-6817680D02*
X16522400Y-6842680D01*
X16523400Y-6326180D02*
X16548400Y-6351180D01*
X16548400Y-6326180D02*
X16523400Y-6351180D01*
X16573700Y-3924500D02*
X16598700Y-3949500D01*
X16598700Y-3924500D02*
X16573700Y-3949500D01*
X16573700Y-4127700D02*
X16598700Y-4152700D01*
X16598700Y-4127700D02*
X16573700Y-4152700D01*
X16573700Y-5575500D02*
X16598700Y-5600500D01*
X16598700Y-5575500D02*
X16573700Y-5600500D01*
X16665900Y-6816180D02*
X16690900Y-6841180D01*
X16690900Y-6816180D02*
X16665900Y-6841180D01*
X16666900Y-6324680D02*
X16691900Y-6349680D01*
X16691900Y-6324680D02*
X16666900Y-6349680D01*
X16724600Y-4217700D02*
X16749600Y-4242700D01*
X16749600Y-4217700D02*
X16724600Y-4242700D01*
X16724600Y-4365200D02*
X16749600Y-4390200D01*
X16749600Y-4365200D02*
X16724600Y-4390200D01*
X16726100Y-3543500D02*
X16751100Y-3568500D01*
X16751100Y-3543500D02*
X16726100Y-3568500D01*
X16726100Y-3670500D02*
X16751100Y-3695500D01*
X16751100Y-3670500D02*
X16726100Y-3695500D01*
X16726100Y-4508700D02*
X16751100Y-4533700D01*
X16751100Y-4508700D02*
X16726100Y-4533700D01*
X16727600Y-3797500D02*
X16752600Y-3822500D01*
X16752600Y-3797500D02*
X16727600Y-3822500D01*
D12*
X11855500Y-2565400D02*
G75*
G03*
X11855500Y-2565400I-44500J0D01*
G01*
X11855500Y-2819400D02*
G75*
G03*
X11855500Y-2819400I-44500J0D01*
G01*
X12109500Y-2565400D02*
G75*
G03*
X12109500Y-2565400I-44500J0D01*
G01*
X12109500Y-2819400D02*
G75*
G03*
X12109500Y-2819400I-44500J0D01*
G01*
X12363500Y-2565400D02*
G75*
G03*
X12363500Y-2565400I-44500J0D01*
G01*
X12363500Y-2819400D02*
G75*
G03*
X12363500Y-2819400I-44500J0D01*
G01*
X12617500Y-2565400D02*
G75*
G03*
X12617500Y-2565400I-44500J0D01*
G01*
X12617500Y-2819400D02*
G75*
G03*
X12617500Y-2819400I-44500J0D01*
G01*
X12871500Y-2565400D02*
G75*
G03*
X12871500Y-2565400I-44500J0D01*
G01*
X12871500Y-2819400D02*
G75*
G03*
X12871500Y-2819400I-44500J0D01*
G01*
X13125500Y-2565400D02*
G75*
G03*
X13125500Y-2565400I-44500J0D01*
G01*
X13125500Y-2819400D02*
G75*
G03*
X13125500Y-2819400I-44500J0D01*
G01*
X13379500Y-2565400D02*
G75*
G03*
X13379500Y-2565400I-44500J0D01*
G01*
X13379500Y-2819400D02*
G75*
G03*
X13379500Y-2819400I-44500J0D01*
G01*
X13633500Y-2565400D02*
G75*
G03*
X13633500Y-2565400I-44500J0D01*
G01*
X13633500Y-2819400D02*
G75*
G03*
X13633500Y-2819400I-44500J0D01*
G01*
X13887500Y-2565400D02*
G75*
G03*
X13887500Y-2565400I-44500J0D01*
G01*
X13887500Y-2819400D02*
G75*
G03*
X13887500Y-2819400I-44500J0D01*
G01*
X14141500Y-2565400D02*
G75*
G03*
X14141500Y-2565400I-44500J0D01*
G01*
X14141500Y-2819400D02*
G75*
G03*
X14141500Y-2819400I-44500J0D01*
G01*
X14395500Y-2565400D02*
G75*
G03*
X14395500Y-2565400I-44500J0D01*
G01*
X14395500Y-2819400D02*
G75*
G03*
X14395500Y-2819400I-44500J0D01*
G01*
X14649500Y-2565400D02*
G75*
G03*
X14649500Y-2565400I-44500J0D01*
G01*
X14649500Y-2819400D02*
G75*
G03*
X14649500Y-2819400I-44500J0D01*
G01*
X14903500Y-2565400D02*
G75*
G03*
X14903500Y-2565400I-44500J0D01*
G01*
X14903500Y-2819400D02*
G75*
G03*
X14903500Y-2819400I-44500J0D01*
G01*
D10*
X9899619Y-7457876D02*
X9899619Y-7257876D01*
X9947238Y-7257876D01*
X9975810Y-7267400D01*
X9994857Y-7286448D01*
X10004381Y-7305495D01*
X10013905Y-7343590D01*
X10013905Y-7372162D01*
X10004381Y-7410257D01*
X9994857Y-7429305D01*
X9975810Y-7448352D01*
X9947238Y-7457876D01*
X9899619Y-7457876D01*
X10099619Y-7457876D02*
X10099619Y-7324543D01*
X10099619Y-7362638D02*
X10109143Y-7343590D01*
X10118667Y-7334067D01*
X10137714Y-7324543D01*
X10156762Y-7324543D01*
X10223429Y-7457876D02*
X10223429Y-7324543D01*
X10223429Y-7257876D02*
X10213905Y-7267400D01*
X10223429Y-7276924D01*
X10232952Y-7267400D01*
X10223429Y-7257876D01*
X10223429Y-7276924D01*
X10347238Y-7457876D02*
X10328190Y-7448352D01*
X10318667Y-7429305D01*
X10318667Y-7257876D01*
X10452000Y-7457876D02*
X10432952Y-7448352D01*
X10423429Y-7429305D01*
X10423429Y-7257876D01*
X10680571Y-7457876D02*
X10680571Y-7257876D01*
X10747238Y-7400733D01*
X10813905Y-7257876D01*
X10813905Y-7457876D01*
X10994857Y-7457876D02*
X10994857Y-7353114D01*
X10985333Y-7334067D01*
X10966286Y-7324543D01*
X10928190Y-7324543D01*
X10909143Y-7334067D01*
X10994857Y-7448352D02*
X10975810Y-7457876D01*
X10928190Y-7457876D01*
X10909143Y-7448352D01*
X10899619Y-7429305D01*
X10899619Y-7410257D01*
X10909143Y-7391209D01*
X10928190Y-7381686D01*
X10975810Y-7381686D01*
X10994857Y-7372162D01*
X11090095Y-7324543D02*
X11090095Y-7524543D01*
X11090095Y-7334067D02*
X11109143Y-7324543D01*
X11147238Y-7324543D01*
X11166286Y-7334067D01*
X11175810Y-7343590D01*
X11185333Y-7362638D01*
X11185333Y-7419781D01*
X11175810Y-7438828D01*
X11166286Y-7448352D01*
X11147238Y-7457876D01*
X11109143Y-7457876D01*
X11090095Y-7448352D01*
X11271048Y-7438828D02*
X11280571Y-7448352D01*
X11271048Y-7457876D01*
X11261524Y-7448352D01*
X11271048Y-7438828D01*
X11271048Y-7457876D01*
X11271048Y-7334067D02*
X11280571Y-7343590D01*
X11271048Y-7353114D01*
X11261524Y-7343590D01*
X11271048Y-7334067D01*
X11271048Y-7353114D01*
D11*
X9617000Y-7774900D02*
X9642000Y-7799900D01*
X9642000Y-7774900D02*
X9617000Y-7799900D01*
D10*
X9937714Y-7677876D02*
X9956762Y-7677876D01*
X9975810Y-7687400D01*
X9985333Y-7696924D01*
X9994857Y-7715971D01*
X10004381Y-7754067D01*
X10004381Y-7801686D01*
X9994857Y-7839781D01*
X9985333Y-7858828D01*
X9975810Y-7868352D01*
X9956762Y-7877876D01*
X9937714Y-7877876D01*
X9918667Y-7868352D01*
X9909143Y-7858828D01*
X9899619Y-7839781D01*
X9890095Y-7801686D01*
X9890095Y-7754067D01*
X9899619Y-7715971D01*
X9909143Y-7696924D01*
X9918667Y-7687400D01*
X9937714Y-7677876D01*
X10090095Y-7858828D02*
X10099619Y-7868352D01*
X10090095Y-7877876D01*
X10080571Y-7868352D01*
X10090095Y-7858828D01*
X10090095Y-7877876D01*
X10175810Y-7696924D02*
X10185333Y-7687400D01*
X10204381Y-7677876D01*
X10252000Y-7677876D01*
X10271048Y-7687400D01*
X10280571Y-7696924D01*
X10290095Y-7715971D01*
X10290095Y-7735019D01*
X10280571Y-7763590D01*
X10166286Y-7877876D01*
X10290095Y-7877876D01*
X10471048Y-7677876D02*
X10375810Y-7677876D01*
X10366286Y-7773114D01*
X10375810Y-7763590D01*
X10394857Y-7754067D01*
X10442476Y-7754067D01*
X10461524Y-7763590D01*
X10471048Y-7773114D01*
X10480571Y-7792162D01*
X10480571Y-7839781D01*
X10471048Y-7858828D01*
X10461524Y-7868352D01*
X10442476Y-7877876D01*
X10394857Y-7877876D01*
X10375810Y-7868352D01*
X10366286Y-7858828D01*
X10604381Y-7677876D02*
X10623429Y-7677876D01*
X10642476Y-7687400D01*
X10652000Y-7696924D01*
X10661524Y-7715971D01*
X10671048Y-7754067D01*
X10671048Y-7801686D01*
X10661524Y-7839781D01*
X10652000Y-7858828D01*
X10642476Y-7868352D01*
X10623429Y-7877876D01*
X10604381Y-7877876D01*
X10585333Y-7868352D01*
X10575810Y-7858828D01*
X10566286Y-7839781D01*
X10556762Y-7801686D01*
X10556762Y-7754067D01*
X10566286Y-7715971D01*
X10575810Y-7696924D01*
X10585333Y-7687400D01*
X10604381Y-7677876D01*
X10756762Y-7877876D02*
X10756762Y-7744543D01*
X10756762Y-7763590D02*
X10766286Y-7754067D01*
X10785333Y-7744543D01*
X10813905Y-7744543D01*
X10832952Y-7754067D01*
X10842476Y-7773114D01*
X10842476Y-7877876D01*
X10842476Y-7773114D02*
X10852000Y-7754067D01*
X10871048Y-7744543D01*
X10899619Y-7744543D01*
X10918667Y-7754067D01*
X10928190Y-7773114D01*
X10928190Y-7877876D01*
X11023429Y-7877876D02*
X11023429Y-7744543D01*
X11023429Y-7763590D02*
X11032952Y-7754067D01*
X11052000Y-7744543D01*
X11080571Y-7744543D01*
X11099619Y-7754067D01*
X11109143Y-7773114D01*
X11109143Y-7877876D01*
X11109143Y-7773114D02*
X11118667Y-7754067D01*
X11137714Y-7744543D01*
X11166286Y-7744543D01*
X11185333Y-7754067D01*
X11194857Y-7773114D01*
X11194857Y-7877876D01*
X11585333Y-7668352D02*
X11413905Y-7925495D01*
X11842476Y-7677876D02*
X11861524Y-7677876D01*
X11880571Y-7687400D01*
X11890095Y-7696924D01*
X11899619Y-7715971D01*
X11909143Y-7754067D01*
X11909143Y-7801686D01*
X11899619Y-7839781D01*
X11890095Y-7858828D01*
X11880571Y-7868352D01*
X11861524Y-7877876D01*
X11842476Y-7877876D01*
X11823428Y-7868352D01*
X11813905Y-7858828D01*
X11804381Y-7839781D01*
X11794857Y-7801686D01*
X11794857Y-7754067D01*
X11804381Y-7715971D01*
X11813905Y-7696924D01*
X11823428Y-7687400D01*
X11842476Y-7677876D01*
X11994857Y-7858828D02*
X12004381Y-7868352D01*
X11994857Y-7877876D01*
X11985333Y-7868352D01*
X11994857Y-7858828D01*
X11994857Y-7877876D01*
X12128190Y-7677876D02*
X12147238Y-7677876D01*
X12166286Y-7687400D01*
X12175809Y-7696924D01*
X12185333Y-7715971D01*
X12194857Y-7754067D01*
X12194857Y-7801686D01*
X12185333Y-7839781D01*
X12175809Y-7858828D01*
X12166286Y-7868352D01*
X12147238Y-7877876D01*
X12128190Y-7877876D01*
X12109143Y-7868352D01*
X12099619Y-7858828D01*
X12090095Y-7839781D01*
X12080571Y-7801686D01*
X12080571Y-7754067D01*
X12090095Y-7715971D01*
X12099619Y-7696924D01*
X12109143Y-7687400D01*
X12128190Y-7677876D01*
X12318667Y-7677876D02*
X12337714Y-7677876D01*
X12356762Y-7687400D01*
X12366286Y-7696924D01*
X12375809Y-7715971D01*
X12385333Y-7754067D01*
X12385333Y-7801686D01*
X12375809Y-7839781D01*
X12366286Y-7858828D01*
X12356762Y-7868352D01*
X12337714Y-7877876D01*
X12318667Y-7877876D01*
X12299619Y-7868352D01*
X12290095Y-7858828D01*
X12280571Y-7839781D01*
X12271048Y-7801686D01*
X12271048Y-7754067D01*
X12280571Y-7715971D01*
X12290095Y-7696924D01*
X12299619Y-7687400D01*
X12318667Y-7677876D01*
X12480571Y-7877876D02*
X12518667Y-7877876D01*
X12537714Y-7868352D01*
X12547238Y-7858828D01*
X12566286Y-7830257D01*
X12575809Y-7792162D01*
X12575809Y-7715971D01*
X12566286Y-7696924D01*
X12556762Y-7687400D01*
X12537714Y-7677876D01*
X12499619Y-7677876D01*
X12480571Y-7687400D01*
X12471048Y-7696924D01*
X12461524Y-7715971D01*
X12461524Y-7763590D01*
X12471048Y-7782638D01*
X12480571Y-7792162D01*
X12499619Y-7801686D01*
X12537714Y-7801686D01*
X12556762Y-7792162D01*
X12566286Y-7782638D01*
X12575809Y-7763590D01*
X12690095Y-7763590D02*
X12671048Y-7754067D01*
X12661524Y-7744543D01*
X12652000Y-7725495D01*
X12652000Y-7715971D01*
X12661524Y-7696924D01*
X12671048Y-7687400D01*
X12690095Y-7677876D01*
X12728190Y-7677876D01*
X12747238Y-7687400D01*
X12756762Y-7696924D01*
X12766286Y-7715971D01*
X12766286Y-7725495D01*
X12756762Y-7744543D01*
X12747238Y-7754067D01*
X12728190Y-7763590D01*
X12690095Y-7763590D01*
X12671048Y-7773114D01*
X12661524Y-7782638D01*
X12652000Y-7801686D01*
X12652000Y-7839781D01*
X12661524Y-7858828D01*
X12671048Y-7868352D01*
X12690095Y-7877876D01*
X12728190Y-7877876D01*
X12747238Y-7868352D01*
X12756762Y-7858828D01*
X12766286Y-7839781D01*
X12766286Y-7801686D01*
X12756762Y-7782638D01*
X12747238Y-7773114D01*
X12728190Y-7763590D01*
X12842476Y-7677876D02*
X12842476Y-7715971D01*
X12918667Y-7677876D02*
X12918667Y-7715971D01*
X13213905Y-7954067D02*
X13204381Y-7944543D01*
X13185333Y-7915971D01*
X13175809Y-7896924D01*
X13166286Y-7868352D01*
X13156762Y-7820733D01*
X13156762Y-7782638D01*
X13166286Y-7735019D01*
X13175809Y-7706448D01*
X13185333Y-7687400D01*
X13204381Y-7658828D01*
X13213905Y-7649305D01*
X13394857Y-7877876D02*
X13280571Y-7877876D01*
X13337714Y-7877876D02*
X13337714Y-7677876D01*
X13318667Y-7706448D01*
X13299619Y-7725495D01*
X13280571Y-7735019D01*
X13490095Y-7877876D02*
X13528190Y-7877876D01*
X13547238Y-7868352D01*
X13556762Y-7858828D01*
X13575809Y-7830257D01*
X13585333Y-7792162D01*
X13585333Y-7715971D01*
X13575809Y-7696924D01*
X13566286Y-7687400D01*
X13547238Y-7677876D01*
X13509143Y-7677876D01*
X13490095Y-7687400D01*
X13480571Y-7696924D01*
X13471048Y-7715971D01*
X13471048Y-7763590D01*
X13480571Y-7782638D01*
X13490095Y-7792162D01*
X13509143Y-7801686D01*
X13547238Y-7801686D01*
X13566286Y-7792162D01*
X13575809Y-7782638D01*
X13585333Y-7763590D01*
X13652000Y-7677876D02*
X13785333Y-7677876D01*
X13699619Y-7877876D01*
X14013905Y-7877876D02*
X14013905Y-7677876D01*
X14099619Y-7877876D02*
X14099619Y-7773114D01*
X14090095Y-7754067D01*
X14071048Y-7744543D01*
X14042476Y-7744543D01*
X14023428Y-7754067D01*
X14013905Y-7763590D01*
X14223428Y-7877876D02*
X14204381Y-7868352D01*
X14194857Y-7858828D01*
X14185333Y-7839781D01*
X14185333Y-7782638D01*
X14194857Y-7763590D01*
X14204381Y-7754067D01*
X14223428Y-7744543D01*
X14252000Y-7744543D01*
X14271048Y-7754067D01*
X14280571Y-7763590D01*
X14290095Y-7782638D01*
X14290095Y-7839781D01*
X14280571Y-7858828D01*
X14271048Y-7868352D01*
X14252000Y-7877876D01*
X14223428Y-7877876D01*
X14404381Y-7877876D02*
X14385333Y-7868352D01*
X14375809Y-7849305D01*
X14375809Y-7677876D01*
X14556762Y-7868352D02*
X14537714Y-7877876D01*
X14499619Y-7877876D01*
X14480571Y-7868352D01*
X14471048Y-7849305D01*
X14471048Y-7773114D01*
X14480571Y-7754067D01*
X14499619Y-7744543D01*
X14537714Y-7744543D01*
X14556762Y-7754067D01*
X14566286Y-7773114D01*
X14566286Y-7792162D01*
X14471048Y-7811209D01*
X14642476Y-7868352D02*
X14661524Y-7877876D01*
X14699619Y-7877876D01*
X14718667Y-7868352D01*
X14728190Y-7849305D01*
X14728190Y-7839781D01*
X14718667Y-7820733D01*
X14699619Y-7811209D01*
X14671048Y-7811209D01*
X14652000Y-7801686D01*
X14642476Y-7782638D01*
X14642476Y-7773114D01*
X14652000Y-7754067D01*
X14671048Y-7744543D01*
X14699619Y-7744543D01*
X14718667Y-7754067D01*
X14794857Y-7954067D02*
X14804381Y-7944543D01*
X14823428Y-7915971D01*
X14832952Y-7896924D01*
X14842476Y-7868352D01*
X14852000Y-7820733D01*
X14852000Y-7782638D01*
X14842476Y-7735019D01*
X14832952Y-7706448D01*
X14823428Y-7687400D01*
X14804381Y-7658828D01*
X14794857Y-7649305D01*
D12*
X9642000Y-8051400D02*
G75*
G03*
X9642000Y-8051400I-44500J0D01*
G01*
D10*
X9937714Y-7941876D02*
X9956762Y-7941876D01*
X9975810Y-7951400D01*
X9985333Y-7960924D01*
X9994857Y-7979971D01*
X10004381Y-8018067D01*
X10004381Y-8065686D01*
X9994857Y-8103781D01*
X9985333Y-8122828D01*
X9975810Y-8132352D01*
X9956762Y-8141876D01*
X9937714Y-8141876D01*
X9918667Y-8132352D01*
X9909143Y-8122828D01*
X9899619Y-8103781D01*
X9890095Y-8065686D01*
X9890095Y-8018067D01*
X9899619Y-7979971D01*
X9909143Y-7960924D01*
X9918667Y-7951400D01*
X9937714Y-7941876D01*
X10090095Y-8122828D02*
X10099619Y-8132352D01*
X10090095Y-8141876D01*
X10080571Y-8132352D01*
X10090095Y-8122828D01*
X10090095Y-8141876D01*
X10213905Y-8027590D02*
X10194857Y-8018067D01*
X10185333Y-8008543D01*
X10175810Y-7989495D01*
X10175810Y-7979971D01*
X10185333Y-7960924D01*
X10194857Y-7951400D01*
X10213905Y-7941876D01*
X10252000Y-7941876D01*
X10271048Y-7951400D01*
X10280571Y-7960924D01*
X10290095Y-7979971D01*
X10290095Y-7989495D01*
X10280571Y-8008543D01*
X10271048Y-8018067D01*
X10252000Y-8027590D01*
X10213905Y-8027590D01*
X10194857Y-8037114D01*
X10185333Y-8046638D01*
X10175810Y-8065686D01*
X10175810Y-8103781D01*
X10185333Y-8122828D01*
X10194857Y-8132352D01*
X10213905Y-8141876D01*
X10252000Y-8141876D01*
X10271048Y-8132352D01*
X10280571Y-8122828D01*
X10290095Y-8103781D01*
X10290095Y-8065686D01*
X10280571Y-8046638D01*
X10271048Y-8037114D01*
X10252000Y-8027590D01*
X10385333Y-8141876D02*
X10423429Y-8141876D01*
X10442476Y-8132352D01*
X10452000Y-8122828D01*
X10471048Y-8094257D01*
X10480571Y-8056162D01*
X10480571Y-7979971D01*
X10471048Y-7960924D01*
X10461524Y-7951400D01*
X10442476Y-7941876D01*
X10404381Y-7941876D01*
X10385333Y-7951400D01*
X10375810Y-7960924D01*
X10366286Y-7979971D01*
X10366286Y-8027590D01*
X10375810Y-8046638D01*
X10385333Y-8056162D01*
X10404381Y-8065686D01*
X10442476Y-8065686D01*
X10461524Y-8056162D01*
X10471048Y-8046638D01*
X10480571Y-8027590D01*
X10604381Y-7941876D02*
X10623429Y-7941876D01*
X10642476Y-7951400D01*
X10652000Y-7960924D01*
X10661524Y-7979971D01*
X10671048Y-8018067D01*
X10671048Y-8065686D01*
X10661524Y-8103781D01*
X10652000Y-8122828D01*
X10642476Y-8132352D01*
X10623429Y-8141876D01*
X10604381Y-8141876D01*
X10585333Y-8132352D01*
X10575810Y-8122828D01*
X10566286Y-8103781D01*
X10556762Y-8065686D01*
X10556762Y-8018067D01*
X10566286Y-7979971D01*
X10575810Y-7960924D01*
X10585333Y-7951400D01*
X10604381Y-7941876D01*
X10756762Y-8141876D02*
X10756762Y-8008543D01*
X10756762Y-8027590D02*
X10766286Y-8018067D01*
X10785333Y-8008543D01*
X10813905Y-8008543D01*
X10832952Y-8018067D01*
X10842476Y-8037114D01*
X10842476Y-8141876D01*
X10842476Y-8037114D02*
X10852000Y-8018067D01*
X10871048Y-8008543D01*
X10899619Y-8008543D01*
X10918667Y-8018067D01*
X10928190Y-8037114D01*
X10928190Y-8141876D01*
X11023429Y-8141876D02*
X11023429Y-8008543D01*
X11023429Y-8027590D02*
X11032952Y-8018067D01*
X11052000Y-8008543D01*
X11080571Y-8008543D01*
X11099619Y-8018067D01*
X11109143Y-8037114D01*
X11109143Y-8141876D01*
X11109143Y-8037114D02*
X11118667Y-8018067D01*
X11137714Y-8008543D01*
X11166286Y-8008543D01*
X11185333Y-8018067D01*
X11194857Y-8037114D01*
X11194857Y-8141876D01*
X11585333Y-7932352D02*
X11413905Y-8189495D01*
X11842476Y-7941876D02*
X11861524Y-7941876D01*
X11880571Y-7951400D01*
X11890095Y-7960924D01*
X11899619Y-7979971D01*
X11909143Y-8018067D01*
X11909143Y-8065686D01*
X11899619Y-8103781D01*
X11890095Y-8122828D01*
X11880571Y-8132352D01*
X11861524Y-8141876D01*
X11842476Y-8141876D01*
X11823428Y-8132352D01*
X11813905Y-8122828D01*
X11804381Y-8103781D01*
X11794857Y-8065686D01*
X11794857Y-8018067D01*
X11804381Y-7979971D01*
X11813905Y-7960924D01*
X11823428Y-7951400D01*
X11842476Y-7941876D01*
X11994857Y-8122828D02*
X12004381Y-8132352D01*
X11994857Y-8141876D01*
X11985333Y-8132352D01*
X11994857Y-8122828D01*
X11994857Y-8141876D01*
X12128190Y-7941876D02*
X12147238Y-7941876D01*
X12166286Y-7951400D01*
X12175809Y-7960924D01*
X12185333Y-7979971D01*
X12194857Y-8018067D01*
X12194857Y-8065686D01*
X12185333Y-8103781D01*
X12175809Y-8122828D01*
X12166286Y-8132352D01*
X12147238Y-8141876D01*
X12128190Y-8141876D01*
X12109143Y-8132352D01*
X12099619Y-8122828D01*
X12090095Y-8103781D01*
X12080571Y-8065686D01*
X12080571Y-8018067D01*
X12090095Y-7979971D01*
X12099619Y-7960924D01*
X12109143Y-7951400D01*
X12128190Y-7941876D01*
X12261524Y-7941876D02*
X12385333Y-7941876D01*
X12318667Y-8018067D01*
X12347238Y-8018067D01*
X12366286Y-8027590D01*
X12375809Y-8037114D01*
X12385333Y-8056162D01*
X12385333Y-8103781D01*
X12375809Y-8122828D01*
X12366286Y-8132352D01*
X12347238Y-8141876D01*
X12290095Y-8141876D01*
X12271048Y-8132352D01*
X12261524Y-8122828D01*
X12566286Y-7941876D02*
X12471048Y-7941876D01*
X12461524Y-8037114D01*
X12471048Y-8027590D01*
X12490095Y-8018067D01*
X12537714Y-8018067D01*
X12556762Y-8027590D01*
X12566286Y-8037114D01*
X12575809Y-8056162D01*
X12575809Y-8103781D01*
X12566286Y-8122828D01*
X12556762Y-8132352D01*
X12537714Y-8141876D01*
X12490095Y-8141876D01*
X12471048Y-8132352D01*
X12461524Y-8122828D01*
X12699619Y-7941876D02*
X12718667Y-7941876D01*
X12737714Y-7951400D01*
X12747238Y-7960924D01*
X12756762Y-7979971D01*
X12766286Y-8018067D01*
X12766286Y-8065686D01*
X12756762Y-8103781D01*
X12747238Y-8122828D01*
X12737714Y-8132352D01*
X12718667Y-8141876D01*
X12699619Y-8141876D01*
X12680571Y-8132352D01*
X12671048Y-8122828D01*
X12661524Y-8103781D01*
X12652000Y-8065686D01*
X12652000Y-8018067D01*
X12661524Y-7979971D01*
X12671048Y-7960924D01*
X12680571Y-7951400D01*
X12699619Y-7941876D01*
X12842476Y-7941876D02*
X12842476Y-7979971D01*
X12918667Y-7941876D02*
X12918667Y-7979971D01*
X13213905Y-8218067D02*
X13204381Y-8208543D01*
X13185333Y-8179971D01*
X13175809Y-8160924D01*
X13166286Y-8132352D01*
X13156762Y-8084733D01*
X13156762Y-8046638D01*
X13166286Y-7999019D01*
X13175809Y-7970448D01*
X13185333Y-7951400D01*
X13204381Y-7922828D01*
X13213905Y-7913305D01*
X13280571Y-7960924D02*
X13290095Y-7951400D01*
X13309143Y-7941876D01*
X13356762Y-7941876D01*
X13375809Y-7951400D01*
X13385333Y-7960924D01*
X13394857Y-7979971D01*
X13394857Y-7999019D01*
X13385333Y-8027590D01*
X13271048Y-8141876D01*
X13394857Y-8141876D01*
X13566286Y-7941876D02*
X13528190Y-7941876D01*
X13509143Y-7951400D01*
X13499619Y-7960924D01*
X13480571Y-7989495D01*
X13471048Y-8027590D01*
X13471048Y-8103781D01*
X13480571Y-8122828D01*
X13490095Y-8132352D01*
X13509143Y-8141876D01*
X13547238Y-8141876D01*
X13566286Y-8132352D01*
X13575809Y-8122828D01*
X13585333Y-8103781D01*
X13585333Y-8056162D01*
X13575809Y-8037114D01*
X13566286Y-8027590D01*
X13547238Y-8018067D01*
X13509143Y-8018067D01*
X13490095Y-8027590D01*
X13480571Y-8037114D01*
X13471048Y-8056162D01*
X13823428Y-8141876D02*
X13823428Y-7941876D01*
X13909143Y-8141876D02*
X13909143Y-8037114D01*
X13899619Y-8018067D01*
X13880571Y-8008543D01*
X13852000Y-8008543D01*
X13832952Y-8018067D01*
X13823428Y-8027590D01*
X14032952Y-8141876D02*
X14013905Y-8132352D01*
X14004381Y-8122828D01*
X13994857Y-8103781D01*
X13994857Y-8046638D01*
X14004381Y-8027590D01*
X14013905Y-8018067D01*
X14032952Y-8008543D01*
X14061524Y-8008543D01*
X14080571Y-8018067D01*
X14090095Y-8027590D01*
X14099619Y-8046638D01*
X14099619Y-8103781D01*
X14090095Y-8122828D01*
X14080571Y-8132352D01*
X14061524Y-8141876D01*
X14032952Y-8141876D01*
X14213905Y-8141876D02*
X14194857Y-8132352D01*
X14185333Y-8113305D01*
X14185333Y-7941876D01*
X14366286Y-8132352D02*
X14347238Y-8141876D01*
X14309143Y-8141876D01*
X14290095Y-8132352D01*
X14280571Y-8113305D01*
X14280571Y-8037114D01*
X14290095Y-8018067D01*
X14309143Y-8008543D01*
X14347238Y-8008543D01*
X14366286Y-8018067D01*
X14375809Y-8037114D01*
X14375809Y-8056162D01*
X14280571Y-8075209D01*
X14452000Y-8132352D02*
X14471048Y-8141876D01*
X14509143Y-8141876D01*
X14528190Y-8132352D01*
X14537714Y-8113305D01*
X14537714Y-8103781D01*
X14528190Y-8084733D01*
X14509143Y-8075209D01*
X14480571Y-8075209D01*
X14461524Y-8065686D01*
X14452000Y-8046638D01*
X14452000Y-8037114D01*
X14461524Y-8018067D01*
X14480571Y-8008543D01*
X14509143Y-8008543D01*
X14528190Y-8018067D01*
X14604381Y-8218067D02*
X14613905Y-8208543D01*
X14632952Y-8179971D01*
X14642476Y-8160924D01*
X14652000Y-8132352D01*
X14661524Y-8084733D01*
X14661524Y-8046638D01*
X14652000Y-7999019D01*
X14642476Y-7970448D01*
X14632952Y-7951400D01*
X14613905Y-7922828D01*
X14604381Y-7913305D01*
M02*
