%TF.GenerationSoftware,KiCad,Pcbnew,(6.0.8)*%
%TF.CreationDate,2023-08-07T17:47:41+10:00*%
%TF.ProjectId,REDPITAYA-BRK,52454450-4954-4415-9941-2d42524b2e6b,rev?*%
%TF.SameCoordinates,Original*%
%TF.FileFunction,AssemblyDrawing,Top*%
%FSLAX46Y46*%
G04 Gerber Fmt 4.6, Leading zero omitted, Abs format (unit mm)*
G04 Created by KiCad (PCBNEW (6.0.8)) date 2023-08-07 17:47:41*
%MOMM*%
%LPD*%
G01*
G04 APERTURE LIST*
%ADD10C,0.127000*%
G04 APERTURE END LIST*
D10*
%TO.C,ANALOG_OUT_1*%
X154970000Y-51484000D02*
X152370000Y-51484000D01*
X154970000Y-48884000D02*
X154970000Y-51484000D01*
X152370000Y-51484000D02*
X152370000Y-48884000D01*
X152370000Y-48884000D02*
X154970000Y-48884000D01*
X154670000Y-50184000D02*
G75*
G03*
X154670000Y-50184000I-1000000J0D01*
G01*
%TO.C,+5V1*%
X99284000Y-40610000D02*
X101884000Y-40610000D01*
X101884000Y-40610000D02*
X101884000Y-43210000D01*
X101884000Y-43210000D02*
X99284000Y-43210000D01*
X99284000Y-43210000D02*
X99284000Y-40610000D01*
X101584000Y-41910000D02*
G75*
G03*
X101584000Y-41910000I-1000000J0D01*
G01*
%TO.C,I2C_SDA1*%
X125446000Y-56418000D02*
X125446000Y-53818000D01*
X125446000Y-53818000D02*
X128046000Y-53818000D01*
X128046000Y-56418000D02*
X125446000Y-56418000D01*
X128046000Y-53818000D02*
X128046000Y-56418000D01*
X127746000Y-55118000D02*
G75*
G03*
X127746000Y-55118000I-1000000J0D01*
G01*
%TO.C,ANALOG_IN_3*%
X152370000Y-67848000D02*
X152370000Y-65248000D01*
X154970000Y-65248000D02*
X154970000Y-67848000D01*
X154970000Y-67848000D02*
X152370000Y-67848000D01*
X152370000Y-65248000D02*
X154970000Y-65248000D01*
X154670000Y-66548000D02*
G75*
G03*
X154670000Y-66548000I-1000000J0D01*
G01*
%TO.C,-4V1*%
X101884000Y-47976000D02*
X101884000Y-50576000D01*
X101884000Y-50576000D02*
X99284000Y-50576000D01*
X99284000Y-47976000D02*
X101884000Y-47976000D01*
X99284000Y-50576000D02*
X99284000Y-47976000D01*
X101584000Y-49276000D02*
G75*
G03*
X101584000Y-49276000I-1000000J0D01*
G01*
%TO.C,UART_RX1*%
X114838000Y-67340000D02*
X112238000Y-67340000D01*
X114838000Y-64740000D02*
X114838000Y-67340000D01*
X112238000Y-67340000D02*
X112238000Y-64740000D01*
X112238000Y-64740000D02*
X114838000Y-64740000D01*
X114538000Y-66040000D02*
G75*
G03*
X114538000Y-66040000I-1000000J0D01*
G01*
%TO.C,ANALOG_IN_0*%
X141762000Y-64994000D02*
X141762000Y-67594000D01*
X141762000Y-67594000D02*
X139162000Y-67594000D01*
X139162000Y-67594000D02*
X139162000Y-64994000D01*
X139162000Y-64994000D02*
X141762000Y-64994000D01*
X141462000Y-66294000D02*
G75*
G03*
X141462000Y-66294000I-1000000J0D01*
G01*
%TO.C,UART_TX1*%
X114838000Y-56612000D02*
X114838000Y-59212000D01*
X114838000Y-59212000D02*
X112238000Y-59212000D01*
X112238000Y-56612000D02*
X114838000Y-56612000D01*
X112238000Y-59212000D02*
X112238000Y-56612000D01*
X114538000Y-57912000D02*
G75*
G03*
X114538000Y-57912000I-1000000J0D01*
G01*
%TO.C,EXT_COM1*%
X125192000Y-64994000D02*
X127792000Y-64994000D01*
X127792000Y-64994000D02*
X127792000Y-67594000D01*
X127792000Y-67594000D02*
X125192000Y-67594000D01*
X125192000Y-67594000D02*
X125192000Y-64994000D01*
X127492000Y-66294000D02*
G75*
G03*
X127492000Y-66294000I-1000000J0D01*
G01*
%TO.C,MOSI1*%
X99392000Y-56358000D02*
X101992000Y-56358000D01*
X101992000Y-56358000D02*
X101992000Y-58958000D01*
X99392000Y-58958000D02*
X99392000Y-56358000D01*
X101992000Y-58958000D02*
X99392000Y-58958000D01*
X101692000Y-57658000D02*
G75*
G03*
X101692000Y-57658000I-1000000J0D01*
G01*
%TO.C,ANALOG_IN_1*%
X139162000Y-53818000D02*
X141762000Y-53818000D01*
X141762000Y-53818000D02*
X141762000Y-56418000D01*
X141762000Y-56418000D02*
X139162000Y-56418000D01*
X139162000Y-56418000D02*
X139162000Y-53818000D01*
X141462000Y-55118000D02*
G75*
G03*
X141462000Y-55118000I-1000000J0D01*
G01*
%TO.C,ANALOG_IN_2*%
X141762000Y-45750000D02*
X139162000Y-45750000D01*
X139162000Y-45750000D02*
X139162000Y-43150000D01*
X141762000Y-43150000D02*
X141762000Y-45750000D01*
X139162000Y-43150000D02*
X141762000Y-43150000D01*
X141462000Y-44450000D02*
G75*
G03*
X141462000Y-44450000I-1000000J0D01*
G01*
%TO.C,CLK_N1*%
X163546000Y-38238000D02*
X163546000Y-35638000D01*
X163546000Y-35638000D02*
X166146000Y-35638000D01*
X166146000Y-35638000D02*
X166146000Y-38238000D01*
X166146000Y-38238000D02*
X163546000Y-38238000D01*
X165846000Y-36938000D02*
G75*
G03*
X165846000Y-36938000I-1000000J0D01*
G01*
%TO.C,ANALOG_OUT_2*%
X163800000Y-67135000D02*
X163800000Y-64535000D01*
X166400000Y-64535000D02*
X166400000Y-67135000D01*
X166400000Y-67135000D02*
X163800000Y-67135000D01*
X163800000Y-64535000D02*
X166400000Y-64535000D01*
X166100000Y-65835000D02*
G75*
G03*
X166100000Y-65835000I-1000000J0D01*
G01*
%TO.C,CS1*%
X114838000Y-48630000D02*
X114838000Y-51230000D01*
X112238000Y-48630000D02*
X114838000Y-48630000D01*
X114838000Y-51230000D02*
X112238000Y-51230000D01*
X112238000Y-51230000D02*
X112238000Y-48630000D01*
X114538000Y-49930000D02*
G75*
G03*
X114538000Y-49930000I-1000000J0D01*
G01*
%TO.C,ANALOG_OUT_0*%
X152370000Y-56866000D02*
X154970000Y-56866000D01*
X154970000Y-56866000D02*
X154970000Y-59466000D01*
X152370000Y-59466000D02*
X152370000Y-56866000D01*
X154970000Y-59466000D02*
X152370000Y-59466000D01*
X154670000Y-58166000D02*
G75*
G03*
X154670000Y-58166000I-1000000J0D01*
G01*
%TO.C,MISO1*%
X99433000Y-64783000D02*
X102033000Y-64783000D01*
X102033000Y-67383000D02*
X99433000Y-67383000D01*
X99433000Y-67383000D02*
X99433000Y-64783000D01*
X102033000Y-64783000D02*
X102033000Y-67383000D01*
X101733000Y-66083000D02*
G75*
G03*
X101733000Y-66083000I-1000000J0D01*
G01*
%TO.C,ANALOG_OUT_3*%
X154970000Y-42026000D02*
X154970000Y-44626000D01*
X152370000Y-42026000D02*
X154970000Y-42026000D01*
X154970000Y-44626000D02*
X152370000Y-44626000D01*
X152370000Y-44626000D02*
X152370000Y-42026000D01*
X154670000Y-43326000D02*
G75*
G03*
X154670000Y-43326000I-1000000J0D01*
G01*
%TO.C,CLK_P1*%
X166146000Y-45242000D02*
X163546000Y-45242000D01*
X166146000Y-42642000D02*
X166146000Y-45242000D01*
X163546000Y-45242000D02*
X163546000Y-42642000D01*
X163546000Y-42642000D02*
X166146000Y-42642000D01*
X165846000Y-43942000D02*
G75*
G03*
X165846000Y-43942000I-1000000J0D01*
G01*
%TO.C,SCLK1*%
X112238000Y-43356000D02*
X112238000Y-40756000D01*
X112238000Y-40756000D02*
X114838000Y-40756000D01*
X114838000Y-43356000D02*
X112238000Y-43356000D01*
X114838000Y-40756000D02*
X114838000Y-43356000D01*
X114538000Y-42056000D02*
G75*
G03*
X114538000Y-42056000I-1000000J0D01*
G01*
%TO.C,I2C_SCL1*%
X125446000Y-45750000D02*
X125446000Y-43150000D01*
X125446000Y-43150000D02*
X128046000Y-43150000D01*
X128046000Y-45750000D02*
X125446000Y-45750000D01*
X128046000Y-43150000D02*
X128046000Y-45750000D01*
X127746000Y-44450000D02*
G75*
G03*
X127746000Y-44450000I-1000000J0D01*
G01*
%TD*%
M02*
