%TF.GenerationSoftware,KiCad,Pcbnew,(6.0.8)*%
%TF.CreationDate,2023-08-07T17:47:41+10:00*%
%TF.ProjectId,REDPITAYA-BRK,52454450-4954-4415-9941-2d42524b2e6b,rev?*%
%TF.SameCoordinates,Original*%
%TF.FileFunction,Soldermask,Top*%
%TF.FilePolarity,Negative*%
%FSLAX46Y46*%
G04 Gerber Fmt 4.6, Leading zero omitted, Abs format (unit mm)*
G04 Created by KiCad (PCBNEW (6.0.8)) date 2023-08-07 17:47:41*
%MOMM*%
%LPD*%
G01*
G04 APERTURE LIST*
%ADD10R,1.050000X2.200000*%
%ADD11R,1.000000X1.050000*%
%ADD12R,2.200000X1.050000*%
%ADD13R,1.050000X1.000000*%
%ADD14R,1.398000X1.398000*%
%ADD15C,1.398000*%
G04 APERTURE END LIST*
D10*
%TO.C,ANALOG_OUT_1*%
X155145000Y-50184000D03*
D11*
X153670000Y-48659000D03*
D10*
X152195000Y-50184000D03*
%TD*%
D12*
%TO.C,+5V1*%
X100584000Y-43385000D03*
D13*
X102109000Y-41910000D03*
D12*
X100584000Y-40435000D03*
%TD*%
D10*
%TO.C,I2C_SDA1*%
X128221000Y-55118000D03*
D11*
X126746000Y-53593000D03*
D10*
X125271000Y-55118000D03*
%TD*%
%TO.C,ANALOG_IN_3*%
X155145000Y-66548000D03*
D11*
X153670000Y-65023000D03*
D10*
X152195000Y-66548000D03*
%TD*%
D12*
%TO.C,-4V1*%
X100584000Y-50751000D03*
D13*
X102109000Y-49276000D03*
D12*
X100584000Y-47801000D03*
%TD*%
D10*
%TO.C,UART_RX1*%
X115013000Y-66040000D03*
D11*
X113538000Y-64515000D03*
D10*
X112063000Y-66040000D03*
%TD*%
%TO.C,ANALOG_IN_0*%
X141937000Y-66294000D03*
D11*
X140462000Y-64769000D03*
D10*
X138987000Y-66294000D03*
%TD*%
%TO.C,UART_TX1*%
X115013000Y-57912000D03*
D11*
X113538000Y-56387000D03*
D10*
X112063000Y-57912000D03*
%TD*%
%TO.C,EXT_COM1*%
X127967000Y-66294000D03*
D11*
X126492000Y-64769000D03*
D10*
X125017000Y-66294000D03*
%TD*%
D12*
%TO.C,MOSI1*%
X100692000Y-59133000D03*
D13*
X102217000Y-57658000D03*
D12*
X100692000Y-56183000D03*
%TD*%
D10*
%TO.C,ANALOG_IN_1*%
X141937000Y-55118000D03*
D11*
X140462000Y-53593000D03*
D10*
X138987000Y-55118000D03*
%TD*%
%TO.C,ANALOG_IN_2*%
X141937000Y-44450000D03*
D11*
X140462000Y-42925000D03*
D10*
X138987000Y-44450000D03*
%TD*%
%TO.C,CLK_N1*%
X163371000Y-36938000D03*
D11*
X164846000Y-38463000D03*
D10*
X166321000Y-36938000D03*
%TD*%
D12*
%TO.C,ANALOG_OUT_2*%
X165100000Y-64360000D03*
D13*
X163575000Y-65835000D03*
D12*
X165100000Y-67310000D03*
%TD*%
D10*
%TO.C,CS1*%
X115013000Y-49930000D03*
D11*
X113538000Y-48405000D03*
D10*
X112063000Y-49930000D03*
%TD*%
%TO.C,ANALOG_OUT_0*%
X155145000Y-58166000D03*
D11*
X153670000Y-56641000D03*
D10*
X152195000Y-58166000D03*
%TD*%
D12*
%TO.C,MISO1*%
X100733000Y-67558000D03*
D13*
X102258000Y-66083000D03*
D12*
X100733000Y-64608000D03*
%TD*%
D10*
%TO.C,ANALOG_OUT_3*%
X155145000Y-43326000D03*
D11*
X153670000Y-41801000D03*
D10*
X152195000Y-43326000D03*
%TD*%
%TO.C,CLK_P1*%
X166321000Y-43942000D03*
D11*
X164846000Y-42417000D03*
D10*
X163371000Y-43942000D03*
%TD*%
%TO.C,SCLK1*%
X115013000Y-42056000D03*
D11*
X113538000Y-40531000D03*
D10*
X112063000Y-42056000D03*
%TD*%
%TO.C,I2C_SCL1*%
X128221000Y-44450000D03*
D11*
X126746000Y-42925000D03*
D10*
X125271000Y-44450000D03*
%TD*%
D14*
%TO.C,J1*%
X118110000Y-28194000D03*
D15*
X120650000Y-28194000D03*
X123190000Y-28194000D03*
X125730000Y-28194000D03*
X128270000Y-28194000D03*
X130810000Y-28194000D03*
X133350000Y-28194000D03*
X135890000Y-28194000D03*
X138430000Y-28194000D03*
X140970000Y-28194000D03*
X143510000Y-28194000D03*
X146050000Y-28194000D03*
X148590000Y-28194000D03*
X118110000Y-25654000D03*
X120650000Y-25654000D03*
X123190000Y-25654000D03*
X125730000Y-25654000D03*
X128270000Y-25654000D03*
X130810000Y-25654000D03*
X133350000Y-25654000D03*
X135890000Y-25654000D03*
X138430000Y-25654000D03*
X140970000Y-25654000D03*
X143510000Y-25654000D03*
X146050000Y-25654000D03*
X148590000Y-25654000D03*
%TD*%
M02*
