%TF.GenerationSoftware,KiCad,Pcbnew,(6.0.8)*%
%TF.CreationDate,2023-08-07T17:47:41+10:00*%
%TF.ProjectId,REDPITAYA-BRK,52454450-4954-4415-9941-2d42524b2e6b,rev?*%
%TF.SameCoordinates,Original*%
%TF.FileFunction,AssemblyDrawing,Bot*%
%FSLAX46Y46*%
G04 Gerber Fmt 4.6, Leading zero omitted, Abs format (unit mm)*
G04 Created by KiCad (PCBNEW (6.0.8)) date 2023-08-07 17:47:41*
%MOMM*%
%LPD*%
G01*
G04 APERTURE LIST*
%ADD10C,0.150000*%
%ADD11C,0.127000*%
%ADD12C,0.200000*%
G04 APERTURE END LIST*
D10*
%TO.C,J1*%
X133530333Y-22281333D02*
X133797000Y-22281333D01*
X133930333Y-22348000D01*
X133997000Y-22414666D01*
X134130333Y-22614666D01*
X134197000Y-22881333D01*
X134197000Y-23414666D01*
X134130333Y-23548000D01*
X134063666Y-23614666D01*
X133930333Y-23681333D01*
X133663666Y-23681333D01*
X133530333Y-23614666D01*
X133463666Y-23548000D01*
X133397000Y-23414666D01*
X133397000Y-23081333D01*
X133463666Y-22948000D01*
X133530333Y-22881333D01*
X133663666Y-22814666D01*
X133930333Y-22814666D01*
X134063666Y-22881333D01*
X134130333Y-22948000D01*
X134197000Y-23081333D01*
X132797000Y-23148000D02*
X131730333Y-23148000D01*
X130397000Y-22281333D02*
X131063666Y-22281333D01*
X131130333Y-22948000D01*
X131063666Y-22881333D01*
X130930333Y-22814666D01*
X130597000Y-22814666D01*
X130463666Y-22881333D01*
X130397000Y-22948000D01*
X130330333Y-23081333D01*
X130330333Y-23414666D01*
X130397000Y-23548000D01*
X130463666Y-23614666D01*
X130597000Y-23681333D01*
X130930333Y-23681333D01*
X131063666Y-23614666D01*
X131130333Y-23548000D01*
X129863666Y-22281333D02*
X128997000Y-22281333D01*
X129463666Y-22814666D01*
X129263666Y-22814666D01*
X129130333Y-22881333D01*
X129063666Y-22948000D01*
X128997000Y-23081333D01*
X128997000Y-23414666D01*
X129063666Y-23548000D01*
X129130333Y-23614666D01*
X129263666Y-23681333D01*
X129663666Y-23681333D01*
X129797000Y-23614666D01*
X129863666Y-23548000D01*
X127797000Y-22748000D02*
X127797000Y-23681333D01*
X128130333Y-22214666D02*
X128463666Y-23214666D01*
X127597000Y-23214666D01*
X127130333Y-22414666D02*
X127063666Y-22348000D01*
X126930333Y-22281333D01*
X126597000Y-22281333D01*
X126463666Y-22348000D01*
X126397000Y-22414666D01*
X126330333Y-22548000D01*
X126330333Y-22681333D01*
X126397000Y-22881333D01*
X127197000Y-23681333D01*
X126330333Y-23681333D01*
X125463666Y-22281333D02*
X125330333Y-22281333D01*
X125197000Y-22348000D01*
X125130333Y-22414666D01*
X125063666Y-22548000D01*
X124997000Y-22814666D01*
X124997000Y-23148000D01*
X125063666Y-23414666D01*
X125130333Y-23548000D01*
X125197000Y-23614666D01*
X125330333Y-23681333D01*
X125463666Y-23681333D01*
X125597000Y-23614666D01*
X125663666Y-23548000D01*
X125730333Y-23414666D01*
X125797000Y-23148000D01*
X125797000Y-22814666D01*
X125730333Y-22548000D01*
X125663666Y-22414666D01*
X125597000Y-22348000D01*
X125463666Y-22281333D01*
X123797000Y-22281333D02*
X124063666Y-22281333D01*
X124197000Y-22348000D01*
X124263666Y-22414666D01*
X124397000Y-22614666D01*
X124463666Y-22881333D01*
X124463666Y-23414666D01*
X124397000Y-23548000D01*
X124330333Y-23614666D01*
X124197000Y-23681333D01*
X123930333Y-23681333D01*
X123797000Y-23614666D01*
X123730333Y-23548000D01*
X123663666Y-23414666D01*
X123663666Y-23081333D01*
X123730333Y-22948000D01*
X123797000Y-22881333D01*
X123930333Y-22814666D01*
X124197000Y-22814666D01*
X124330333Y-22881333D01*
X124397000Y-22948000D01*
X124463666Y-23081333D01*
X123063666Y-23148000D02*
X121997000Y-23148000D01*
X121463666Y-22281333D02*
X120597000Y-22281333D01*
X121063666Y-22814666D01*
X120863666Y-22814666D01*
X120730333Y-22881333D01*
X120663666Y-22948000D01*
X120597000Y-23081333D01*
X120597000Y-23414666D01*
X120663666Y-23548000D01*
X120730333Y-23614666D01*
X120863666Y-23681333D01*
X121263666Y-23681333D01*
X121397000Y-23614666D01*
X121463666Y-23548000D01*
D11*
X116840000Y-24409000D02*
X116840000Y-29439000D01*
X116840000Y-29439000D02*
X149860000Y-29439000D01*
X149860000Y-24409000D02*
X116840000Y-24409000D01*
X149860000Y-29439000D02*
X149860000Y-24409000D01*
D12*
X118210000Y-30439000D02*
G75*
G03*
X118210000Y-30439000I-100000J0D01*
G01*
%TD*%
M02*
