%TF.GenerationSoftware,KiCad,Pcbnew,(6.0.8)*%
%TF.CreationDate,2023-08-07T17:47:41+10:00*%
%TF.ProjectId,REDPITAYA-BRK,52454450-4954-4415-9941-2d42524b2e6b,rev?*%
%TF.SameCoordinates,Original*%
%TF.FileFunction,Copper,L3,Inr*%
%TF.FilePolarity,Positive*%
%FSLAX46Y46*%
G04 Gerber Fmt 4.6, Leading zero omitted, Abs format (unit mm)*
G04 Created by KiCad (PCBNEW (6.0.8)) date 2023-08-07 17:47:41*
%MOMM*%
%LPD*%
G01*
G04 APERTURE LIST*
%TA.AperFunction,ComponentPad*%
%ADD10R,1.398000X1.398000*%
%TD*%
%TA.AperFunction,ComponentPad*%
%ADD11C,1.398000*%
%TD*%
%TA.AperFunction,ViaPad*%
%ADD12C,0.600000*%
%TD*%
G04 APERTURE END LIST*
D10*
%TO.N,/p5v*%
%TO.C,J1*%
X118110000Y-28194000D03*
D11*
%TO.N,/mosi*%
X120650000Y-28194000D03*
%TO.N,/sclk*%
X123190000Y-28194000D03*
%TO.N,/uart_tx*%
X125730000Y-28194000D03*
%TO.N,/i2c_scl*%
X128270000Y-28194000D03*
%TO.N,/ext_com*%
X130810000Y-28194000D03*
%TO.N,/ai0*%
X133350000Y-28194000D03*
%TO.N,/ai2*%
X135890000Y-28194000D03*
%TO.N,/ao0*%
X138430000Y-28194000D03*
%TO.N,/ao2*%
X140970000Y-28194000D03*
%TO.N,GND*%
X143510000Y-28194000D03*
%TO.N,/CLK_P*%
X146050000Y-28194000D03*
%TO.N,GND*%
X148590000Y-28194000D03*
%TO.N,/m4v*%
X118110000Y-25654000D03*
%TO.N,/miso*%
X120650000Y-25654000D03*
%TO.N,/cs*%
X123190000Y-25654000D03*
%TO.N,/uart_rx*%
X125730000Y-25654000D03*
%TO.N,/i2c_sda*%
X128270000Y-25654000D03*
%TO.N,GND*%
X130810000Y-25654000D03*
%TO.N,/ai1*%
X133350000Y-25654000D03*
%TO.N,/ai3*%
X135890000Y-25654000D03*
%TO.N,/ao1*%
X138430000Y-25654000D03*
%TO.N,/ao3*%
X140970000Y-25654000D03*
%TO.N,GND*%
X143510000Y-25654000D03*
%TO.N,/CLK_N*%
X146050000Y-25654000D03*
%TO.N,GND*%
X148590000Y-25654000D03*
%TD*%
D12*
%TO.N,GND*%
X145796000Y-51816000D03*
X134874000Y-42672000D03*
X165100000Y-40386000D03*
X165862000Y-41402000D03*
X165862000Y-39370000D03*
X163576000Y-39370000D03*
X163576000Y-41402000D03*
X151892000Y-35052000D03*
X155702000Y-38862000D03*
X154940000Y-38100000D03*
X151130000Y-34290000D03*
X148336000Y-31242000D03*
X148844000Y-32004000D03*
X149606000Y-32766000D03*
X148336000Y-30226000D03*
X152654000Y-35814000D03*
X153416000Y-36576000D03*
X154178000Y-37338000D03*
X150368000Y-33528000D03*
X156464000Y-39370000D03*
X159512000Y-39370000D03*
X157480000Y-39370000D03*
X162560000Y-39370000D03*
X161544000Y-39370000D03*
X160528000Y-39370000D03*
X158496000Y-39370000D03*
X162560000Y-41402000D03*
X161544000Y-41402000D03*
X160528000Y-41402000D03*
X159512000Y-41402000D03*
X158496000Y-41402000D03*
X157480000Y-41402000D03*
X156464000Y-41402000D03*
X155194000Y-40894000D03*
X154432000Y-40132000D03*
X153670000Y-39370000D03*
X152908000Y-38608000D03*
X152146000Y-37846000D03*
X151384000Y-37084000D03*
X150622000Y-36322000D03*
X149860000Y-35560000D03*
X149098000Y-34798000D03*
X148336000Y-34036000D03*
X147574000Y-33274000D03*
X146812000Y-32512000D03*
X146304000Y-31242000D03*
X146304000Y-30226000D03*
X135636000Y-51562000D03*
X162306000Y-45212000D03*
X102108000Y-60452000D03*
X100837000Y-63600000D03*
X147320000Y-66040000D03*
X140462000Y-49022000D03*
X138012000Y-56324000D03*
X165862000Y-55880000D03*
X129261000Y-67468600D03*
X129281000Y-53363600D03*
X99198000Y-60467000D03*
X111047000Y-41915000D03*
X100584000Y-35560000D03*
X100827000Y-68555000D03*
X99402000Y-63615000D03*
X107696000Y-67310000D03*
X129246000Y-66033600D03*
X156215000Y-42648000D03*
X147828000Y-56388000D03*
X116001000Y-64488600D03*
X116018000Y-57643000D03*
X102008000Y-46791000D03*
X116083000Y-51235000D03*
X99033000Y-46796000D03*
X116013000Y-56143000D03*
X144272000Y-61214000D03*
X167386000Y-45212000D03*
X151259000Y-64715000D03*
X151145000Y-59044000D03*
X156209000Y-66160000D03*
X163884000Y-63386800D03*
X102030000Y-55285000D03*
X116083000Y-49760000D03*
X129286000Y-56338600D03*
X102033000Y-44251000D03*
X111046000Y-64468600D03*
X124271000Y-54898600D03*
X137997000Y-53414000D03*
X124460000Y-48514000D03*
X99058000Y-44256000D03*
X151145000Y-57569000D03*
X108204000Y-63246000D03*
X129286000Y-54863600D03*
X129246000Y-64558600D03*
X158750000Y-54356000D03*
X156194000Y-64725000D03*
X120118092Y-65250947D03*
X129004000Y-45890000D03*
X102302000Y-68555000D03*
X142882000Y-56329000D03*
X165349000Y-68301800D03*
X111003000Y-59109000D03*
X167401000Y-38100000D03*
X156209000Y-67635000D03*
X99120000Y-55300000D03*
X166794000Y-63371800D03*
X163874000Y-68301800D03*
X164846000Y-50038000D03*
X156215000Y-49760000D03*
X99392000Y-68570000D03*
X162306000Y-35560000D03*
X128989000Y-44455000D03*
X124271000Y-56373600D03*
X110998000Y-56134000D03*
X111023000Y-48299000D03*
X129540000Y-49530000D03*
X121158000Y-59436000D03*
X142882000Y-54854000D03*
X160274000Y-66802000D03*
X100555000Y-55285000D03*
X156215000Y-44123000D03*
X104648000Y-51308000D03*
X123896000Y-66013600D03*
X138041000Y-64595000D03*
X128989000Y-42980000D03*
X156215000Y-51235000D03*
X142981000Y-64555000D03*
X124266000Y-53398600D03*
X138012000Y-45747600D03*
X156225000Y-59044000D03*
X162306000Y-36830000D03*
X116077000Y-43360000D03*
X132080000Y-30734000D03*
X151274000Y-67625000D03*
X156210000Y-54356000D03*
X149606000Y-49530000D03*
X167386000Y-35560000D03*
X156210000Y-56134000D03*
X100533000Y-51736000D03*
X105410000Y-58928000D03*
X143002000Y-44245000D03*
X111061000Y-67378600D03*
X116016000Y-67398600D03*
X167386000Y-36830000D03*
X102028000Y-39281000D03*
X143002000Y-45720000D03*
X124206000Y-44401000D03*
X106426000Y-34290000D03*
X167371000Y-42302000D03*
X100533000Y-46791000D03*
X142867000Y-53419000D03*
X124221000Y-45836000D03*
X138012000Y-44272600D03*
X116077000Y-41885000D03*
X138012000Y-54849000D03*
X100593000Y-39296000D03*
X158242000Y-37084000D03*
X151135000Y-49760000D03*
X142987000Y-42810000D03*
X167371000Y-43777000D03*
X152146000Y-41656000D03*
X116001000Y-65963600D03*
X156225000Y-57569000D03*
X102312000Y-63600000D03*
X132080000Y-61468000D03*
X142996000Y-67465000D03*
X151274000Y-66150000D03*
X159512000Y-44704000D03*
X125222000Y-42672000D03*
X123911000Y-67448600D03*
X100558000Y-44251000D03*
X116018000Y-59118000D03*
X111046000Y-65943600D03*
X99118000Y-39296000D03*
X138056000Y-66030000D03*
X142981000Y-66030000D03*
X111023000Y-49774000D03*
X139446000Y-58674000D03*
X147828000Y-48006000D03*
X164338000Y-60706000D03*
X138056000Y-67505000D03*
X151130000Y-56134000D03*
X155702000Y-33782000D03*
X151135000Y-42926000D03*
X102008000Y-51736000D03*
X162291000Y-43777000D03*
X111047000Y-43390000D03*
X116078000Y-48260000D03*
X165359000Y-63386800D03*
X119634000Y-54102000D03*
X130556000Y-34798000D03*
X166784000Y-68286800D03*
X100633000Y-60452000D03*
X156210000Y-48260000D03*
X111003000Y-57634000D03*
X123896000Y-64538600D03*
X137997000Y-42837600D03*
X111038000Y-51209000D03*
X133604000Y-65532000D03*
X99033000Y-51741000D03*
%TD*%
%TA.AperFunction,Conductor*%
%TO.N,GND*%
G36*
X170027100Y-71145900D02*
G01*
X170009507Y-71194238D01*
X169964958Y-71219958D01*
X169951900Y-71221100D01*
X96748100Y-71221100D01*
X96699762Y-71203507D01*
X96674042Y-71158958D01*
X96672900Y-71145900D01*
X96672900Y-46916000D01*
X170027100Y-46916000D01*
X170027100Y-71145900D01*
G37*
%TD.AperFunction*%
%TD*%
%TA.AperFunction,Conductor*%
%TO.N,GND*%
G36*
X149887066Y-24347813D02*
G01*
X149912376Y-24391650D01*
X149913500Y-24404500D01*
X149913500Y-31435436D01*
X149911589Y-31452145D01*
X149909783Y-31459938D01*
X149911788Y-31488252D01*
X149913315Y-31509825D01*
X149913500Y-31515051D01*
X149913500Y-31530149D01*
X149913909Y-31532868D01*
X149913909Y-31532871D01*
X149915439Y-31543046D01*
X149916076Y-31548821D01*
X149919435Y-31596266D01*
X149921429Y-31601422D01*
X149921430Y-31601424D01*
X149923040Y-31605586D01*
X149927201Y-31621281D01*
X149928685Y-31631151D01*
X149931079Y-31636136D01*
X149931079Y-31636137D01*
X149949277Y-31674035D01*
X149951584Y-31679367D01*
X149968747Y-31723730D01*
X149972174Y-31728077D01*
X149974930Y-31731573D01*
X149983524Y-31745353D01*
X149987846Y-31754353D01*
X149991600Y-31758414D01*
X149991604Y-31758420D01*
X150020140Y-31789289D01*
X150023900Y-31793691D01*
X150053359Y-31831059D01*
X150061574Y-31836737D01*
X150073843Y-31847384D01*
X150080617Y-31854712D01*
X150085399Y-31857490D01*
X150085402Y-31857492D01*
X150121748Y-31878604D01*
X150126651Y-31881715D01*
X150165789Y-31908764D01*
X150175312Y-31911776D01*
X150190162Y-31918341D01*
X150198797Y-31923357D01*
X150204184Y-31924606D01*
X150204185Y-31924606D01*
X150214839Y-31927075D01*
X150245146Y-31934100D01*
X150250728Y-31935627D01*
X150296097Y-31949975D01*
X150300295Y-31950305D01*
X150300298Y-31950306D01*
X150301074Y-31950367D01*
X150302768Y-31950500D01*
X150307436Y-31950500D01*
X150324145Y-31952411D01*
X150326548Y-31952968D01*
X150326550Y-31952968D01*
X150331938Y-31954217D01*
X150381825Y-31950685D01*
X150387051Y-31950500D01*
X169651500Y-31950500D01*
X169699066Y-31967813D01*
X169724376Y-32011650D01*
X169725500Y-32024500D01*
X169725500Y-70845500D01*
X169708187Y-70893066D01*
X169664350Y-70918376D01*
X169651500Y-70919500D01*
X97048500Y-70919500D01*
X97000934Y-70902187D01*
X96975624Y-70858350D01*
X96974500Y-70845500D01*
X96974500Y-31770500D01*
X96991813Y-31722934D01*
X97035650Y-31697624D01*
X97048500Y-31696500D01*
X116271436Y-31696500D01*
X116288145Y-31698411D01*
X116290548Y-31698968D01*
X116290550Y-31698968D01*
X116295938Y-31700217D01*
X116345825Y-31696685D01*
X116351051Y-31696500D01*
X116366149Y-31696500D01*
X116368868Y-31696091D01*
X116368871Y-31696091D01*
X116379046Y-31694561D01*
X116384821Y-31693924D01*
X116432266Y-31690565D01*
X116437422Y-31688571D01*
X116437424Y-31688570D01*
X116441586Y-31686960D01*
X116457281Y-31682799D01*
X116457410Y-31682780D01*
X116467151Y-31681315D01*
X116472136Y-31678921D01*
X116472137Y-31678921D01*
X116510035Y-31660723D01*
X116515367Y-31658416D01*
X116531493Y-31652177D01*
X116559730Y-31641253D01*
X116567573Y-31635070D01*
X116581353Y-31626476D01*
X116583620Y-31625387D01*
X116585364Y-31624550D01*
X116585365Y-31624549D01*
X116590353Y-31622154D01*
X116594414Y-31618400D01*
X116594420Y-31618396D01*
X116625289Y-31589860D01*
X116629691Y-31586100D01*
X116667059Y-31556641D01*
X116672737Y-31548426D01*
X116683384Y-31536157D01*
X116686649Y-31533139D01*
X116686650Y-31533138D01*
X116690712Y-31529383D01*
X116693490Y-31524601D01*
X116693492Y-31524598D01*
X116714604Y-31488252D01*
X116717716Y-31483347D01*
X116741621Y-31448759D01*
X116741622Y-31448758D01*
X116744764Y-31444211D01*
X116747776Y-31434688D01*
X116754341Y-31419838D01*
X116759357Y-31411203D01*
X116770100Y-31364854D01*
X116771627Y-31359272D01*
X116785975Y-31313903D01*
X116786500Y-31307232D01*
X116786500Y-31302564D01*
X116788411Y-31285855D01*
X116788968Y-31283452D01*
X116788968Y-31283450D01*
X116790217Y-31278062D01*
X116786685Y-31228175D01*
X116786500Y-31222949D01*
X116786500Y-27440685D01*
X116956500Y-27440685D01*
X116956501Y-28947314D01*
X116959507Y-28979127D01*
X117004791Y-29108076D01*
X117008075Y-29112522D01*
X117008076Y-29112524D01*
X117066336Y-29191401D01*
X117085990Y-29218010D01*
X117090439Y-29221296D01*
X117191233Y-29295744D01*
X117195924Y-29299209D01*
X117324873Y-29344493D01*
X117329356Y-29344917D01*
X117329357Y-29344917D01*
X117354957Y-29347337D01*
X117354964Y-29347337D01*
X117356685Y-29347500D01*
X118109351Y-29347500D01*
X118863314Y-29347499D01*
X118895127Y-29344493D01*
X119024076Y-29299209D01*
X119028768Y-29295744D01*
X119129561Y-29221296D01*
X119134010Y-29218010D01*
X119153664Y-29191401D01*
X119211924Y-29112524D01*
X119211925Y-29112522D01*
X119215209Y-29108076D01*
X119260493Y-28979127D01*
X119260918Y-28974636D01*
X119263337Y-28949043D01*
X119263337Y-28949036D01*
X119263500Y-28947315D01*
X119263499Y-28163676D01*
X119491955Y-28163676D01*
X119505820Y-28375220D01*
X119558005Y-28580696D01*
X119559421Y-28583768D01*
X119559423Y-28583773D01*
X119645341Y-28770144D01*
X119646760Y-28773221D01*
X119648718Y-28775991D01*
X119767155Y-28943577D01*
X119767159Y-28943581D01*
X119769114Y-28946348D01*
X119771539Y-28948710D01*
X119771543Y-28948715D01*
X119918537Y-29091910D01*
X119920969Y-29094279D01*
X119923787Y-29096162D01*
X119923792Y-29096166D01*
X120004900Y-29150360D01*
X120097239Y-29212059D01*
X120100353Y-29213397D01*
X120100355Y-29213398D01*
X120187025Y-29250634D01*
X120292022Y-29295744D01*
X120295331Y-29296493D01*
X120295335Y-29296494D01*
X120495477Y-29341781D01*
X120495480Y-29341781D01*
X120498793Y-29342531D01*
X120604711Y-29346693D01*
X120707233Y-29350721D01*
X120707237Y-29350721D01*
X120710628Y-29350854D01*
X120851686Y-29330402D01*
X120917075Y-29320921D01*
X120917076Y-29320921D01*
X120920433Y-29320434D01*
X121121181Y-29252289D01*
X121124133Y-29250636D01*
X121124137Y-29250634D01*
X121303188Y-29150360D01*
X121306149Y-29148702D01*
X121308754Y-29146535D01*
X121308759Y-29146532D01*
X121466534Y-29015311D01*
X121469142Y-29013142D01*
X121501167Y-28974636D01*
X121602532Y-28852759D01*
X121602535Y-28852754D01*
X121604702Y-28850149D01*
X121708289Y-28665181D01*
X121776434Y-28464433D01*
X121806854Y-28254628D01*
X121808442Y-28194000D01*
X121805656Y-28163676D01*
X122031955Y-28163676D01*
X122045820Y-28375220D01*
X122098005Y-28580696D01*
X122099421Y-28583768D01*
X122099423Y-28583773D01*
X122185341Y-28770144D01*
X122186760Y-28773221D01*
X122188718Y-28775991D01*
X122307155Y-28943577D01*
X122307159Y-28943581D01*
X122309114Y-28946348D01*
X122311539Y-28948710D01*
X122311543Y-28948715D01*
X122458537Y-29091910D01*
X122460969Y-29094279D01*
X122463787Y-29096162D01*
X122463792Y-29096166D01*
X122544900Y-29150360D01*
X122637239Y-29212059D01*
X122640353Y-29213397D01*
X122640355Y-29213398D01*
X122727025Y-29250634D01*
X122832022Y-29295744D01*
X122835331Y-29296493D01*
X122835335Y-29296494D01*
X123035477Y-29341781D01*
X123035480Y-29341781D01*
X123038793Y-29342531D01*
X123144711Y-29346693D01*
X123247233Y-29350721D01*
X123247237Y-29350721D01*
X123250628Y-29350854D01*
X123391686Y-29330402D01*
X123457075Y-29320921D01*
X123457076Y-29320921D01*
X123460433Y-29320434D01*
X123661181Y-29252289D01*
X123664133Y-29250636D01*
X123664137Y-29250634D01*
X123843188Y-29150360D01*
X123846149Y-29148702D01*
X123848754Y-29146535D01*
X123848759Y-29146532D01*
X124006534Y-29015311D01*
X124009142Y-29013142D01*
X124041167Y-28974636D01*
X124142532Y-28852759D01*
X124142535Y-28852754D01*
X124144702Y-28850149D01*
X124248289Y-28665181D01*
X124316434Y-28464433D01*
X124346854Y-28254628D01*
X124348442Y-28194000D01*
X124345656Y-28163676D01*
X124571955Y-28163676D01*
X124585820Y-28375220D01*
X124638005Y-28580696D01*
X124639421Y-28583768D01*
X124639423Y-28583773D01*
X124725341Y-28770144D01*
X124726760Y-28773221D01*
X124728718Y-28775991D01*
X124847155Y-28943577D01*
X124847159Y-28943581D01*
X124849114Y-28946348D01*
X124851539Y-28948710D01*
X124851543Y-28948715D01*
X124998537Y-29091910D01*
X125000969Y-29094279D01*
X125003787Y-29096162D01*
X125003792Y-29096166D01*
X125084900Y-29150360D01*
X125177239Y-29212059D01*
X125180353Y-29213397D01*
X125180355Y-29213398D01*
X125267025Y-29250634D01*
X125372022Y-29295744D01*
X125375331Y-29296493D01*
X125375335Y-29296494D01*
X125575477Y-29341781D01*
X125575480Y-29341781D01*
X125578793Y-29342531D01*
X125684711Y-29346693D01*
X125787233Y-29350721D01*
X125787237Y-29350721D01*
X125790628Y-29350854D01*
X125931686Y-29330402D01*
X125997075Y-29320921D01*
X125997076Y-29320921D01*
X126000433Y-29320434D01*
X126201181Y-29252289D01*
X126204133Y-29250636D01*
X126204137Y-29250634D01*
X126383188Y-29150360D01*
X126386149Y-29148702D01*
X126388754Y-29146535D01*
X126388759Y-29146532D01*
X126546534Y-29015311D01*
X126549142Y-29013142D01*
X126581167Y-28974636D01*
X126682532Y-28852759D01*
X126682535Y-28852754D01*
X126684702Y-28850149D01*
X126788289Y-28665181D01*
X126856434Y-28464433D01*
X126886854Y-28254628D01*
X126888442Y-28194000D01*
X126885656Y-28163676D01*
X127111955Y-28163676D01*
X127125820Y-28375220D01*
X127178005Y-28580696D01*
X127179421Y-28583768D01*
X127179423Y-28583773D01*
X127265341Y-28770144D01*
X127266760Y-28773221D01*
X127268718Y-28775991D01*
X127387155Y-28943577D01*
X127387159Y-28943581D01*
X127389114Y-28946348D01*
X127391539Y-28948710D01*
X127391543Y-28948715D01*
X127538537Y-29091910D01*
X127540969Y-29094279D01*
X127543787Y-29096162D01*
X127543792Y-29096166D01*
X127624900Y-29150360D01*
X127717239Y-29212059D01*
X127720353Y-29213397D01*
X127720355Y-29213398D01*
X127807025Y-29250634D01*
X127912022Y-29295744D01*
X127915331Y-29296493D01*
X127915335Y-29296494D01*
X128115477Y-29341781D01*
X128115480Y-29341781D01*
X128118793Y-29342531D01*
X128224711Y-29346693D01*
X128327233Y-29350721D01*
X128327237Y-29350721D01*
X128330628Y-29350854D01*
X128471686Y-29330402D01*
X128537075Y-29320921D01*
X128537076Y-29320921D01*
X128540433Y-29320434D01*
X128741181Y-29252289D01*
X128744133Y-29250636D01*
X128744137Y-29250634D01*
X128923188Y-29150360D01*
X128926149Y-29148702D01*
X128928754Y-29146535D01*
X128928759Y-29146532D01*
X129086534Y-29015311D01*
X129089142Y-29013142D01*
X129121167Y-28974636D01*
X129222532Y-28852759D01*
X129222535Y-28852754D01*
X129224702Y-28850149D01*
X129328289Y-28665181D01*
X129396434Y-28464433D01*
X129426854Y-28254628D01*
X129428442Y-28194000D01*
X129425656Y-28163676D01*
X129651955Y-28163676D01*
X129665820Y-28375220D01*
X129718005Y-28580696D01*
X129719421Y-28583768D01*
X129719423Y-28583773D01*
X129805341Y-28770144D01*
X129806760Y-28773221D01*
X129808718Y-28775991D01*
X129927155Y-28943577D01*
X129927159Y-28943581D01*
X129929114Y-28946348D01*
X129931539Y-28948710D01*
X129931543Y-28948715D01*
X130078537Y-29091910D01*
X130080969Y-29094279D01*
X130083787Y-29096162D01*
X130083792Y-29096166D01*
X130164900Y-29150360D01*
X130257239Y-29212059D01*
X130260353Y-29213397D01*
X130260355Y-29213398D01*
X130347025Y-29250634D01*
X130452022Y-29295744D01*
X130455331Y-29296493D01*
X130455335Y-29296494D01*
X130655477Y-29341781D01*
X130655480Y-29341781D01*
X130658793Y-29342531D01*
X130764711Y-29346693D01*
X130867233Y-29350721D01*
X130867237Y-29350721D01*
X130870628Y-29350854D01*
X131011686Y-29330402D01*
X131077075Y-29320921D01*
X131077076Y-29320921D01*
X131080433Y-29320434D01*
X131281181Y-29252289D01*
X131284133Y-29250636D01*
X131284137Y-29250634D01*
X131463188Y-29150360D01*
X131466149Y-29148702D01*
X131468754Y-29146535D01*
X131468759Y-29146532D01*
X131626534Y-29015311D01*
X131629142Y-29013142D01*
X131661167Y-28974636D01*
X131762532Y-28852759D01*
X131762535Y-28852754D01*
X131764702Y-28850149D01*
X131868289Y-28665181D01*
X131936434Y-28464433D01*
X131966854Y-28254628D01*
X131968442Y-28194000D01*
X131965656Y-28163676D01*
X132191955Y-28163676D01*
X132205820Y-28375220D01*
X132258005Y-28580696D01*
X132259421Y-28583768D01*
X132259423Y-28583773D01*
X132345341Y-28770144D01*
X132346760Y-28773221D01*
X132348718Y-28775991D01*
X132467155Y-28943577D01*
X132467159Y-28943581D01*
X132469114Y-28946348D01*
X132471539Y-28948710D01*
X132471543Y-28948715D01*
X132618537Y-29091910D01*
X132620969Y-29094279D01*
X132623787Y-29096162D01*
X132623792Y-29096166D01*
X132704900Y-29150360D01*
X132797239Y-29212059D01*
X132800353Y-29213397D01*
X132800355Y-29213398D01*
X132887025Y-29250634D01*
X132992022Y-29295744D01*
X132995331Y-29296493D01*
X132995335Y-29296494D01*
X133195477Y-29341781D01*
X133195480Y-29341781D01*
X133198793Y-29342531D01*
X133304711Y-29346693D01*
X133407233Y-29350721D01*
X133407237Y-29350721D01*
X133410628Y-29350854D01*
X133551686Y-29330402D01*
X133617075Y-29320921D01*
X133617076Y-29320921D01*
X133620433Y-29320434D01*
X133821181Y-29252289D01*
X133824133Y-29250636D01*
X133824137Y-29250634D01*
X134003188Y-29150360D01*
X134006149Y-29148702D01*
X134008754Y-29146535D01*
X134008759Y-29146532D01*
X134166534Y-29015311D01*
X134169142Y-29013142D01*
X134201167Y-28974636D01*
X134302532Y-28852759D01*
X134302535Y-28852754D01*
X134304702Y-28850149D01*
X134408289Y-28665181D01*
X134476434Y-28464433D01*
X134506854Y-28254628D01*
X134508442Y-28194000D01*
X134505656Y-28163676D01*
X134731955Y-28163676D01*
X134745820Y-28375220D01*
X134798005Y-28580696D01*
X134799421Y-28583768D01*
X134799423Y-28583773D01*
X134885341Y-28770144D01*
X134886760Y-28773221D01*
X134888718Y-28775991D01*
X135007155Y-28943577D01*
X135007159Y-28943581D01*
X135009114Y-28946348D01*
X135011539Y-28948710D01*
X135011543Y-28948715D01*
X135158537Y-29091910D01*
X135160969Y-29094279D01*
X135163787Y-29096162D01*
X135163792Y-29096166D01*
X135244900Y-29150360D01*
X135337239Y-29212059D01*
X135340353Y-29213397D01*
X135340355Y-29213398D01*
X135427025Y-29250634D01*
X135532022Y-29295744D01*
X135535331Y-29296493D01*
X135535335Y-29296494D01*
X135735477Y-29341781D01*
X135735480Y-29341781D01*
X135738793Y-29342531D01*
X135844711Y-29346693D01*
X135947233Y-29350721D01*
X135947237Y-29350721D01*
X135950628Y-29350854D01*
X136091686Y-29330402D01*
X136157075Y-29320921D01*
X136157076Y-29320921D01*
X136160433Y-29320434D01*
X136361181Y-29252289D01*
X136364133Y-29250636D01*
X136364137Y-29250634D01*
X136543188Y-29150360D01*
X136546149Y-29148702D01*
X136548754Y-29146535D01*
X136548759Y-29146532D01*
X136706534Y-29015311D01*
X136709142Y-29013142D01*
X136741167Y-28974636D01*
X136842532Y-28852759D01*
X136842535Y-28852754D01*
X136844702Y-28850149D01*
X136948289Y-28665181D01*
X137016434Y-28464433D01*
X137046854Y-28254628D01*
X137048442Y-28194000D01*
X137045656Y-28163676D01*
X137271955Y-28163676D01*
X137285820Y-28375220D01*
X137338005Y-28580696D01*
X137339421Y-28583768D01*
X137339423Y-28583773D01*
X137425341Y-28770144D01*
X137426760Y-28773221D01*
X137428718Y-28775991D01*
X137547155Y-28943577D01*
X137547159Y-28943581D01*
X137549114Y-28946348D01*
X137551539Y-28948710D01*
X137551543Y-28948715D01*
X137698537Y-29091910D01*
X137700969Y-29094279D01*
X137703787Y-29096162D01*
X137703792Y-29096166D01*
X137784900Y-29150360D01*
X137877239Y-29212059D01*
X137880353Y-29213397D01*
X137880355Y-29213398D01*
X137967025Y-29250634D01*
X138072022Y-29295744D01*
X138075331Y-29296493D01*
X138075335Y-29296494D01*
X138275477Y-29341781D01*
X138275480Y-29341781D01*
X138278793Y-29342531D01*
X138384711Y-29346693D01*
X138487233Y-29350721D01*
X138487237Y-29350721D01*
X138490628Y-29350854D01*
X138631686Y-29330402D01*
X138697075Y-29320921D01*
X138697076Y-29320921D01*
X138700433Y-29320434D01*
X138901181Y-29252289D01*
X138904133Y-29250636D01*
X138904137Y-29250634D01*
X139083188Y-29150360D01*
X139086149Y-29148702D01*
X139088754Y-29146535D01*
X139088759Y-29146532D01*
X139246534Y-29015311D01*
X139249142Y-29013142D01*
X139281167Y-28974636D01*
X139382532Y-28852759D01*
X139382535Y-28852754D01*
X139384702Y-28850149D01*
X139488289Y-28665181D01*
X139556434Y-28464433D01*
X139586854Y-28254628D01*
X139588442Y-28194000D01*
X139585656Y-28163676D01*
X139811955Y-28163676D01*
X139825820Y-28375220D01*
X139878005Y-28580696D01*
X139879421Y-28583768D01*
X139879423Y-28583773D01*
X139965341Y-28770144D01*
X139966760Y-28773221D01*
X139968718Y-28775991D01*
X140087155Y-28943577D01*
X140087159Y-28943581D01*
X140089114Y-28946348D01*
X140091539Y-28948710D01*
X140091543Y-28948715D01*
X140238537Y-29091910D01*
X140240969Y-29094279D01*
X140243787Y-29096162D01*
X140243792Y-29096166D01*
X140324900Y-29150360D01*
X140417239Y-29212059D01*
X140420353Y-29213397D01*
X140420355Y-29213398D01*
X140507025Y-29250634D01*
X140612022Y-29295744D01*
X140615331Y-29296493D01*
X140615335Y-29296494D01*
X140815477Y-29341781D01*
X140815480Y-29341781D01*
X140818793Y-29342531D01*
X140924711Y-29346693D01*
X141027233Y-29350721D01*
X141027237Y-29350721D01*
X141030628Y-29350854D01*
X141171686Y-29330402D01*
X141237075Y-29320921D01*
X141237076Y-29320921D01*
X141240433Y-29320434D01*
X141441181Y-29252289D01*
X141444133Y-29250636D01*
X141444137Y-29250634D01*
X141623188Y-29150360D01*
X141626149Y-29148702D01*
X141628754Y-29146535D01*
X141628759Y-29146532D01*
X141786534Y-29015311D01*
X141789142Y-29013142D01*
X141821167Y-28974636D01*
X141857710Y-28930698D01*
X143137658Y-28930698D01*
X143142126Y-28934381D01*
X143249801Y-28982322D01*
X143257141Y-28984707D01*
X143419387Y-29019193D01*
X143427066Y-29020000D01*
X143592934Y-29020000D01*
X143600613Y-29019193D01*
X143762859Y-28984707D01*
X143770199Y-28982322D01*
X143875154Y-28935592D01*
X143882805Y-28928204D01*
X143879954Y-28923165D01*
X143519226Y-28562436D01*
X143509587Y-28557941D01*
X143503688Y-28559522D01*
X143142152Y-28921059D01*
X143137658Y-28930698D01*
X141857710Y-28930698D01*
X141922532Y-28852759D01*
X141922535Y-28852754D01*
X141924702Y-28850149D01*
X142028289Y-28665181D01*
X142096434Y-28464433D01*
X142126854Y-28254628D01*
X142128341Y-28197853D01*
X142679855Y-28197853D01*
X142697195Y-28362829D01*
X142698798Y-28370367D01*
X142750056Y-28528125D01*
X142753193Y-28535171D01*
X142767322Y-28559643D01*
X142775470Y-28566480D01*
X142777587Y-28566480D01*
X142779576Y-28565213D01*
X143141564Y-28203226D01*
X143145674Y-28194413D01*
X143873941Y-28194413D01*
X143875522Y-28200312D01*
X144236928Y-28561717D01*
X144246567Y-28566212D01*
X144248614Y-28565663D01*
X144250204Y-28563928D01*
X144266807Y-28535171D01*
X144269944Y-28528125D01*
X144321202Y-28370367D01*
X144322805Y-28362829D01*
X144340145Y-28197853D01*
X144340145Y-28190147D01*
X144337363Y-28163676D01*
X144891955Y-28163676D01*
X144905820Y-28375220D01*
X144958005Y-28580696D01*
X144959421Y-28583768D01*
X144959423Y-28583773D01*
X145045341Y-28770144D01*
X145046760Y-28773221D01*
X145048718Y-28775991D01*
X145167155Y-28943577D01*
X145167159Y-28943581D01*
X145169114Y-28946348D01*
X145171539Y-28948710D01*
X145171543Y-28948715D01*
X145318537Y-29091910D01*
X145320969Y-29094279D01*
X145323787Y-29096162D01*
X145323792Y-29096166D01*
X145404900Y-29150360D01*
X145497239Y-29212059D01*
X145500353Y-29213397D01*
X145500355Y-29213398D01*
X145587025Y-29250634D01*
X145692022Y-29295744D01*
X145695331Y-29296493D01*
X145695335Y-29296494D01*
X145895477Y-29341781D01*
X145895480Y-29341781D01*
X145898793Y-29342531D01*
X146004711Y-29346693D01*
X146107233Y-29350721D01*
X146107237Y-29350721D01*
X146110628Y-29350854D01*
X146251686Y-29330402D01*
X146317075Y-29320921D01*
X146317076Y-29320921D01*
X146320433Y-29320434D01*
X146521181Y-29252289D01*
X146524133Y-29250636D01*
X146524137Y-29250634D01*
X146703188Y-29150360D01*
X146706149Y-29148702D01*
X146708754Y-29146535D01*
X146708759Y-29146532D01*
X146866534Y-29015311D01*
X146869142Y-29013142D01*
X146901167Y-28974636D01*
X146937710Y-28930698D01*
X148217658Y-28930698D01*
X148222126Y-28934381D01*
X148329801Y-28982322D01*
X148337141Y-28984707D01*
X148499387Y-29019193D01*
X148507066Y-29020000D01*
X148672934Y-29020000D01*
X148680613Y-29019193D01*
X148842859Y-28984707D01*
X148850199Y-28982322D01*
X148955154Y-28935592D01*
X148962805Y-28928204D01*
X148959954Y-28923165D01*
X148599226Y-28562436D01*
X148589587Y-28557941D01*
X148583688Y-28559522D01*
X148222152Y-28921059D01*
X148217658Y-28930698D01*
X146937710Y-28930698D01*
X147002532Y-28852759D01*
X147002535Y-28852754D01*
X147004702Y-28850149D01*
X147108289Y-28665181D01*
X147176434Y-28464433D01*
X147206854Y-28254628D01*
X147208341Y-28197853D01*
X147759855Y-28197853D01*
X147777195Y-28362829D01*
X147778798Y-28370367D01*
X147830056Y-28528125D01*
X147833193Y-28535171D01*
X147847322Y-28559643D01*
X147855470Y-28566480D01*
X147857587Y-28566480D01*
X147859576Y-28565213D01*
X148221564Y-28203226D01*
X148225674Y-28194413D01*
X148953941Y-28194413D01*
X148955522Y-28200312D01*
X149316928Y-28561717D01*
X149326567Y-28566212D01*
X149328614Y-28565663D01*
X149330204Y-28563928D01*
X149346807Y-28535171D01*
X149349944Y-28528125D01*
X149401202Y-28370367D01*
X149402805Y-28362829D01*
X149420145Y-28197853D01*
X149420145Y-28190147D01*
X149402805Y-28025171D01*
X149401202Y-28017633D01*
X149349944Y-27859875D01*
X149346807Y-27852829D01*
X149332678Y-27828357D01*
X149324530Y-27821520D01*
X149322413Y-27821520D01*
X149320424Y-27822787D01*
X148958436Y-28184774D01*
X148953941Y-28194413D01*
X148225674Y-28194413D01*
X148226059Y-28193587D01*
X148224478Y-28187688D01*
X147863072Y-27826283D01*
X147853433Y-27821788D01*
X147851386Y-27822337D01*
X147849796Y-27824072D01*
X147833193Y-27852829D01*
X147830056Y-27859875D01*
X147778798Y-28017633D01*
X147777195Y-28025171D01*
X147759855Y-28190147D01*
X147759855Y-28197853D01*
X147208341Y-28197853D01*
X147208442Y-28194000D01*
X147189044Y-27982891D01*
X147188125Y-27979633D01*
X147188124Y-27979627D01*
X147132420Y-27782117D01*
X147132419Y-27782115D01*
X147131499Y-27778852D01*
X147037734Y-27588716D01*
X147020824Y-27566070D01*
X146941465Y-27459796D01*
X148217195Y-27459796D01*
X148220046Y-27464835D01*
X148580774Y-27825564D01*
X148590413Y-27830059D01*
X148596312Y-27828478D01*
X148957848Y-27466941D01*
X148962342Y-27457302D01*
X148957874Y-27453619D01*
X148850199Y-27405678D01*
X148842859Y-27403293D01*
X148680613Y-27368807D01*
X148672934Y-27368000D01*
X148507066Y-27368000D01*
X148499387Y-27368807D01*
X148337141Y-27403293D01*
X148329801Y-27405678D01*
X148224846Y-27452408D01*
X148217195Y-27459796D01*
X146941465Y-27459796D01*
X146912922Y-27421572D01*
X146912921Y-27421571D01*
X146910890Y-27418851D01*
X146755215Y-27274946D01*
X146752340Y-27273132D01*
X146578791Y-27163631D01*
X146578789Y-27163630D01*
X146575922Y-27161821D01*
X146572774Y-27160565D01*
X146572772Y-27160564D01*
X146382169Y-27084521D01*
X146382166Y-27084520D01*
X146379015Y-27083263D01*
X146375688Y-27082601D01*
X146375684Y-27082600D01*
X146174414Y-27042565D01*
X146174412Y-27042565D01*
X146171090Y-27041904D01*
X146076291Y-27040663D01*
X145962503Y-27039173D01*
X145962498Y-27039173D01*
X145959110Y-27039129D01*
X145955764Y-27039704D01*
X145955763Y-27039704D01*
X145924943Y-27045000D01*
X145750173Y-27075031D01*
X145551278Y-27148407D01*
X145369085Y-27256801D01*
X145366541Y-27259032D01*
X145366537Y-27259035D01*
X145342718Y-27279924D01*
X145209696Y-27396581D01*
X145078449Y-27563067D01*
X144979739Y-27750683D01*
X144916873Y-27953146D01*
X144891955Y-28163676D01*
X144337363Y-28163676D01*
X144322805Y-28025171D01*
X144321202Y-28017633D01*
X144269944Y-27859875D01*
X144266807Y-27852829D01*
X144252678Y-27828357D01*
X144244530Y-27821520D01*
X144242413Y-27821520D01*
X144240424Y-27822787D01*
X143878436Y-28184774D01*
X143873941Y-28194413D01*
X143145674Y-28194413D01*
X143146059Y-28193587D01*
X143144478Y-28187688D01*
X142783072Y-27826283D01*
X142773433Y-27821788D01*
X142771386Y-27822337D01*
X142769796Y-27824072D01*
X142753193Y-27852829D01*
X142750056Y-27859875D01*
X142698798Y-28017633D01*
X142697195Y-28025171D01*
X142679855Y-28190147D01*
X142679855Y-28197853D01*
X142128341Y-28197853D01*
X142128442Y-28194000D01*
X142109044Y-27982891D01*
X142108125Y-27979633D01*
X142108124Y-27979627D01*
X142052420Y-27782117D01*
X142052419Y-27782115D01*
X142051499Y-27778852D01*
X141957734Y-27588716D01*
X141940824Y-27566070D01*
X141861465Y-27459796D01*
X143137195Y-27459796D01*
X143140046Y-27464835D01*
X143500774Y-27825564D01*
X143510413Y-27830059D01*
X143516312Y-27828478D01*
X143877848Y-27466941D01*
X143882342Y-27457302D01*
X143877874Y-27453619D01*
X143770199Y-27405678D01*
X143762859Y-27403293D01*
X143600613Y-27368807D01*
X143592934Y-27368000D01*
X143427066Y-27368000D01*
X143419387Y-27368807D01*
X143257141Y-27403293D01*
X143249801Y-27405678D01*
X143144846Y-27452408D01*
X143137195Y-27459796D01*
X141861465Y-27459796D01*
X141832922Y-27421572D01*
X141832921Y-27421571D01*
X141830890Y-27418851D01*
X141675215Y-27274946D01*
X141672340Y-27273132D01*
X141498791Y-27163631D01*
X141498789Y-27163630D01*
X141495922Y-27161821D01*
X141492774Y-27160565D01*
X141492772Y-27160564D01*
X141302169Y-27084521D01*
X141302166Y-27084520D01*
X141299015Y-27083263D01*
X141295688Y-27082601D01*
X141295684Y-27082600D01*
X141094414Y-27042565D01*
X141094412Y-27042565D01*
X141091090Y-27041904D01*
X140996291Y-27040663D01*
X140882503Y-27039173D01*
X140882498Y-27039173D01*
X140879110Y-27039129D01*
X140875764Y-27039704D01*
X140875763Y-27039704D01*
X140844943Y-27045000D01*
X140670173Y-27075031D01*
X140471278Y-27148407D01*
X140289085Y-27256801D01*
X140286541Y-27259032D01*
X140286537Y-27259035D01*
X140262718Y-27279924D01*
X140129696Y-27396581D01*
X139998449Y-27563067D01*
X139899739Y-27750683D01*
X139836873Y-27953146D01*
X139811955Y-28163676D01*
X139585656Y-28163676D01*
X139569044Y-27982891D01*
X139568125Y-27979633D01*
X139568124Y-27979627D01*
X139512420Y-27782117D01*
X139512419Y-27782115D01*
X139511499Y-27778852D01*
X139417734Y-27588716D01*
X139400824Y-27566070D01*
X139292922Y-27421572D01*
X139292921Y-27421571D01*
X139290890Y-27418851D01*
X139135215Y-27274946D01*
X139132340Y-27273132D01*
X138958791Y-27163631D01*
X138958789Y-27163630D01*
X138955922Y-27161821D01*
X138952774Y-27160565D01*
X138952772Y-27160564D01*
X138762169Y-27084521D01*
X138762166Y-27084520D01*
X138759015Y-27083263D01*
X138755688Y-27082601D01*
X138755684Y-27082600D01*
X138554414Y-27042565D01*
X138554412Y-27042565D01*
X138551090Y-27041904D01*
X138456291Y-27040663D01*
X138342503Y-27039173D01*
X138342498Y-27039173D01*
X138339110Y-27039129D01*
X138335764Y-27039704D01*
X138335763Y-27039704D01*
X138304943Y-27045000D01*
X138130173Y-27075031D01*
X137931278Y-27148407D01*
X137749085Y-27256801D01*
X137746541Y-27259032D01*
X137746537Y-27259035D01*
X137722718Y-27279924D01*
X137589696Y-27396581D01*
X137458449Y-27563067D01*
X137359739Y-27750683D01*
X137296873Y-27953146D01*
X137271955Y-28163676D01*
X137045656Y-28163676D01*
X137029044Y-27982891D01*
X137028125Y-27979633D01*
X137028124Y-27979627D01*
X136972420Y-27782117D01*
X136972419Y-27782115D01*
X136971499Y-27778852D01*
X136877734Y-27588716D01*
X136860824Y-27566070D01*
X136752922Y-27421572D01*
X136752921Y-27421571D01*
X136750890Y-27418851D01*
X136595215Y-27274946D01*
X136592340Y-27273132D01*
X136418791Y-27163631D01*
X136418789Y-27163630D01*
X136415922Y-27161821D01*
X136412774Y-27160565D01*
X136412772Y-27160564D01*
X136222169Y-27084521D01*
X136222166Y-27084520D01*
X136219015Y-27083263D01*
X136215688Y-27082601D01*
X136215684Y-27082600D01*
X136014414Y-27042565D01*
X136014412Y-27042565D01*
X136011090Y-27041904D01*
X135916291Y-27040663D01*
X135802503Y-27039173D01*
X135802498Y-27039173D01*
X135799110Y-27039129D01*
X135795764Y-27039704D01*
X135795763Y-27039704D01*
X135764943Y-27045000D01*
X135590173Y-27075031D01*
X135391278Y-27148407D01*
X135209085Y-27256801D01*
X135206541Y-27259032D01*
X135206537Y-27259035D01*
X135182718Y-27279924D01*
X135049696Y-27396581D01*
X134918449Y-27563067D01*
X134819739Y-27750683D01*
X134756873Y-27953146D01*
X134731955Y-28163676D01*
X134505656Y-28163676D01*
X134489044Y-27982891D01*
X134488125Y-27979633D01*
X134488124Y-27979627D01*
X134432420Y-27782117D01*
X134432419Y-27782115D01*
X134431499Y-27778852D01*
X134337734Y-27588716D01*
X134320824Y-27566070D01*
X134212922Y-27421572D01*
X134212921Y-27421571D01*
X134210890Y-27418851D01*
X134055215Y-27274946D01*
X134052340Y-27273132D01*
X133878791Y-27163631D01*
X133878789Y-27163630D01*
X133875922Y-27161821D01*
X133872774Y-27160565D01*
X133872772Y-27160564D01*
X133682169Y-27084521D01*
X133682166Y-27084520D01*
X133679015Y-27083263D01*
X133675688Y-27082601D01*
X133675684Y-27082600D01*
X133474414Y-27042565D01*
X133474412Y-27042565D01*
X133471090Y-27041904D01*
X133376291Y-27040663D01*
X133262503Y-27039173D01*
X133262498Y-27039173D01*
X133259110Y-27039129D01*
X133255764Y-27039704D01*
X133255763Y-27039704D01*
X133224943Y-27045000D01*
X133050173Y-27075031D01*
X132851278Y-27148407D01*
X132669085Y-27256801D01*
X132666541Y-27259032D01*
X132666537Y-27259035D01*
X132642718Y-27279924D01*
X132509696Y-27396581D01*
X132378449Y-27563067D01*
X132279739Y-27750683D01*
X132216873Y-27953146D01*
X132191955Y-28163676D01*
X131965656Y-28163676D01*
X131949044Y-27982891D01*
X131948125Y-27979633D01*
X131948124Y-27979627D01*
X131892420Y-27782117D01*
X131892419Y-27782115D01*
X131891499Y-27778852D01*
X131797734Y-27588716D01*
X131780824Y-27566070D01*
X131672922Y-27421572D01*
X131672921Y-27421571D01*
X131670890Y-27418851D01*
X131515215Y-27274946D01*
X131512340Y-27273132D01*
X131338791Y-27163631D01*
X131338789Y-27163630D01*
X131335922Y-27161821D01*
X131332774Y-27160565D01*
X131332772Y-27160564D01*
X131142169Y-27084521D01*
X131142166Y-27084520D01*
X131139015Y-27083263D01*
X131135688Y-27082601D01*
X131135684Y-27082600D01*
X130934414Y-27042565D01*
X130934412Y-27042565D01*
X130931090Y-27041904D01*
X130836291Y-27040663D01*
X130722503Y-27039173D01*
X130722498Y-27039173D01*
X130719110Y-27039129D01*
X130715764Y-27039704D01*
X130715763Y-27039704D01*
X130684943Y-27045000D01*
X130510173Y-27075031D01*
X130311278Y-27148407D01*
X130129085Y-27256801D01*
X130126541Y-27259032D01*
X130126537Y-27259035D01*
X130102718Y-27279924D01*
X129969696Y-27396581D01*
X129838449Y-27563067D01*
X129739739Y-27750683D01*
X129676873Y-27953146D01*
X129651955Y-28163676D01*
X129425656Y-28163676D01*
X129409044Y-27982891D01*
X129408125Y-27979633D01*
X129408124Y-27979627D01*
X129352420Y-27782117D01*
X129352419Y-27782115D01*
X129351499Y-27778852D01*
X129257734Y-27588716D01*
X129240824Y-27566070D01*
X129132922Y-27421572D01*
X129132921Y-27421571D01*
X129130890Y-27418851D01*
X128975215Y-27274946D01*
X128972340Y-27273132D01*
X128798791Y-27163631D01*
X128798789Y-27163630D01*
X128795922Y-27161821D01*
X128792774Y-27160565D01*
X128792772Y-27160564D01*
X128602169Y-27084521D01*
X128602166Y-27084520D01*
X128599015Y-27083263D01*
X128595688Y-27082601D01*
X128595684Y-27082600D01*
X128394414Y-27042565D01*
X128394412Y-27042565D01*
X128391090Y-27041904D01*
X128296291Y-27040663D01*
X128182503Y-27039173D01*
X128182498Y-27039173D01*
X128179110Y-27039129D01*
X128175764Y-27039704D01*
X128175763Y-27039704D01*
X128144943Y-27045000D01*
X127970173Y-27075031D01*
X127771278Y-27148407D01*
X127589085Y-27256801D01*
X127586541Y-27259032D01*
X127586537Y-27259035D01*
X127562718Y-27279924D01*
X127429696Y-27396581D01*
X127298449Y-27563067D01*
X127199739Y-27750683D01*
X127136873Y-27953146D01*
X127111955Y-28163676D01*
X126885656Y-28163676D01*
X126869044Y-27982891D01*
X126868125Y-27979633D01*
X126868124Y-27979627D01*
X126812420Y-27782117D01*
X126812419Y-27782115D01*
X126811499Y-27778852D01*
X126717734Y-27588716D01*
X126700824Y-27566070D01*
X126592922Y-27421572D01*
X126592921Y-27421571D01*
X126590890Y-27418851D01*
X126435215Y-27274946D01*
X126432340Y-27273132D01*
X126258791Y-27163631D01*
X126258789Y-27163630D01*
X126255922Y-27161821D01*
X126252774Y-27160565D01*
X126252772Y-27160564D01*
X126062169Y-27084521D01*
X126062166Y-27084520D01*
X126059015Y-27083263D01*
X126055688Y-27082601D01*
X126055684Y-27082600D01*
X125854414Y-27042565D01*
X125854412Y-27042565D01*
X125851090Y-27041904D01*
X125756291Y-27040663D01*
X125642503Y-27039173D01*
X125642498Y-27039173D01*
X125639110Y-27039129D01*
X125635764Y-27039704D01*
X125635763Y-27039704D01*
X125604943Y-27045000D01*
X125430173Y-27075031D01*
X125231278Y-27148407D01*
X125049085Y-27256801D01*
X125046541Y-27259032D01*
X125046537Y-27259035D01*
X125022718Y-27279924D01*
X124889696Y-27396581D01*
X124758449Y-27563067D01*
X124659739Y-27750683D01*
X124596873Y-27953146D01*
X124571955Y-28163676D01*
X124345656Y-28163676D01*
X124329044Y-27982891D01*
X124328125Y-27979633D01*
X124328124Y-27979627D01*
X124272420Y-27782117D01*
X124272419Y-27782115D01*
X124271499Y-27778852D01*
X124177734Y-27588716D01*
X124160824Y-27566070D01*
X124052922Y-27421572D01*
X124052921Y-27421571D01*
X124050890Y-27418851D01*
X123895215Y-27274946D01*
X123892340Y-27273132D01*
X123718791Y-27163631D01*
X123718789Y-27163630D01*
X123715922Y-27161821D01*
X123712774Y-27160565D01*
X123712772Y-27160564D01*
X123522169Y-27084521D01*
X123522166Y-27084520D01*
X123519015Y-27083263D01*
X123515688Y-27082601D01*
X123515684Y-27082600D01*
X123314414Y-27042565D01*
X123314412Y-27042565D01*
X123311090Y-27041904D01*
X123216291Y-27040663D01*
X123102503Y-27039173D01*
X123102498Y-27039173D01*
X123099110Y-27039129D01*
X123095764Y-27039704D01*
X123095763Y-27039704D01*
X123064943Y-27045000D01*
X122890173Y-27075031D01*
X122691278Y-27148407D01*
X122509085Y-27256801D01*
X122506541Y-27259032D01*
X122506537Y-27259035D01*
X122482718Y-27279924D01*
X122349696Y-27396581D01*
X122218449Y-27563067D01*
X122119739Y-27750683D01*
X122056873Y-27953146D01*
X122031955Y-28163676D01*
X121805656Y-28163676D01*
X121789044Y-27982891D01*
X121788125Y-27979633D01*
X121788124Y-27979627D01*
X121732420Y-27782117D01*
X121732419Y-27782115D01*
X121731499Y-27778852D01*
X121637734Y-27588716D01*
X121620824Y-27566070D01*
X121512922Y-27421572D01*
X121512921Y-27421571D01*
X121510890Y-27418851D01*
X121355215Y-27274946D01*
X121352340Y-27273132D01*
X121178791Y-27163631D01*
X121178789Y-27163630D01*
X121175922Y-27161821D01*
X121172774Y-27160565D01*
X121172772Y-27160564D01*
X120982169Y-27084521D01*
X120982166Y-27084520D01*
X120979015Y-27083263D01*
X120975688Y-27082601D01*
X120975684Y-27082600D01*
X120774414Y-27042565D01*
X120774412Y-27042565D01*
X120771090Y-27041904D01*
X120676291Y-27040663D01*
X120562503Y-27039173D01*
X120562498Y-27039173D01*
X120559110Y-27039129D01*
X120555764Y-27039704D01*
X120555763Y-27039704D01*
X120524943Y-27045000D01*
X120350173Y-27075031D01*
X120151278Y-27148407D01*
X119969085Y-27256801D01*
X119966541Y-27259032D01*
X119966537Y-27259035D01*
X119942718Y-27279924D01*
X119809696Y-27396581D01*
X119678449Y-27563067D01*
X119579739Y-27750683D01*
X119516873Y-27953146D01*
X119491955Y-28163676D01*
X119263499Y-28163676D01*
X119263499Y-27440686D01*
X119260493Y-27408873D01*
X119215209Y-27279924D01*
X119211533Y-27274946D01*
X119137296Y-27174439D01*
X119134010Y-27169990D01*
X119024076Y-27088791D01*
X118895127Y-27043507D01*
X118890644Y-27043083D01*
X118890643Y-27043083D01*
X118865043Y-27040663D01*
X118865036Y-27040663D01*
X118863315Y-27040500D01*
X118110649Y-27040500D01*
X117356686Y-27040501D01*
X117324873Y-27043507D01*
X117195924Y-27088791D01*
X117085990Y-27169990D01*
X117082704Y-27174439D01*
X117008468Y-27274946D01*
X117004791Y-27279924D01*
X116959507Y-27408873D01*
X116959083Y-27413356D01*
X116959083Y-27413357D01*
X116956664Y-27438952D01*
X116956500Y-27440685D01*
X116786500Y-27440685D01*
X116786500Y-25623676D01*
X116951955Y-25623676D01*
X116965820Y-25835220D01*
X117018005Y-26040696D01*
X117019421Y-26043768D01*
X117019423Y-26043773D01*
X117105341Y-26230144D01*
X117106760Y-26233221D01*
X117108718Y-26235991D01*
X117227155Y-26403577D01*
X117227159Y-26403581D01*
X117229114Y-26406348D01*
X117231539Y-26408710D01*
X117231543Y-26408715D01*
X117378537Y-26551910D01*
X117380969Y-26554279D01*
X117383787Y-26556162D01*
X117383792Y-26556166D01*
X117464900Y-26610360D01*
X117557239Y-26672059D01*
X117560353Y-26673397D01*
X117560355Y-26673398D01*
X117647025Y-26710634D01*
X117752022Y-26755744D01*
X117755331Y-26756493D01*
X117755335Y-26756494D01*
X117955477Y-26801781D01*
X117955480Y-26801781D01*
X117958793Y-26802531D01*
X118064710Y-26806692D01*
X118167233Y-26810721D01*
X118167237Y-26810721D01*
X118170628Y-26810854D01*
X118311686Y-26790402D01*
X118377075Y-26780921D01*
X118377076Y-26780921D01*
X118380433Y-26780434D01*
X118581181Y-26712289D01*
X118584133Y-26710636D01*
X118584137Y-26710634D01*
X118763188Y-26610360D01*
X118766149Y-26608702D01*
X118768754Y-26606535D01*
X118768759Y-26606532D01*
X118926534Y-26475311D01*
X118929142Y-26473142D01*
X118954775Y-26442322D01*
X119062532Y-26312759D01*
X119062535Y-26312754D01*
X119064702Y-26310149D01*
X119168289Y-26125181D01*
X119236434Y-25924433D01*
X119266854Y-25714628D01*
X119268442Y-25654000D01*
X119265656Y-25623676D01*
X119491955Y-25623676D01*
X119505820Y-25835220D01*
X119558005Y-26040696D01*
X119559421Y-26043768D01*
X119559423Y-26043773D01*
X119645341Y-26230144D01*
X119646760Y-26233221D01*
X119648718Y-26235991D01*
X119767155Y-26403577D01*
X119767159Y-26403581D01*
X119769114Y-26406348D01*
X119771539Y-26408710D01*
X119771543Y-26408715D01*
X119918537Y-26551910D01*
X119920969Y-26554279D01*
X119923787Y-26556162D01*
X119923792Y-26556166D01*
X120004900Y-26610360D01*
X120097239Y-26672059D01*
X120100353Y-26673397D01*
X120100355Y-26673398D01*
X120187025Y-26710634D01*
X120292022Y-26755744D01*
X120295331Y-26756493D01*
X120295335Y-26756494D01*
X120495477Y-26801781D01*
X120495480Y-26801781D01*
X120498793Y-26802531D01*
X120604710Y-26806692D01*
X120707233Y-26810721D01*
X120707237Y-26810721D01*
X120710628Y-26810854D01*
X120851686Y-26790402D01*
X120917075Y-26780921D01*
X120917076Y-26780921D01*
X120920433Y-26780434D01*
X121121181Y-26712289D01*
X121124133Y-26710636D01*
X121124137Y-26710634D01*
X121303188Y-26610360D01*
X121306149Y-26608702D01*
X121308754Y-26606535D01*
X121308759Y-26606532D01*
X121466534Y-26475311D01*
X121469142Y-26473142D01*
X121494775Y-26442322D01*
X121602532Y-26312759D01*
X121602535Y-26312754D01*
X121604702Y-26310149D01*
X121708289Y-26125181D01*
X121776434Y-25924433D01*
X121806854Y-25714628D01*
X121808442Y-25654000D01*
X121805656Y-25623676D01*
X122031955Y-25623676D01*
X122045820Y-25835220D01*
X122098005Y-26040696D01*
X122099421Y-26043768D01*
X122099423Y-26043773D01*
X122185341Y-26230144D01*
X122186760Y-26233221D01*
X122188718Y-26235991D01*
X122307155Y-26403577D01*
X122307159Y-26403581D01*
X122309114Y-26406348D01*
X122311539Y-26408710D01*
X122311543Y-26408715D01*
X122458537Y-26551910D01*
X122460969Y-26554279D01*
X122463787Y-26556162D01*
X122463792Y-26556166D01*
X122544900Y-26610360D01*
X122637239Y-26672059D01*
X122640353Y-26673397D01*
X122640355Y-26673398D01*
X122727025Y-26710634D01*
X122832022Y-26755744D01*
X122835331Y-26756493D01*
X122835335Y-26756494D01*
X123035477Y-26801781D01*
X123035480Y-26801781D01*
X123038793Y-26802531D01*
X123144710Y-26806692D01*
X123247233Y-26810721D01*
X123247237Y-26810721D01*
X123250628Y-26810854D01*
X123391686Y-26790402D01*
X123457075Y-26780921D01*
X123457076Y-26780921D01*
X123460433Y-26780434D01*
X123661181Y-26712289D01*
X123664133Y-26710636D01*
X123664137Y-26710634D01*
X123843188Y-26610360D01*
X123846149Y-26608702D01*
X123848754Y-26606535D01*
X123848759Y-26606532D01*
X124006534Y-26475311D01*
X124009142Y-26473142D01*
X124034775Y-26442322D01*
X124142532Y-26312759D01*
X124142535Y-26312754D01*
X124144702Y-26310149D01*
X124248289Y-26125181D01*
X124316434Y-25924433D01*
X124346854Y-25714628D01*
X124348442Y-25654000D01*
X124345656Y-25623676D01*
X124571955Y-25623676D01*
X124585820Y-25835220D01*
X124638005Y-26040696D01*
X124639421Y-26043768D01*
X124639423Y-26043773D01*
X124725341Y-26230144D01*
X124726760Y-26233221D01*
X124728718Y-26235991D01*
X124847155Y-26403577D01*
X124847159Y-26403581D01*
X124849114Y-26406348D01*
X124851539Y-26408710D01*
X124851543Y-26408715D01*
X124998537Y-26551910D01*
X125000969Y-26554279D01*
X125003787Y-26556162D01*
X125003792Y-26556166D01*
X125084900Y-26610360D01*
X125177239Y-26672059D01*
X125180353Y-26673397D01*
X125180355Y-26673398D01*
X125267025Y-26710634D01*
X125372022Y-26755744D01*
X125375331Y-26756493D01*
X125375335Y-26756494D01*
X125575477Y-26801781D01*
X125575480Y-26801781D01*
X125578793Y-26802531D01*
X125684710Y-26806692D01*
X125787233Y-26810721D01*
X125787237Y-26810721D01*
X125790628Y-26810854D01*
X125931686Y-26790402D01*
X125997075Y-26780921D01*
X125997076Y-26780921D01*
X126000433Y-26780434D01*
X126201181Y-26712289D01*
X126204133Y-26710636D01*
X126204137Y-26710634D01*
X126383188Y-26610360D01*
X126386149Y-26608702D01*
X126388754Y-26606535D01*
X126388759Y-26606532D01*
X126546534Y-26475311D01*
X126549142Y-26473142D01*
X126574775Y-26442322D01*
X126682532Y-26312759D01*
X126682535Y-26312754D01*
X126684702Y-26310149D01*
X126788289Y-26125181D01*
X126856434Y-25924433D01*
X126886854Y-25714628D01*
X126888442Y-25654000D01*
X126885656Y-25623676D01*
X127111955Y-25623676D01*
X127125820Y-25835220D01*
X127178005Y-26040696D01*
X127179421Y-26043768D01*
X127179423Y-26043773D01*
X127265341Y-26230144D01*
X127266760Y-26233221D01*
X127268718Y-26235991D01*
X127387155Y-26403577D01*
X127387159Y-26403581D01*
X127389114Y-26406348D01*
X127391539Y-26408710D01*
X127391543Y-26408715D01*
X127538537Y-26551910D01*
X127540969Y-26554279D01*
X127543787Y-26556162D01*
X127543792Y-26556166D01*
X127624900Y-26610360D01*
X127717239Y-26672059D01*
X127720353Y-26673397D01*
X127720355Y-26673398D01*
X127807025Y-26710634D01*
X127912022Y-26755744D01*
X127915331Y-26756493D01*
X127915335Y-26756494D01*
X128115477Y-26801781D01*
X128115480Y-26801781D01*
X128118793Y-26802531D01*
X128224710Y-26806692D01*
X128327233Y-26810721D01*
X128327237Y-26810721D01*
X128330628Y-26810854D01*
X128471686Y-26790402D01*
X128537075Y-26780921D01*
X128537076Y-26780921D01*
X128540433Y-26780434D01*
X128741181Y-26712289D01*
X128744133Y-26710636D01*
X128744137Y-26710634D01*
X128923188Y-26610360D01*
X128926149Y-26608702D01*
X128928754Y-26606535D01*
X128928759Y-26606532D01*
X129086534Y-26475311D01*
X129089142Y-26473142D01*
X129114775Y-26442322D01*
X129157710Y-26390698D01*
X130437658Y-26390698D01*
X130442126Y-26394381D01*
X130549801Y-26442322D01*
X130557141Y-26444707D01*
X130719387Y-26479193D01*
X130727066Y-26480000D01*
X130892934Y-26480000D01*
X130900613Y-26479193D01*
X131062859Y-26444707D01*
X131070199Y-26442322D01*
X131175154Y-26395592D01*
X131182805Y-26388204D01*
X131179954Y-26383165D01*
X130819226Y-26022436D01*
X130809587Y-26017941D01*
X130803688Y-26019522D01*
X130442152Y-26381059D01*
X130437658Y-26390698D01*
X129157710Y-26390698D01*
X129222532Y-26312759D01*
X129222535Y-26312754D01*
X129224702Y-26310149D01*
X129328289Y-26125181D01*
X129396434Y-25924433D01*
X129426854Y-25714628D01*
X129428341Y-25657853D01*
X129979855Y-25657853D01*
X129997195Y-25822829D01*
X129998798Y-25830367D01*
X130050056Y-25988125D01*
X130053193Y-25995171D01*
X130067322Y-26019643D01*
X130075470Y-26026480D01*
X130077587Y-26026480D01*
X130079576Y-26025213D01*
X130441564Y-25663226D01*
X130445674Y-25654413D01*
X131173941Y-25654413D01*
X131175522Y-25660312D01*
X131536928Y-26021717D01*
X131546567Y-26026212D01*
X131548614Y-26025663D01*
X131550204Y-26023928D01*
X131566807Y-25995171D01*
X131569944Y-25988125D01*
X131621202Y-25830367D01*
X131622805Y-25822829D01*
X131640145Y-25657853D01*
X131640145Y-25650147D01*
X131637363Y-25623676D01*
X132191955Y-25623676D01*
X132205820Y-25835220D01*
X132258005Y-26040696D01*
X132259421Y-26043768D01*
X132259423Y-26043773D01*
X132345341Y-26230144D01*
X132346760Y-26233221D01*
X132348718Y-26235991D01*
X132467155Y-26403577D01*
X132467159Y-26403581D01*
X132469114Y-26406348D01*
X132471539Y-26408710D01*
X132471543Y-26408715D01*
X132618537Y-26551910D01*
X132620969Y-26554279D01*
X132623787Y-26556162D01*
X132623792Y-26556166D01*
X132704900Y-26610360D01*
X132797239Y-26672059D01*
X132800353Y-26673397D01*
X132800355Y-26673398D01*
X132887025Y-26710634D01*
X132992022Y-26755744D01*
X132995331Y-26756493D01*
X132995335Y-26756494D01*
X133195477Y-26801781D01*
X133195480Y-26801781D01*
X133198793Y-26802531D01*
X133304710Y-26806692D01*
X133407233Y-26810721D01*
X133407237Y-26810721D01*
X133410628Y-26810854D01*
X133551686Y-26790402D01*
X133617075Y-26780921D01*
X133617076Y-26780921D01*
X133620433Y-26780434D01*
X133821181Y-26712289D01*
X133824133Y-26710636D01*
X133824137Y-26710634D01*
X134003188Y-26610360D01*
X134006149Y-26608702D01*
X134008754Y-26606535D01*
X134008759Y-26606532D01*
X134166534Y-26475311D01*
X134169142Y-26473142D01*
X134194775Y-26442322D01*
X134302532Y-26312759D01*
X134302535Y-26312754D01*
X134304702Y-26310149D01*
X134408289Y-26125181D01*
X134476434Y-25924433D01*
X134506854Y-25714628D01*
X134508442Y-25654000D01*
X134505656Y-25623676D01*
X134731955Y-25623676D01*
X134745820Y-25835220D01*
X134798005Y-26040696D01*
X134799421Y-26043768D01*
X134799423Y-26043773D01*
X134885341Y-26230144D01*
X134886760Y-26233221D01*
X134888718Y-26235991D01*
X135007155Y-26403577D01*
X135007159Y-26403581D01*
X135009114Y-26406348D01*
X135011539Y-26408710D01*
X135011543Y-26408715D01*
X135158537Y-26551910D01*
X135160969Y-26554279D01*
X135163787Y-26556162D01*
X135163792Y-26556166D01*
X135244900Y-26610360D01*
X135337239Y-26672059D01*
X135340353Y-26673397D01*
X135340355Y-26673398D01*
X135427025Y-26710634D01*
X135532022Y-26755744D01*
X135535331Y-26756493D01*
X135535335Y-26756494D01*
X135735477Y-26801781D01*
X135735480Y-26801781D01*
X135738793Y-26802531D01*
X135844710Y-26806692D01*
X135947233Y-26810721D01*
X135947237Y-26810721D01*
X135950628Y-26810854D01*
X136091686Y-26790402D01*
X136157075Y-26780921D01*
X136157076Y-26780921D01*
X136160433Y-26780434D01*
X136361181Y-26712289D01*
X136364133Y-26710636D01*
X136364137Y-26710634D01*
X136543188Y-26610360D01*
X136546149Y-26608702D01*
X136548754Y-26606535D01*
X136548759Y-26606532D01*
X136706534Y-26475311D01*
X136709142Y-26473142D01*
X136734775Y-26442322D01*
X136842532Y-26312759D01*
X136842535Y-26312754D01*
X136844702Y-26310149D01*
X136948289Y-26125181D01*
X137016434Y-25924433D01*
X137046854Y-25714628D01*
X137048442Y-25654000D01*
X137045656Y-25623676D01*
X137271955Y-25623676D01*
X137285820Y-25835220D01*
X137338005Y-26040696D01*
X137339421Y-26043768D01*
X137339423Y-26043773D01*
X137425341Y-26230144D01*
X137426760Y-26233221D01*
X137428718Y-26235991D01*
X137547155Y-26403577D01*
X137547159Y-26403581D01*
X137549114Y-26406348D01*
X137551539Y-26408710D01*
X137551543Y-26408715D01*
X137698537Y-26551910D01*
X137700969Y-26554279D01*
X137703787Y-26556162D01*
X137703792Y-26556166D01*
X137784900Y-26610360D01*
X137877239Y-26672059D01*
X137880353Y-26673397D01*
X137880355Y-26673398D01*
X137967025Y-26710634D01*
X138072022Y-26755744D01*
X138075331Y-26756493D01*
X138075335Y-26756494D01*
X138275477Y-26801781D01*
X138275480Y-26801781D01*
X138278793Y-26802531D01*
X138384710Y-26806692D01*
X138487233Y-26810721D01*
X138487237Y-26810721D01*
X138490628Y-26810854D01*
X138631686Y-26790402D01*
X138697075Y-26780921D01*
X138697076Y-26780921D01*
X138700433Y-26780434D01*
X138901181Y-26712289D01*
X138904133Y-26710636D01*
X138904137Y-26710634D01*
X139083188Y-26610360D01*
X139086149Y-26608702D01*
X139088754Y-26606535D01*
X139088759Y-26606532D01*
X139246534Y-26475311D01*
X139249142Y-26473142D01*
X139274775Y-26442322D01*
X139382532Y-26312759D01*
X139382535Y-26312754D01*
X139384702Y-26310149D01*
X139488289Y-26125181D01*
X139556434Y-25924433D01*
X139586854Y-25714628D01*
X139588442Y-25654000D01*
X139585656Y-25623676D01*
X139811955Y-25623676D01*
X139825820Y-25835220D01*
X139878005Y-26040696D01*
X139879421Y-26043768D01*
X139879423Y-26043773D01*
X139965341Y-26230144D01*
X139966760Y-26233221D01*
X139968718Y-26235991D01*
X140087155Y-26403577D01*
X140087159Y-26403581D01*
X140089114Y-26406348D01*
X140091539Y-26408710D01*
X140091543Y-26408715D01*
X140238537Y-26551910D01*
X140240969Y-26554279D01*
X140243787Y-26556162D01*
X140243792Y-26556166D01*
X140324900Y-26610360D01*
X140417239Y-26672059D01*
X140420353Y-26673397D01*
X140420355Y-26673398D01*
X140507025Y-26710634D01*
X140612022Y-26755744D01*
X140615331Y-26756493D01*
X140615335Y-26756494D01*
X140815477Y-26801781D01*
X140815480Y-26801781D01*
X140818793Y-26802531D01*
X140924710Y-26806692D01*
X141027233Y-26810721D01*
X141027237Y-26810721D01*
X141030628Y-26810854D01*
X141171686Y-26790402D01*
X141237075Y-26780921D01*
X141237076Y-26780921D01*
X141240433Y-26780434D01*
X141441181Y-26712289D01*
X141444133Y-26710636D01*
X141444137Y-26710634D01*
X141623188Y-26610360D01*
X141626149Y-26608702D01*
X141628754Y-26606535D01*
X141628759Y-26606532D01*
X141786534Y-26475311D01*
X141789142Y-26473142D01*
X141814775Y-26442322D01*
X141857710Y-26390698D01*
X143137658Y-26390698D01*
X143142126Y-26394381D01*
X143249801Y-26442322D01*
X143257141Y-26444707D01*
X143419387Y-26479193D01*
X143427066Y-26480000D01*
X143592934Y-26480000D01*
X143600613Y-26479193D01*
X143762859Y-26444707D01*
X143770199Y-26442322D01*
X143875154Y-26395592D01*
X143882805Y-26388204D01*
X143879954Y-26383165D01*
X143519226Y-26022436D01*
X143509587Y-26017941D01*
X143503688Y-26019522D01*
X143142152Y-26381059D01*
X143137658Y-26390698D01*
X141857710Y-26390698D01*
X141922532Y-26312759D01*
X141922535Y-26312754D01*
X141924702Y-26310149D01*
X142028289Y-26125181D01*
X142096434Y-25924433D01*
X142126854Y-25714628D01*
X142128341Y-25657853D01*
X142679855Y-25657853D01*
X142697195Y-25822829D01*
X142698798Y-25830367D01*
X142750056Y-25988125D01*
X142753193Y-25995171D01*
X142767322Y-26019643D01*
X142775470Y-26026480D01*
X142777587Y-26026480D01*
X142779576Y-26025213D01*
X143141564Y-25663226D01*
X143145674Y-25654413D01*
X143873941Y-25654413D01*
X143875522Y-25660312D01*
X144236928Y-26021717D01*
X144246567Y-26026212D01*
X144248614Y-26025663D01*
X144250204Y-26023928D01*
X144266807Y-25995171D01*
X144269944Y-25988125D01*
X144321202Y-25830367D01*
X144322805Y-25822829D01*
X144340145Y-25657853D01*
X144340145Y-25650147D01*
X144337363Y-25623676D01*
X144891955Y-25623676D01*
X144905820Y-25835220D01*
X144958005Y-26040696D01*
X144959421Y-26043768D01*
X144959423Y-26043773D01*
X145045341Y-26230144D01*
X145046760Y-26233221D01*
X145048718Y-26235991D01*
X145167155Y-26403577D01*
X145167159Y-26403581D01*
X145169114Y-26406348D01*
X145171539Y-26408710D01*
X145171543Y-26408715D01*
X145318537Y-26551910D01*
X145320969Y-26554279D01*
X145323787Y-26556162D01*
X145323792Y-26556166D01*
X145404900Y-26610360D01*
X145497239Y-26672059D01*
X145500353Y-26673397D01*
X145500355Y-26673398D01*
X145587025Y-26710634D01*
X145692022Y-26755744D01*
X145695331Y-26756493D01*
X145695335Y-26756494D01*
X145895477Y-26801781D01*
X145895480Y-26801781D01*
X145898793Y-26802531D01*
X146004710Y-26806692D01*
X146107233Y-26810721D01*
X146107237Y-26810721D01*
X146110628Y-26810854D01*
X146251686Y-26790402D01*
X146317075Y-26780921D01*
X146317076Y-26780921D01*
X146320433Y-26780434D01*
X146521181Y-26712289D01*
X146524133Y-26710636D01*
X146524137Y-26710634D01*
X146703188Y-26610360D01*
X146706149Y-26608702D01*
X146708754Y-26606535D01*
X146708759Y-26606532D01*
X146866534Y-26475311D01*
X146869142Y-26473142D01*
X146894775Y-26442322D01*
X146937710Y-26390698D01*
X148217658Y-26390698D01*
X148222126Y-26394381D01*
X148329801Y-26442322D01*
X148337141Y-26444707D01*
X148499387Y-26479193D01*
X148507066Y-26480000D01*
X148672934Y-26480000D01*
X148680613Y-26479193D01*
X148842859Y-26444707D01*
X148850199Y-26442322D01*
X148955154Y-26395592D01*
X148962805Y-26388204D01*
X148959954Y-26383165D01*
X148599226Y-26022436D01*
X148589587Y-26017941D01*
X148583688Y-26019522D01*
X148222152Y-26381059D01*
X148217658Y-26390698D01*
X146937710Y-26390698D01*
X147002532Y-26312759D01*
X147002535Y-26312754D01*
X147004702Y-26310149D01*
X147108289Y-26125181D01*
X147176434Y-25924433D01*
X147206854Y-25714628D01*
X147208341Y-25657853D01*
X147759855Y-25657853D01*
X147777195Y-25822829D01*
X147778798Y-25830367D01*
X147830056Y-25988125D01*
X147833193Y-25995171D01*
X147847322Y-26019643D01*
X147855470Y-26026480D01*
X147857587Y-26026480D01*
X147859576Y-26025213D01*
X148221564Y-25663226D01*
X148225674Y-25654413D01*
X148953941Y-25654413D01*
X148955522Y-25660312D01*
X149316928Y-26021717D01*
X149326567Y-26026212D01*
X149328614Y-26025663D01*
X149330204Y-26023928D01*
X149346807Y-25995171D01*
X149349944Y-25988125D01*
X149401202Y-25830367D01*
X149402805Y-25822829D01*
X149420145Y-25657853D01*
X149420145Y-25650147D01*
X149402805Y-25485171D01*
X149401202Y-25477633D01*
X149349944Y-25319875D01*
X149346807Y-25312829D01*
X149332678Y-25288357D01*
X149324530Y-25281520D01*
X149322413Y-25281520D01*
X149320424Y-25282787D01*
X148958436Y-25644774D01*
X148953941Y-25654413D01*
X148225674Y-25654413D01*
X148226059Y-25653587D01*
X148224478Y-25647688D01*
X147863072Y-25286283D01*
X147853433Y-25281788D01*
X147851386Y-25282337D01*
X147849796Y-25284072D01*
X147833193Y-25312829D01*
X147830056Y-25319875D01*
X147778798Y-25477633D01*
X147777195Y-25485171D01*
X147759855Y-25650147D01*
X147759855Y-25657853D01*
X147208341Y-25657853D01*
X147208442Y-25654000D01*
X147189044Y-25442891D01*
X147188125Y-25439633D01*
X147188124Y-25439627D01*
X147132420Y-25242117D01*
X147132419Y-25242115D01*
X147131499Y-25238852D01*
X147037734Y-25048716D01*
X147020824Y-25026070D01*
X146941465Y-24919796D01*
X148217195Y-24919796D01*
X148220046Y-24924835D01*
X148580774Y-25285564D01*
X148590413Y-25290059D01*
X148596312Y-25288478D01*
X148957848Y-24926941D01*
X148962342Y-24917302D01*
X148957874Y-24913619D01*
X148850199Y-24865678D01*
X148842859Y-24863293D01*
X148680613Y-24828807D01*
X148672934Y-24828000D01*
X148507066Y-24828000D01*
X148499387Y-24828807D01*
X148337141Y-24863293D01*
X148329801Y-24865678D01*
X148224846Y-24912408D01*
X148217195Y-24919796D01*
X146941465Y-24919796D01*
X146912922Y-24881572D01*
X146912921Y-24881571D01*
X146910890Y-24878851D01*
X146755215Y-24734946D01*
X146752340Y-24733132D01*
X146578791Y-24623631D01*
X146578789Y-24623630D01*
X146575922Y-24621821D01*
X146572774Y-24620565D01*
X146572772Y-24620564D01*
X146382169Y-24544521D01*
X146382166Y-24544520D01*
X146379015Y-24543263D01*
X146375688Y-24542601D01*
X146375684Y-24542600D01*
X146174414Y-24502565D01*
X146174412Y-24502565D01*
X146171090Y-24501904D01*
X146077759Y-24500682D01*
X145962503Y-24499173D01*
X145962498Y-24499173D01*
X145959110Y-24499129D01*
X145955764Y-24499704D01*
X145955763Y-24499704D01*
X145896690Y-24509855D01*
X145750173Y-24535031D01*
X145551278Y-24608407D01*
X145369085Y-24716801D01*
X145366541Y-24719032D01*
X145366537Y-24719035D01*
X145248136Y-24822870D01*
X145209696Y-24856581D01*
X145078449Y-25023067D01*
X144979739Y-25210683D01*
X144916873Y-25413146D01*
X144891955Y-25623676D01*
X144337363Y-25623676D01*
X144322805Y-25485171D01*
X144321202Y-25477633D01*
X144269944Y-25319875D01*
X144266807Y-25312829D01*
X144252678Y-25288357D01*
X144244530Y-25281520D01*
X144242413Y-25281520D01*
X144240424Y-25282787D01*
X143878436Y-25644774D01*
X143873941Y-25654413D01*
X143145674Y-25654413D01*
X143146059Y-25653587D01*
X143144478Y-25647688D01*
X142783072Y-25286283D01*
X142773433Y-25281788D01*
X142771386Y-25282337D01*
X142769796Y-25284072D01*
X142753193Y-25312829D01*
X142750056Y-25319875D01*
X142698798Y-25477633D01*
X142697195Y-25485171D01*
X142679855Y-25650147D01*
X142679855Y-25657853D01*
X142128341Y-25657853D01*
X142128442Y-25654000D01*
X142109044Y-25442891D01*
X142108125Y-25439633D01*
X142108124Y-25439627D01*
X142052420Y-25242117D01*
X142052419Y-25242115D01*
X142051499Y-25238852D01*
X141957734Y-25048716D01*
X141940824Y-25026070D01*
X141861465Y-24919796D01*
X143137195Y-24919796D01*
X143140046Y-24924835D01*
X143500774Y-25285564D01*
X143510413Y-25290059D01*
X143516312Y-25288478D01*
X143877848Y-24926941D01*
X143882342Y-24917302D01*
X143877874Y-24913619D01*
X143770199Y-24865678D01*
X143762859Y-24863293D01*
X143600613Y-24828807D01*
X143592934Y-24828000D01*
X143427066Y-24828000D01*
X143419387Y-24828807D01*
X143257141Y-24863293D01*
X143249801Y-24865678D01*
X143144846Y-24912408D01*
X143137195Y-24919796D01*
X141861465Y-24919796D01*
X141832922Y-24881572D01*
X141832921Y-24881571D01*
X141830890Y-24878851D01*
X141675215Y-24734946D01*
X141672340Y-24733132D01*
X141498791Y-24623631D01*
X141498789Y-24623630D01*
X141495922Y-24621821D01*
X141492774Y-24620565D01*
X141492772Y-24620564D01*
X141302169Y-24544521D01*
X141302166Y-24544520D01*
X141299015Y-24543263D01*
X141295688Y-24542601D01*
X141295684Y-24542600D01*
X141094414Y-24502565D01*
X141094412Y-24502565D01*
X141091090Y-24501904D01*
X140997759Y-24500682D01*
X140882503Y-24499173D01*
X140882498Y-24499173D01*
X140879110Y-24499129D01*
X140875764Y-24499704D01*
X140875763Y-24499704D01*
X140816690Y-24509855D01*
X140670173Y-24535031D01*
X140471278Y-24608407D01*
X140289085Y-24716801D01*
X140286541Y-24719032D01*
X140286537Y-24719035D01*
X140168136Y-24822870D01*
X140129696Y-24856581D01*
X139998449Y-25023067D01*
X139899739Y-25210683D01*
X139836873Y-25413146D01*
X139811955Y-25623676D01*
X139585656Y-25623676D01*
X139569044Y-25442891D01*
X139568125Y-25439633D01*
X139568124Y-25439627D01*
X139512420Y-25242117D01*
X139512419Y-25242115D01*
X139511499Y-25238852D01*
X139417734Y-25048716D01*
X139400824Y-25026070D01*
X139292922Y-24881572D01*
X139292921Y-24881571D01*
X139290890Y-24878851D01*
X139135215Y-24734946D01*
X139132340Y-24733132D01*
X138958791Y-24623631D01*
X138958789Y-24623630D01*
X138955922Y-24621821D01*
X138952774Y-24620565D01*
X138952772Y-24620564D01*
X138762169Y-24544521D01*
X138762166Y-24544520D01*
X138759015Y-24543263D01*
X138755688Y-24542601D01*
X138755684Y-24542600D01*
X138554414Y-24502565D01*
X138554412Y-24502565D01*
X138551090Y-24501904D01*
X138457759Y-24500682D01*
X138342503Y-24499173D01*
X138342498Y-24499173D01*
X138339110Y-24499129D01*
X138335764Y-24499704D01*
X138335763Y-24499704D01*
X138276690Y-24509855D01*
X138130173Y-24535031D01*
X137931278Y-24608407D01*
X137749085Y-24716801D01*
X137746541Y-24719032D01*
X137746537Y-24719035D01*
X137628136Y-24822870D01*
X137589696Y-24856581D01*
X137458449Y-25023067D01*
X137359739Y-25210683D01*
X137296873Y-25413146D01*
X137271955Y-25623676D01*
X137045656Y-25623676D01*
X137029044Y-25442891D01*
X137028125Y-25439633D01*
X137028124Y-25439627D01*
X136972420Y-25242117D01*
X136972419Y-25242115D01*
X136971499Y-25238852D01*
X136877734Y-25048716D01*
X136860824Y-25026070D01*
X136752922Y-24881572D01*
X136752921Y-24881571D01*
X136750890Y-24878851D01*
X136595215Y-24734946D01*
X136592340Y-24733132D01*
X136418791Y-24623631D01*
X136418789Y-24623630D01*
X136415922Y-24621821D01*
X136412774Y-24620565D01*
X136412772Y-24620564D01*
X136222169Y-24544521D01*
X136222166Y-24544520D01*
X136219015Y-24543263D01*
X136215688Y-24542601D01*
X136215684Y-24542600D01*
X136014414Y-24502565D01*
X136014412Y-24502565D01*
X136011090Y-24501904D01*
X135917759Y-24500682D01*
X135802503Y-24499173D01*
X135802498Y-24499173D01*
X135799110Y-24499129D01*
X135795764Y-24499704D01*
X135795763Y-24499704D01*
X135736690Y-24509855D01*
X135590173Y-24535031D01*
X135391278Y-24608407D01*
X135209085Y-24716801D01*
X135206541Y-24719032D01*
X135206537Y-24719035D01*
X135088136Y-24822870D01*
X135049696Y-24856581D01*
X134918449Y-25023067D01*
X134819739Y-25210683D01*
X134756873Y-25413146D01*
X134731955Y-25623676D01*
X134505656Y-25623676D01*
X134489044Y-25442891D01*
X134488125Y-25439633D01*
X134488124Y-25439627D01*
X134432420Y-25242117D01*
X134432419Y-25242115D01*
X134431499Y-25238852D01*
X134337734Y-25048716D01*
X134320824Y-25026070D01*
X134212922Y-24881572D01*
X134212921Y-24881571D01*
X134210890Y-24878851D01*
X134055215Y-24734946D01*
X134052340Y-24733132D01*
X133878791Y-24623631D01*
X133878789Y-24623630D01*
X133875922Y-24621821D01*
X133872774Y-24620565D01*
X133872772Y-24620564D01*
X133682169Y-24544521D01*
X133682166Y-24544520D01*
X133679015Y-24543263D01*
X133675688Y-24542601D01*
X133675684Y-24542600D01*
X133474414Y-24502565D01*
X133474412Y-24502565D01*
X133471090Y-24501904D01*
X133377759Y-24500682D01*
X133262503Y-24499173D01*
X133262498Y-24499173D01*
X133259110Y-24499129D01*
X133255764Y-24499704D01*
X133255763Y-24499704D01*
X133196690Y-24509855D01*
X133050173Y-24535031D01*
X132851278Y-24608407D01*
X132669085Y-24716801D01*
X132666541Y-24719032D01*
X132666537Y-24719035D01*
X132548136Y-24822870D01*
X132509696Y-24856581D01*
X132378449Y-25023067D01*
X132279739Y-25210683D01*
X132216873Y-25413146D01*
X132191955Y-25623676D01*
X131637363Y-25623676D01*
X131622805Y-25485171D01*
X131621202Y-25477633D01*
X131569944Y-25319875D01*
X131566807Y-25312829D01*
X131552678Y-25288357D01*
X131544530Y-25281520D01*
X131542413Y-25281520D01*
X131540424Y-25282787D01*
X131178436Y-25644774D01*
X131173941Y-25654413D01*
X130445674Y-25654413D01*
X130446059Y-25653587D01*
X130444478Y-25647688D01*
X130083072Y-25286283D01*
X130073433Y-25281788D01*
X130071386Y-25282337D01*
X130069796Y-25284072D01*
X130053193Y-25312829D01*
X130050056Y-25319875D01*
X129998798Y-25477633D01*
X129997195Y-25485171D01*
X129979855Y-25650147D01*
X129979855Y-25657853D01*
X129428341Y-25657853D01*
X129428442Y-25654000D01*
X129409044Y-25442891D01*
X129408125Y-25439633D01*
X129408124Y-25439627D01*
X129352420Y-25242117D01*
X129352419Y-25242115D01*
X129351499Y-25238852D01*
X129257734Y-25048716D01*
X129240824Y-25026070D01*
X129161465Y-24919796D01*
X130437195Y-24919796D01*
X130440046Y-24924835D01*
X130800774Y-25285564D01*
X130810413Y-25290059D01*
X130816312Y-25288478D01*
X131177848Y-24926941D01*
X131182342Y-24917302D01*
X131177874Y-24913619D01*
X131070199Y-24865678D01*
X131062859Y-24863293D01*
X130900613Y-24828807D01*
X130892934Y-24828000D01*
X130727066Y-24828000D01*
X130719387Y-24828807D01*
X130557141Y-24863293D01*
X130549801Y-24865678D01*
X130444846Y-24912408D01*
X130437195Y-24919796D01*
X129161465Y-24919796D01*
X129132922Y-24881572D01*
X129132921Y-24881571D01*
X129130890Y-24878851D01*
X128975215Y-24734946D01*
X128972340Y-24733132D01*
X128798791Y-24623631D01*
X128798789Y-24623630D01*
X128795922Y-24621821D01*
X128792774Y-24620565D01*
X128792772Y-24620564D01*
X128602169Y-24544521D01*
X128602166Y-24544520D01*
X128599015Y-24543263D01*
X128595688Y-24542601D01*
X128595684Y-24542600D01*
X128394414Y-24502565D01*
X128394412Y-24502565D01*
X128391090Y-24501904D01*
X128297759Y-24500682D01*
X128182503Y-24499173D01*
X128182498Y-24499173D01*
X128179110Y-24499129D01*
X128175764Y-24499704D01*
X128175763Y-24499704D01*
X128116690Y-24509855D01*
X127970173Y-24535031D01*
X127771278Y-24608407D01*
X127589085Y-24716801D01*
X127586541Y-24719032D01*
X127586537Y-24719035D01*
X127468136Y-24822870D01*
X127429696Y-24856581D01*
X127298449Y-25023067D01*
X127199739Y-25210683D01*
X127136873Y-25413146D01*
X127111955Y-25623676D01*
X126885656Y-25623676D01*
X126869044Y-25442891D01*
X126868125Y-25439633D01*
X126868124Y-25439627D01*
X126812420Y-25242117D01*
X126812419Y-25242115D01*
X126811499Y-25238852D01*
X126717734Y-25048716D01*
X126700824Y-25026070D01*
X126592922Y-24881572D01*
X126592921Y-24881571D01*
X126590890Y-24878851D01*
X126435215Y-24734946D01*
X126432340Y-24733132D01*
X126258791Y-24623631D01*
X126258789Y-24623630D01*
X126255922Y-24621821D01*
X126252774Y-24620565D01*
X126252772Y-24620564D01*
X126062169Y-24544521D01*
X126062166Y-24544520D01*
X126059015Y-24543263D01*
X126055688Y-24542601D01*
X126055684Y-24542600D01*
X125854414Y-24502565D01*
X125854412Y-24502565D01*
X125851090Y-24501904D01*
X125757759Y-24500682D01*
X125642503Y-24499173D01*
X125642498Y-24499173D01*
X125639110Y-24499129D01*
X125635764Y-24499704D01*
X125635763Y-24499704D01*
X125576690Y-24509855D01*
X125430173Y-24535031D01*
X125231278Y-24608407D01*
X125049085Y-24716801D01*
X125046541Y-24719032D01*
X125046537Y-24719035D01*
X124928136Y-24822870D01*
X124889696Y-24856581D01*
X124758449Y-25023067D01*
X124659739Y-25210683D01*
X124596873Y-25413146D01*
X124571955Y-25623676D01*
X124345656Y-25623676D01*
X124329044Y-25442891D01*
X124328125Y-25439633D01*
X124328124Y-25439627D01*
X124272420Y-25242117D01*
X124272419Y-25242115D01*
X124271499Y-25238852D01*
X124177734Y-25048716D01*
X124160824Y-25026070D01*
X124052922Y-24881572D01*
X124052921Y-24881571D01*
X124050890Y-24878851D01*
X123895215Y-24734946D01*
X123892340Y-24733132D01*
X123718791Y-24623631D01*
X123718789Y-24623630D01*
X123715922Y-24621821D01*
X123712774Y-24620565D01*
X123712772Y-24620564D01*
X123522169Y-24544521D01*
X123522166Y-24544520D01*
X123519015Y-24543263D01*
X123515688Y-24542601D01*
X123515684Y-24542600D01*
X123314414Y-24502565D01*
X123314412Y-24502565D01*
X123311090Y-24501904D01*
X123217759Y-24500682D01*
X123102503Y-24499173D01*
X123102498Y-24499173D01*
X123099110Y-24499129D01*
X123095764Y-24499704D01*
X123095763Y-24499704D01*
X123036690Y-24509855D01*
X122890173Y-24535031D01*
X122691278Y-24608407D01*
X122509085Y-24716801D01*
X122506541Y-24719032D01*
X122506537Y-24719035D01*
X122388136Y-24822870D01*
X122349696Y-24856581D01*
X122218449Y-25023067D01*
X122119739Y-25210683D01*
X122056873Y-25413146D01*
X122031955Y-25623676D01*
X121805656Y-25623676D01*
X121789044Y-25442891D01*
X121788125Y-25439633D01*
X121788124Y-25439627D01*
X121732420Y-25242117D01*
X121732419Y-25242115D01*
X121731499Y-25238852D01*
X121637734Y-25048716D01*
X121620824Y-25026070D01*
X121512922Y-24881572D01*
X121512921Y-24881571D01*
X121510890Y-24878851D01*
X121355215Y-24734946D01*
X121352340Y-24733132D01*
X121178791Y-24623631D01*
X121178789Y-24623630D01*
X121175922Y-24621821D01*
X121172774Y-24620565D01*
X121172772Y-24620564D01*
X120982169Y-24544521D01*
X120982166Y-24544520D01*
X120979015Y-24543263D01*
X120975688Y-24542601D01*
X120975684Y-24542600D01*
X120774414Y-24502565D01*
X120774412Y-24502565D01*
X120771090Y-24501904D01*
X120677759Y-24500682D01*
X120562503Y-24499173D01*
X120562498Y-24499173D01*
X120559110Y-24499129D01*
X120555764Y-24499704D01*
X120555763Y-24499704D01*
X120496690Y-24509855D01*
X120350173Y-24535031D01*
X120151278Y-24608407D01*
X119969085Y-24716801D01*
X119966541Y-24719032D01*
X119966537Y-24719035D01*
X119848136Y-24822870D01*
X119809696Y-24856581D01*
X119678449Y-25023067D01*
X119579739Y-25210683D01*
X119516873Y-25413146D01*
X119491955Y-25623676D01*
X119265656Y-25623676D01*
X119249044Y-25442891D01*
X119248125Y-25439633D01*
X119248124Y-25439627D01*
X119192420Y-25242117D01*
X119192419Y-25242115D01*
X119191499Y-25238852D01*
X119097734Y-25048716D01*
X119080824Y-25026070D01*
X118972922Y-24881572D01*
X118972921Y-24881571D01*
X118970890Y-24878851D01*
X118815215Y-24734946D01*
X118812340Y-24733132D01*
X118638791Y-24623631D01*
X118638789Y-24623630D01*
X118635922Y-24621821D01*
X118632774Y-24620565D01*
X118632772Y-24620564D01*
X118442169Y-24544521D01*
X118442166Y-24544520D01*
X118439015Y-24543263D01*
X118435688Y-24542601D01*
X118435684Y-24542600D01*
X118234414Y-24502565D01*
X118234412Y-24502565D01*
X118231090Y-24501904D01*
X118137759Y-24500682D01*
X118022503Y-24499173D01*
X118022498Y-24499173D01*
X118019110Y-24499129D01*
X118015764Y-24499704D01*
X118015763Y-24499704D01*
X117956690Y-24509855D01*
X117810173Y-24535031D01*
X117611278Y-24608407D01*
X117429085Y-24716801D01*
X117426541Y-24719032D01*
X117426537Y-24719035D01*
X117308136Y-24822870D01*
X117269696Y-24856581D01*
X117138449Y-25023067D01*
X117039739Y-25210683D01*
X116976873Y-25413146D01*
X116951955Y-25623676D01*
X116786500Y-25623676D01*
X116786500Y-24404500D01*
X116803813Y-24356934D01*
X116847650Y-24331624D01*
X116860500Y-24330500D01*
X149839500Y-24330500D01*
X149887066Y-24347813D01*
G37*
%TD.AperFunction*%
%TD*%
%TA.AperFunction,Conductor*%
%TO.N,GND*%
G36*
X133440000Y-24802198D02*
G01*
X133439538Y-24802100D01*
X133260462Y-24802100D01*
X133085298Y-24839332D01*
X132921704Y-24912169D01*
X132918520Y-24914482D01*
X132918517Y-24914484D01*
X132780017Y-25015109D01*
X132776827Y-25017427D01*
X132657002Y-25150507D01*
X132655033Y-25153918D01*
X132576476Y-25289982D01*
X132567463Y-25305592D01*
X132512126Y-25475904D01*
X132493407Y-25654000D01*
X132512126Y-25832096D01*
X132567463Y-26002408D01*
X132569434Y-26005822D01*
X132569435Y-26005824D01*
X132577402Y-26019623D01*
X132657002Y-26157493D01*
X132776827Y-26290573D01*
X132780015Y-26292889D01*
X132780017Y-26292891D01*
X132918516Y-26393516D01*
X132918519Y-26393518D01*
X132921703Y-26395831D01*
X133085298Y-26468668D01*
X133260462Y-26505900D01*
X133439538Y-26505900D01*
X133440000Y-26505802D01*
X133440000Y-27342198D01*
X133439538Y-27342100D01*
X133260462Y-27342100D01*
X133085298Y-27379332D01*
X132921704Y-27452169D01*
X132918520Y-27454482D01*
X132918517Y-27454484D01*
X132780017Y-27555109D01*
X132776827Y-27557427D01*
X132657002Y-27690507D01*
X132567463Y-27845592D01*
X132512126Y-28015904D01*
X132493407Y-28194000D01*
X132512126Y-28372096D01*
X132567463Y-28542408D01*
X132657002Y-28697493D01*
X132776827Y-28830573D01*
X132780015Y-28832889D01*
X132780017Y-28832891D01*
X132918516Y-28933516D01*
X132918519Y-28933518D01*
X132921703Y-28935831D01*
X133085298Y-29008668D01*
X133260462Y-29045900D01*
X133439538Y-29045900D01*
X133440000Y-29045802D01*
X133440000Y-47070000D01*
X96672900Y-47070000D01*
X96672900Y-31470100D01*
X96690493Y-31421762D01*
X96735042Y-31396042D01*
X96748100Y-31394900D01*
X116301968Y-31394900D01*
X116321430Y-31397462D01*
X116332000Y-31400294D01*
X116342570Y-31397462D01*
X116352131Y-31394900D01*
X116401586Y-31381649D01*
X116401587Y-31381649D01*
X116411147Y-31379087D01*
X116469087Y-31321147D01*
X116490294Y-31242000D01*
X116487462Y-31231430D01*
X116484900Y-31211968D01*
X116484900Y-27479943D01*
X117258100Y-27479943D01*
X117258101Y-28908056D01*
X117266972Y-28952658D01*
X117300766Y-29003234D01*
X117306923Y-29007348D01*
X117345183Y-29032913D01*
X117345184Y-29032914D01*
X117351342Y-29037028D01*
X117358606Y-29038473D01*
X117391826Y-29045081D01*
X117395943Y-29045900D01*
X118109903Y-29045900D01*
X118824056Y-29045899D01*
X118868658Y-29037028D01*
X118919234Y-29003234D01*
X118953028Y-28952658D01*
X118961900Y-28908057D01*
X118961899Y-28194000D01*
X119793407Y-28194000D01*
X119812126Y-28372096D01*
X119867463Y-28542408D01*
X119957002Y-28697493D01*
X120076827Y-28830573D01*
X120080015Y-28832889D01*
X120080017Y-28832891D01*
X120218516Y-28933516D01*
X120218519Y-28933518D01*
X120221703Y-28935831D01*
X120385298Y-29008668D01*
X120560462Y-29045900D01*
X120739538Y-29045900D01*
X120914702Y-29008668D01*
X121078297Y-28935831D01*
X121081481Y-28933518D01*
X121081484Y-28933516D01*
X121219983Y-28832891D01*
X121219985Y-28832889D01*
X121223173Y-28830573D01*
X121342998Y-28697493D01*
X121432537Y-28542408D01*
X121487874Y-28372096D01*
X121506593Y-28194000D01*
X122333407Y-28194000D01*
X122352126Y-28372096D01*
X122407463Y-28542408D01*
X122497002Y-28697493D01*
X122616827Y-28830573D01*
X122620015Y-28832889D01*
X122620017Y-28832891D01*
X122758516Y-28933516D01*
X122758519Y-28933518D01*
X122761703Y-28935831D01*
X122925298Y-29008668D01*
X123100462Y-29045900D01*
X123279538Y-29045900D01*
X123454702Y-29008668D01*
X123618297Y-28935831D01*
X123621481Y-28933518D01*
X123621484Y-28933516D01*
X123759983Y-28832891D01*
X123759985Y-28832889D01*
X123763173Y-28830573D01*
X123882998Y-28697493D01*
X123972537Y-28542408D01*
X124027874Y-28372096D01*
X124046593Y-28194000D01*
X124873407Y-28194000D01*
X124892126Y-28372096D01*
X124947463Y-28542408D01*
X125037002Y-28697493D01*
X125156827Y-28830573D01*
X125160015Y-28832889D01*
X125160017Y-28832891D01*
X125298516Y-28933516D01*
X125298519Y-28933518D01*
X125301703Y-28935831D01*
X125465298Y-29008668D01*
X125640462Y-29045900D01*
X125819538Y-29045900D01*
X125994702Y-29008668D01*
X126158297Y-28935831D01*
X126161481Y-28933518D01*
X126161484Y-28933516D01*
X126299983Y-28832891D01*
X126299985Y-28832889D01*
X126303173Y-28830573D01*
X126422998Y-28697493D01*
X126512537Y-28542408D01*
X126567874Y-28372096D01*
X126586593Y-28194000D01*
X127413407Y-28194000D01*
X127432126Y-28372096D01*
X127487463Y-28542408D01*
X127577002Y-28697493D01*
X127696827Y-28830573D01*
X127700015Y-28832889D01*
X127700017Y-28832891D01*
X127838516Y-28933516D01*
X127838519Y-28933518D01*
X127841703Y-28935831D01*
X128005298Y-29008668D01*
X128180462Y-29045900D01*
X128359538Y-29045900D01*
X128534702Y-29008668D01*
X128698297Y-28935831D01*
X128701481Y-28933518D01*
X128701484Y-28933516D01*
X128839983Y-28832891D01*
X128839985Y-28832889D01*
X128843173Y-28830573D01*
X128962998Y-28697493D01*
X129052537Y-28542408D01*
X129107874Y-28372096D01*
X129126593Y-28194000D01*
X129953407Y-28194000D01*
X129972126Y-28372096D01*
X130027463Y-28542408D01*
X130117002Y-28697493D01*
X130236827Y-28830573D01*
X130240015Y-28832889D01*
X130240017Y-28832891D01*
X130378516Y-28933516D01*
X130378519Y-28933518D01*
X130381703Y-28935831D01*
X130545298Y-29008668D01*
X130720462Y-29045900D01*
X130899538Y-29045900D01*
X131074702Y-29008668D01*
X131238297Y-28935831D01*
X131241481Y-28933518D01*
X131241484Y-28933516D01*
X131379983Y-28832891D01*
X131379985Y-28832889D01*
X131383173Y-28830573D01*
X131502998Y-28697493D01*
X131592537Y-28542408D01*
X131647874Y-28372096D01*
X131666593Y-28194000D01*
X131647874Y-28015904D01*
X131592537Y-27845592D01*
X131502998Y-27690507D01*
X131383173Y-27557427D01*
X131281615Y-27483641D01*
X131241484Y-27454484D01*
X131241481Y-27454482D01*
X131238297Y-27452169D01*
X131074702Y-27379332D01*
X130899538Y-27342100D01*
X130720462Y-27342100D01*
X130545298Y-27379332D01*
X130381704Y-27452169D01*
X130378520Y-27454482D01*
X130378517Y-27454484D01*
X130240017Y-27555109D01*
X130236827Y-27557427D01*
X130117002Y-27690507D01*
X130027463Y-27845592D01*
X129972126Y-28015904D01*
X129953407Y-28194000D01*
X129126593Y-28194000D01*
X129107874Y-28015904D01*
X129052537Y-27845592D01*
X128962998Y-27690507D01*
X128843173Y-27557427D01*
X128741615Y-27483641D01*
X128701484Y-27454484D01*
X128701481Y-27454482D01*
X128698297Y-27452169D01*
X128534702Y-27379332D01*
X128359538Y-27342100D01*
X128180462Y-27342100D01*
X128005298Y-27379332D01*
X127841704Y-27452169D01*
X127838520Y-27454482D01*
X127838517Y-27454484D01*
X127700017Y-27555109D01*
X127696827Y-27557427D01*
X127577002Y-27690507D01*
X127487463Y-27845592D01*
X127432126Y-28015904D01*
X127413407Y-28194000D01*
X126586593Y-28194000D01*
X126567874Y-28015904D01*
X126512537Y-27845592D01*
X126422998Y-27690507D01*
X126303173Y-27557427D01*
X126201615Y-27483641D01*
X126161484Y-27454484D01*
X126161481Y-27454482D01*
X126158297Y-27452169D01*
X125994702Y-27379332D01*
X125819538Y-27342100D01*
X125640462Y-27342100D01*
X125465298Y-27379332D01*
X125301704Y-27452169D01*
X125298520Y-27454482D01*
X125298517Y-27454484D01*
X125160017Y-27555109D01*
X125156827Y-27557427D01*
X125037002Y-27690507D01*
X124947463Y-27845592D01*
X124892126Y-28015904D01*
X124873407Y-28194000D01*
X124046593Y-28194000D01*
X124027874Y-28015904D01*
X123972537Y-27845592D01*
X123882998Y-27690507D01*
X123763173Y-27557427D01*
X123661615Y-27483641D01*
X123621484Y-27454484D01*
X123621481Y-27454482D01*
X123618297Y-27452169D01*
X123454702Y-27379332D01*
X123279538Y-27342100D01*
X123100462Y-27342100D01*
X122925298Y-27379332D01*
X122761704Y-27452169D01*
X122758520Y-27454482D01*
X122758517Y-27454484D01*
X122620017Y-27555109D01*
X122616827Y-27557427D01*
X122497002Y-27690507D01*
X122407463Y-27845592D01*
X122352126Y-28015904D01*
X122333407Y-28194000D01*
X121506593Y-28194000D01*
X121487874Y-28015904D01*
X121432537Y-27845592D01*
X121342998Y-27690507D01*
X121223173Y-27557427D01*
X121121615Y-27483641D01*
X121081484Y-27454484D01*
X121081481Y-27454482D01*
X121078297Y-27452169D01*
X120914702Y-27379332D01*
X120739538Y-27342100D01*
X120560462Y-27342100D01*
X120385298Y-27379332D01*
X120221704Y-27452169D01*
X120218520Y-27454482D01*
X120218517Y-27454484D01*
X120080017Y-27555109D01*
X120076827Y-27557427D01*
X119957002Y-27690507D01*
X119867463Y-27845592D01*
X119812126Y-28015904D01*
X119793407Y-28194000D01*
X118961899Y-28194000D01*
X118961899Y-27479944D01*
X118953028Y-27435342D01*
X118919234Y-27384766D01*
X118913077Y-27380652D01*
X118874817Y-27355087D01*
X118874816Y-27355086D01*
X118868658Y-27350972D01*
X118861394Y-27349527D01*
X118827682Y-27342821D01*
X118827681Y-27342821D01*
X118824057Y-27342100D01*
X118110097Y-27342100D01*
X117395944Y-27342101D01*
X117351342Y-27350972D01*
X117300766Y-27384766D01*
X117266972Y-27435342D01*
X117258100Y-27479943D01*
X116484900Y-27479943D01*
X116484900Y-25654000D01*
X117253407Y-25654000D01*
X117272126Y-25832096D01*
X117327463Y-26002408D01*
X117329434Y-26005822D01*
X117329435Y-26005824D01*
X117337402Y-26019623D01*
X117417002Y-26157493D01*
X117536827Y-26290573D01*
X117540015Y-26292889D01*
X117540017Y-26292891D01*
X117678516Y-26393516D01*
X117678519Y-26393518D01*
X117681703Y-26395831D01*
X117845298Y-26468668D01*
X118020462Y-26505900D01*
X118199538Y-26505900D01*
X118374702Y-26468668D01*
X118538297Y-26395831D01*
X118541481Y-26393518D01*
X118541484Y-26393516D01*
X118679983Y-26292891D01*
X118679985Y-26292889D01*
X118683173Y-26290573D01*
X118802998Y-26157493D01*
X118882598Y-26019623D01*
X118890565Y-26005824D01*
X118890566Y-26005822D01*
X118892537Y-26002408D01*
X118947874Y-25832096D01*
X118966593Y-25654000D01*
X119793407Y-25654000D01*
X119812126Y-25832096D01*
X119867463Y-26002408D01*
X119869434Y-26005822D01*
X119869435Y-26005824D01*
X119877402Y-26019623D01*
X119957002Y-26157493D01*
X120076827Y-26290573D01*
X120080015Y-26292889D01*
X120080017Y-26292891D01*
X120218516Y-26393516D01*
X120218519Y-26393518D01*
X120221703Y-26395831D01*
X120385298Y-26468668D01*
X120560462Y-26505900D01*
X120739538Y-26505900D01*
X120914702Y-26468668D01*
X121078297Y-26395831D01*
X121081481Y-26393518D01*
X121081484Y-26393516D01*
X121219983Y-26292891D01*
X121219985Y-26292889D01*
X121223173Y-26290573D01*
X121342998Y-26157493D01*
X121422598Y-26019623D01*
X121430565Y-26005824D01*
X121430566Y-26005822D01*
X121432537Y-26002408D01*
X121487874Y-25832096D01*
X121506593Y-25654000D01*
X122333407Y-25654000D01*
X122352126Y-25832096D01*
X122407463Y-26002408D01*
X122409434Y-26005822D01*
X122409435Y-26005824D01*
X122417402Y-26019623D01*
X122497002Y-26157493D01*
X122616827Y-26290573D01*
X122620015Y-26292889D01*
X122620017Y-26292891D01*
X122758516Y-26393516D01*
X122758519Y-26393518D01*
X122761703Y-26395831D01*
X122925298Y-26468668D01*
X123100462Y-26505900D01*
X123279538Y-26505900D01*
X123454702Y-26468668D01*
X123618297Y-26395831D01*
X123621481Y-26393518D01*
X123621484Y-26393516D01*
X123759983Y-26292891D01*
X123759985Y-26292889D01*
X123763173Y-26290573D01*
X123882998Y-26157493D01*
X123962598Y-26019623D01*
X123970565Y-26005824D01*
X123970566Y-26005822D01*
X123972537Y-26002408D01*
X124027874Y-25832096D01*
X124046593Y-25654000D01*
X124873407Y-25654000D01*
X124892126Y-25832096D01*
X124947463Y-26002408D01*
X124949434Y-26005822D01*
X124949435Y-26005824D01*
X124957402Y-26019623D01*
X125037002Y-26157493D01*
X125156827Y-26290573D01*
X125160015Y-26292889D01*
X125160017Y-26292891D01*
X125298516Y-26393516D01*
X125298519Y-26393518D01*
X125301703Y-26395831D01*
X125465298Y-26468668D01*
X125640462Y-26505900D01*
X125819538Y-26505900D01*
X125994702Y-26468668D01*
X126158297Y-26395831D01*
X126161481Y-26393518D01*
X126161484Y-26393516D01*
X126299983Y-26292891D01*
X126299985Y-26292889D01*
X126303173Y-26290573D01*
X126422998Y-26157493D01*
X126502598Y-26019623D01*
X126510565Y-26005824D01*
X126510566Y-26005822D01*
X126512537Y-26002408D01*
X126567874Y-25832096D01*
X126586593Y-25654000D01*
X127413407Y-25654000D01*
X127432126Y-25832096D01*
X127487463Y-26002408D01*
X127489434Y-26005822D01*
X127489435Y-26005824D01*
X127497402Y-26019623D01*
X127577002Y-26157493D01*
X127696827Y-26290573D01*
X127700015Y-26292889D01*
X127700017Y-26292891D01*
X127838516Y-26393516D01*
X127838519Y-26393518D01*
X127841703Y-26395831D01*
X128005298Y-26468668D01*
X128180462Y-26505900D01*
X128359538Y-26505900D01*
X128534702Y-26468668D01*
X128666599Y-26409944D01*
X130418495Y-26409944D01*
X130423035Y-26413686D01*
X130541857Y-26466588D01*
X130549305Y-26469009D01*
X130716663Y-26504581D01*
X130724452Y-26505400D01*
X130895548Y-26505400D01*
X130903337Y-26504581D01*
X131070695Y-26469009D01*
X131078143Y-26466588D01*
X131194200Y-26414917D01*
X131201975Y-26407410D01*
X131199076Y-26402286D01*
X130819377Y-26022587D01*
X130809578Y-26018018D01*
X130803587Y-26019623D01*
X130423063Y-26400147D01*
X130418495Y-26409944D01*
X128666599Y-26409944D01*
X128698297Y-26395831D01*
X128701481Y-26393518D01*
X128701484Y-26393516D01*
X128839983Y-26292891D01*
X128839985Y-26292889D01*
X128843173Y-26290573D01*
X128962998Y-26157493D01*
X129042598Y-26019623D01*
X129050565Y-26005824D01*
X129050566Y-26005822D01*
X129052537Y-26002408D01*
X129107874Y-25832096D01*
X129126181Y-25657920D01*
X129954322Y-25657920D01*
X129972206Y-25828073D01*
X129973836Y-25835740D01*
X130026705Y-25998454D01*
X130029893Y-26005615D01*
X130048622Y-26038055D01*
X130056902Y-26045003D01*
X130059053Y-26045003D01*
X130061076Y-26043714D01*
X130441413Y-25663377D01*
X130445588Y-25654422D01*
X131174018Y-25654422D01*
X131175623Y-25660413D01*
X131555371Y-26040161D01*
X131565170Y-26044730D01*
X131567246Y-26044174D01*
X131568865Y-26042407D01*
X131590107Y-26005615D01*
X131593295Y-25998454D01*
X131646164Y-25835740D01*
X131647794Y-25828073D01*
X131665678Y-25657920D01*
X131665678Y-25650080D01*
X131647794Y-25479927D01*
X131646164Y-25472260D01*
X131593295Y-25309546D01*
X131590107Y-25302385D01*
X131571378Y-25269945D01*
X131563098Y-25262997D01*
X131560947Y-25262997D01*
X131558924Y-25264286D01*
X131178587Y-25644623D01*
X131174018Y-25654422D01*
X130445588Y-25654422D01*
X130445982Y-25653578D01*
X130444377Y-25647587D01*
X130064629Y-25267839D01*
X130054830Y-25263270D01*
X130052754Y-25263826D01*
X130051135Y-25265593D01*
X130029893Y-25302385D01*
X130026705Y-25309546D01*
X129973836Y-25472260D01*
X129972206Y-25479927D01*
X129954322Y-25650080D01*
X129954322Y-25657920D01*
X129126181Y-25657920D01*
X129126593Y-25654000D01*
X129107874Y-25475904D01*
X129052537Y-25305592D01*
X129043525Y-25289982D01*
X128964967Y-25153918D01*
X128962998Y-25150507D01*
X128843173Y-25017427D01*
X128839983Y-25015109D01*
X128701484Y-24914484D01*
X128701481Y-24914482D01*
X128698297Y-24912169D01*
X128672290Y-24900590D01*
X130418025Y-24900590D01*
X130420924Y-24905714D01*
X130800623Y-25285413D01*
X130810422Y-25289982D01*
X130816413Y-25288377D01*
X131196937Y-24907853D01*
X131201505Y-24898056D01*
X131196965Y-24894314D01*
X131078143Y-24841412D01*
X131070695Y-24838991D01*
X130903337Y-24803419D01*
X130895548Y-24802600D01*
X130724452Y-24802600D01*
X130716663Y-24803419D01*
X130549305Y-24838991D01*
X130541857Y-24841412D01*
X130425800Y-24893083D01*
X130418025Y-24900590D01*
X128672290Y-24900590D01*
X128534702Y-24839332D01*
X128359538Y-24802100D01*
X128180462Y-24802100D01*
X128005298Y-24839332D01*
X127841704Y-24912169D01*
X127838520Y-24914482D01*
X127838517Y-24914484D01*
X127700017Y-25015109D01*
X127696827Y-25017427D01*
X127577002Y-25150507D01*
X127575033Y-25153918D01*
X127496476Y-25289982D01*
X127487463Y-25305592D01*
X127432126Y-25475904D01*
X127413407Y-25654000D01*
X126586593Y-25654000D01*
X126567874Y-25475904D01*
X126512537Y-25305592D01*
X126503525Y-25289982D01*
X126424967Y-25153918D01*
X126422998Y-25150507D01*
X126303173Y-25017427D01*
X126299983Y-25015109D01*
X126161484Y-24914484D01*
X126161481Y-24914482D01*
X126158297Y-24912169D01*
X125994702Y-24839332D01*
X125819538Y-24802100D01*
X125640462Y-24802100D01*
X125465298Y-24839332D01*
X125301704Y-24912169D01*
X125298520Y-24914482D01*
X125298517Y-24914484D01*
X125160017Y-25015109D01*
X125156827Y-25017427D01*
X125037002Y-25150507D01*
X125035033Y-25153918D01*
X124956476Y-25289982D01*
X124947463Y-25305592D01*
X124892126Y-25475904D01*
X124873407Y-25654000D01*
X124046593Y-25654000D01*
X124027874Y-25475904D01*
X123972537Y-25305592D01*
X123963525Y-25289982D01*
X123884967Y-25153918D01*
X123882998Y-25150507D01*
X123763173Y-25017427D01*
X123759983Y-25015109D01*
X123621484Y-24914484D01*
X123621481Y-24914482D01*
X123618297Y-24912169D01*
X123454702Y-24839332D01*
X123279538Y-24802100D01*
X123100462Y-24802100D01*
X122925298Y-24839332D01*
X122761704Y-24912169D01*
X122758520Y-24914482D01*
X122758517Y-24914484D01*
X122620017Y-25015109D01*
X122616827Y-25017427D01*
X122497002Y-25150507D01*
X122495033Y-25153918D01*
X122416476Y-25289982D01*
X122407463Y-25305592D01*
X122352126Y-25475904D01*
X122333407Y-25654000D01*
X121506593Y-25654000D01*
X121487874Y-25475904D01*
X121432537Y-25305592D01*
X121423525Y-25289982D01*
X121344967Y-25153918D01*
X121342998Y-25150507D01*
X121223173Y-25017427D01*
X121219983Y-25015109D01*
X121081484Y-24914484D01*
X121081481Y-24914482D01*
X121078297Y-24912169D01*
X120914702Y-24839332D01*
X120739538Y-24802100D01*
X120560462Y-24802100D01*
X120385298Y-24839332D01*
X120221704Y-24912169D01*
X120218520Y-24914482D01*
X120218517Y-24914484D01*
X120080017Y-25015109D01*
X120076827Y-25017427D01*
X119957002Y-25150507D01*
X119955033Y-25153918D01*
X119876476Y-25289982D01*
X119867463Y-25305592D01*
X119812126Y-25475904D01*
X119793407Y-25654000D01*
X118966593Y-25654000D01*
X118947874Y-25475904D01*
X118892537Y-25305592D01*
X118883525Y-25289982D01*
X118804967Y-25153918D01*
X118802998Y-25150507D01*
X118683173Y-25017427D01*
X118679983Y-25015109D01*
X118541484Y-24914484D01*
X118541481Y-24914482D01*
X118538297Y-24912169D01*
X118374702Y-24839332D01*
X118199538Y-24802100D01*
X118020462Y-24802100D01*
X117845298Y-24839332D01*
X117681704Y-24912169D01*
X117678520Y-24914482D01*
X117678517Y-24914484D01*
X117540017Y-25015109D01*
X117536827Y-25017427D01*
X117417002Y-25150507D01*
X117415033Y-25153918D01*
X117336476Y-25289982D01*
X117327463Y-25305592D01*
X117272126Y-25475904D01*
X117253407Y-25654000D01*
X116484900Y-25654000D01*
X116484900Y-24104100D01*
X116502493Y-24055762D01*
X116547042Y-24030042D01*
X116560100Y-24028900D01*
X133440000Y-24028900D01*
X133440000Y-24802198D01*
G37*
%TD.AperFunction*%
%TD*%
%TA.AperFunction,Conductor*%
%TO.N,GND*%
G36*
X145034000Y-47070000D02*
G01*
X133240000Y-47070000D01*
X133240000Y-29041551D01*
X133260462Y-29045900D01*
X133439538Y-29045900D01*
X133614702Y-29008668D01*
X133778297Y-28935831D01*
X133781481Y-28933518D01*
X133781484Y-28933516D01*
X133919983Y-28832891D01*
X133919985Y-28832889D01*
X133923173Y-28830573D01*
X134042998Y-28697493D01*
X134122598Y-28559623D01*
X134130565Y-28545824D01*
X134130566Y-28545822D01*
X134132537Y-28542408D01*
X134187874Y-28372096D01*
X134206593Y-28194000D01*
X135033407Y-28194000D01*
X135052126Y-28372096D01*
X135107463Y-28542408D01*
X135109434Y-28545822D01*
X135109435Y-28545824D01*
X135117402Y-28559623D01*
X135197002Y-28697493D01*
X135316827Y-28830573D01*
X135320015Y-28832889D01*
X135320017Y-28832891D01*
X135458516Y-28933516D01*
X135458519Y-28933518D01*
X135461703Y-28935831D01*
X135625298Y-29008668D01*
X135800462Y-29045900D01*
X135979538Y-29045900D01*
X136154702Y-29008668D01*
X136318297Y-28935831D01*
X136321481Y-28933518D01*
X136321484Y-28933516D01*
X136459983Y-28832891D01*
X136459985Y-28832889D01*
X136463173Y-28830573D01*
X136582998Y-28697493D01*
X136662598Y-28559623D01*
X136670565Y-28545824D01*
X136670566Y-28545822D01*
X136672537Y-28542408D01*
X136727874Y-28372096D01*
X136746593Y-28194000D01*
X137573407Y-28194000D01*
X137592126Y-28372096D01*
X137647463Y-28542408D01*
X137649434Y-28545822D01*
X137649435Y-28545824D01*
X137657402Y-28559623D01*
X137737002Y-28697493D01*
X137856827Y-28830573D01*
X137860015Y-28832889D01*
X137860017Y-28832891D01*
X137998516Y-28933516D01*
X137998519Y-28933518D01*
X138001703Y-28935831D01*
X138165298Y-29008668D01*
X138340462Y-29045900D01*
X138519538Y-29045900D01*
X138694702Y-29008668D01*
X138858297Y-28935831D01*
X138861481Y-28933518D01*
X138861484Y-28933516D01*
X138999983Y-28832891D01*
X138999985Y-28832889D01*
X139003173Y-28830573D01*
X139122998Y-28697493D01*
X139202598Y-28559623D01*
X139210565Y-28545824D01*
X139210566Y-28545822D01*
X139212537Y-28542408D01*
X139267874Y-28372096D01*
X139286593Y-28194000D01*
X140113407Y-28194000D01*
X140132126Y-28372096D01*
X140187463Y-28542408D01*
X140189434Y-28545822D01*
X140189435Y-28545824D01*
X140197402Y-28559623D01*
X140277002Y-28697493D01*
X140396827Y-28830573D01*
X140400015Y-28832889D01*
X140400017Y-28832891D01*
X140538516Y-28933516D01*
X140538519Y-28933518D01*
X140541703Y-28935831D01*
X140705298Y-29008668D01*
X140880462Y-29045900D01*
X141059538Y-29045900D01*
X141234702Y-29008668D01*
X141366599Y-28949944D01*
X143118495Y-28949944D01*
X143123035Y-28953686D01*
X143241857Y-29006588D01*
X143249305Y-29009009D01*
X143416663Y-29044581D01*
X143424452Y-29045400D01*
X143595548Y-29045400D01*
X143603337Y-29044581D01*
X143770695Y-29009009D01*
X143778143Y-29006588D01*
X143894200Y-28954917D01*
X143901975Y-28947410D01*
X143899076Y-28942286D01*
X143519377Y-28562587D01*
X143509578Y-28558018D01*
X143503587Y-28559623D01*
X143123063Y-28940147D01*
X143118495Y-28949944D01*
X141366599Y-28949944D01*
X141398297Y-28935831D01*
X141401481Y-28933518D01*
X141401484Y-28933516D01*
X141539983Y-28832891D01*
X141539985Y-28832889D01*
X141543173Y-28830573D01*
X141662998Y-28697493D01*
X141742598Y-28559623D01*
X141750565Y-28545824D01*
X141750566Y-28545822D01*
X141752537Y-28542408D01*
X141807874Y-28372096D01*
X141826181Y-28197920D01*
X142654322Y-28197920D01*
X142672206Y-28368073D01*
X142673836Y-28375740D01*
X142726705Y-28538454D01*
X142729893Y-28545615D01*
X142748622Y-28578055D01*
X142756902Y-28585003D01*
X142759053Y-28585003D01*
X142761076Y-28583714D01*
X143141413Y-28203377D01*
X143145588Y-28194422D01*
X143874018Y-28194422D01*
X143875623Y-28200413D01*
X144255371Y-28580161D01*
X144265170Y-28584730D01*
X144267246Y-28584174D01*
X144268865Y-28582407D01*
X144290107Y-28545615D01*
X144293295Y-28538454D01*
X144346164Y-28375740D01*
X144347794Y-28368073D01*
X144365678Y-28197920D01*
X144365678Y-28190080D01*
X144347794Y-28019927D01*
X144346164Y-28012260D01*
X144293295Y-27849546D01*
X144290107Y-27842385D01*
X144271378Y-27809945D01*
X144263098Y-27802997D01*
X144260947Y-27802997D01*
X144258924Y-27804286D01*
X143878587Y-28184623D01*
X143874018Y-28194422D01*
X143145588Y-28194422D01*
X143145982Y-28193578D01*
X143144377Y-28187587D01*
X142764629Y-27807839D01*
X142754830Y-27803270D01*
X142752754Y-27803826D01*
X142751135Y-27805593D01*
X142729893Y-27842385D01*
X142726705Y-27849546D01*
X142673836Y-28012260D01*
X142672206Y-28019927D01*
X142654322Y-28190080D01*
X142654322Y-28197920D01*
X141826181Y-28197920D01*
X141826593Y-28194000D01*
X141807874Y-28015904D01*
X141752537Y-27845592D01*
X141743525Y-27829982D01*
X141664967Y-27693918D01*
X141662998Y-27690507D01*
X141543173Y-27557427D01*
X141539983Y-27555109D01*
X141401484Y-27454484D01*
X141401481Y-27454482D01*
X141398297Y-27452169D01*
X141372290Y-27440590D01*
X143118025Y-27440590D01*
X143120924Y-27445714D01*
X143500623Y-27825413D01*
X143510422Y-27829982D01*
X143516413Y-27828377D01*
X143896937Y-27447853D01*
X143901505Y-27438056D01*
X143896965Y-27434314D01*
X143778143Y-27381412D01*
X143770695Y-27378991D01*
X143603337Y-27343419D01*
X143595548Y-27342600D01*
X143424452Y-27342600D01*
X143416663Y-27343419D01*
X143249305Y-27378991D01*
X143241857Y-27381412D01*
X143125800Y-27433083D01*
X143118025Y-27440590D01*
X141372290Y-27440590D01*
X141234702Y-27379332D01*
X141059538Y-27342100D01*
X140880462Y-27342100D01*
X140705298Y-27379332D01*
X140541704Y-27452169D01*
X140538520Y-27454482D01*
X140538517Y-27454484D01*
X140400017Y-27555109D01*
X140396827Y-27557427D01*
X140277002Y-27690507D01*
X140275033Y-27693918D01*
X140196476Y-27829982D01*
X140187463Y-27845592D01*
X140132126Y-28015904D01*
X140113407Y-28194000D01*
X139286593Y-28194000D01*
X139267874Y-28015904D01*
X139212537Y-27845592D01*
X139203525Y-27829982D01*
X139124967Y-27693918D01*
X139122998Y-27690507D01*
X139003173Y-27557427D01*
X138999983Y-27555109D01*
X138861484Y-27454484D01*
X138861481Y-27454482D01*
X138858297Y-27452169D01*
X138694702Y-27379332D01*
X138519538Y-27342100D01*
X138340462Y-27342100D01*
X138165298Y-27379332D01*
X138001704Y-27452169D01*
X137998520Y-27454482D01*
X137998517Y-27454484D01*
X137860017Y-27555109D01*
X137856827Y-27557427D01*
X137737002Y-27690507D01*
X137735033Y-27693918D01*
X137656476Y-27829982D01*
X137647463Y-27845592D01*
X137592126Y-28015904D01*
X137573407Y-28194000D01*
X136746593Y-28194000D01*
X136727874Y-28015904D01*
X136672537Y-27845592D01*
X136663525Y-27829982D01*
X136584967Y-27693918D01*
X136582998Y-27690507D01*
X136463173Y-27557427D01*
X136459983Y-27555109D01*
X136321484Y-27454484D01*
X136321481Y-27454482D01*
X136318297Y-27452169D01*
X136154702Y-27379332D01*
X135979538Y-27342100D01*
X135800462Y-27342100D01*
X135625298Y-27379332D01*
X135461704Y-27452169D01*
X135458520Y-27454482D01*
X135458517Y-27454484D01*
X135320017Y-27555109D01*
X135316827Y-27557427D01*
X135197002Y-27690507D01*
X135195033Y-27693918D01*
X135116476Y-27829982D01*
X135107463Y-27845592D01*
X135052126Y-28015904D01*
X135033407Y-28194000D01*
X134206593Y-28194000D01*
X134187874Y-28015904D01*
X134132537Y-27845592D01*
X134123525Y-27829982D01*
X134044967Y-27693918D01*
X134042998Y-27690507D01*
X133923173Y-27557427D01*
X133919983Y-27555109D01*
X133781484Y-27454484D01*
X133781481Y-27454482D01*
X133778297Y-27452169D01*
X133614702Y-27379332D01*
X133439538Y-27342100D01*
X133260462Y-27342100D01*
X133240000Y-27346449D01*
X133240000Y-26501551D01*
X133260462Y-26505900D01*
X133439538Y-26505900D01*
X133614702Y-26468668D01*
X133778297Y-26395831D01*
X133781481Y-26393518D01*
X133781484Y-26393516D01*
X133919983Y-26292891D01*
X133919985Y-26292889D01*
X133923173Y-26290573D01*
X134042998Y-26157493D01*
X134122598Y-26019623D01*
X134130565Y-26005824D01*
X134130566Y-26005822D01*
X134132537Y-26002408D01*
X134187874Y-25832096D01*
X134206593Y-25654000D01*
X135033407Y-25654000D01*
X135052126Y-25832096D01*
X135107463Y-26002408D01*
X135109434Y-26005822D01*
X135109435Y-26005824D01*
X135117402Y-26019623D01*
X135197002Y-26157493D01*
X135316827Y-26290573D01*
X135320015Y-26292889D01*
X135320017Y-26292891D01*
X135458516Y-26393516D01*
X135458519Y-26393518D01*
X135461703Y-26395831D01*
X135625298Y-26468668D01*
X135800462Y-26505900D01*
X135979538Y-26505900D01*
X136154702Y-26468668D01*
X136318297Y-26395831D01*
X136321481Y-26393518D01*
X136321484Y-26393516D01*
X136459983Y-26292891D01*
X136459985Y-26292889D01*
X136463173Y-26290573D01*
X136582998Y-26157493D01*
X136662598Y-26019623D01*
X136670565Y-26005824D01*
X136670566Y-26005822D01*
X136672537Y-26002408D01*
X136727874Y-25832096D01*
X136746593Y-25654000D01*
X137573407Y-25654000D01*
X137592126Y-25832096D01*
X137647463Y-26002408D01*
X137649434Y-26005822D01*
X137649435Y-26005824D01*
X137657402Y-26019623D01*
X137737002Y-26157493D01*
X137856827Y-26290573D01*
X137860015Y-26292889D01*
X137860017Y-26292891D01*
X137998516Y-26393516D01*
X137998519Y-26393518D01*
X138001703Y-26395831D01*
X138165298Y-26468668D01*
X138340462Y-26505900D01*
X138519538Y-26505900D01*
X138694702Y-26468668D01*
X138858297Y-26395831D01*
X138861481Y-26393518D01*
X138861484Y-26393516D01*
X138999983Y-26292891D01*
X138999985Y-26292889D01*
X139003173Y-26290573D01*
X139122998Y-26157493D01*
X139202598Y-26019623D01*
X139210565Y-26005824D01*
X139210566Y-26005822D01*
X139212537Y-26002408D01*
X139267874Y-25832096D01*
X139286593Y-25654000D01*
X140113407Y-25654000D01*
X140132126Y-25832096D01*
X140187463Y-26002408D01*
X140189434Y-26005822D01*
X140189435Y-26005824D01*
X140197402Y-26019623D01*
X140277002Y-26157493D01*
X140396827Y-26290573D01*
X140400015Y-26292889D01*
X140400017Y-26292891D01*
X140538516Y-26393516D01*
X140538519Y-26393518D01*
X140541703Y-26395831D01*
X140705298Y-26468668D01*
X140880462Y-26505900D01*
X141059538Y-26505900D01*
X141234702Y-26468668D01*
X141366599Y-26409944D01*
X143118495Y-26409944D01*
X143123035Y-26413686D01*
X143241857Y-26466588D01*
X143249305Y-26469009D01*
X143416663Y-26504581D01*
X143424452Y-26505400D01*
X143595548Y-26505400D01*
X143603337Y-26504581D01*
X143770695Y-26469009D01*
X143778143Y-26466588D01*
X143894200Y-26414917D01*
X143901975Y-26407410D01*
X143899076Y-26402286D01*
X143519377Y-26022587D01*
X143509578Y-26018018D01*
X143503587Y-26019623D01*
X143123063Y-26400147D01*
X143118495Y-26409944D01*
X141366599Y-26409944D01*
X141398297Y-26395831D01*
X141401481Y-26393518D01*
X141401484Y-26393516D01*
X141539983Y-26292891D01*
X141539985Y-26292889D01*
X141543173Y-26290573D01*
X141662998Y-26157493D01*
X141742598Y-26019623D01*
X141750565Y-26005824D01*
X141750566Y-26005822D01*
X141752537Y-26002408D01*
X141807874Y-25832096D01*
X141826181Y-25657920D01*
X142654322Y-25657920D01*
X142672206Y-25828073D01*
X142673836Y-25835740D01*
X142726705Y-25998454D01*
X142729893Y-26005615D01*
X142748622Y-26038055D01*
X142756902Y-26045003D01*
X142759053Y-26045003D01*
X142761076Y-26043714D01*
X143141413Y-25663377D01*
X143145588Y-25654422D01*
X143874018Y-25654422D01*
X143875623Y-25660413D01*
X144255371Y-26040161D01*
X144265170Y-26044730D01*
X144267246Y-26044174D01*
X144268865Y-26042407D01*
X144290107Y-26005615D01*
X144293295Y-25998454D01*
X144346164Y-25835740D01*
X144347794Y-25828073D01*
X144365678Y-25657920D01*
X144365678Y-25650080D01*
X144347794Y-25479927D01*
X144346164Y-25472260D01*
X144293295Y-25309546D01*
X144290107Y-25302385D01*
X144271378Y-25269945D01*
X144263098Y-25262997D01*
X144260947Y-25262997D01*
X144258924Y-25264286D01*
X143878587Y-25644623D01*
X143874018Y-25654422D01*
X143145588Y-25654422D01*
X143145982Y-25653578D01*
X143144377Y-25647587D01*
X142764629Y-25267839D01*
X142754830Y-25263270D01*
X142752754Y-25263826D01*
X142751135Y-25265593D01*
X142729893Y-25302385D01*
X142726705Y-25309546D01*
X142673836Y-25472260D01*
X142672206Y-25479927D01*
X142654322Y-25650080D01*
X142654322Y-25657920D01*
X141826181Y-25657920D01*
X141826593Y-25654000D01*
X141807874Y-25475904D01*
X141752537Y-25305592D01*
X141743525Y-25289982D01*
X141664967Y-25153918D01*
X141662998Y-25150507D01*
X141543173Y-25017427D01*
X141539983Y-25015109D01*
X141401484Y-24914484D01*
X141401481Y-24914482D01*
X141398297Y-24912169D01*
X141372290Y-24900590D01*
X143118025Y-24900590D01*
X143120924Y-24905714D01*
X143500623Y-25285413D01*
X143510422Y-25289982D01*
X143516413Y-25288377D01*
X143896937Y-24907853D01*
X143901505Y-24898056D01*
X143896965Y-24894314D01*
X143778143Y-24841412D01*
X143770695Y-24838991D01*
X143603337Y-24803419D01*
X143595548Y-24802600D01*
X143424452Y-24802600D01*
X143416663Y-24803419D01*
X143249305Y-24838991D01*
X143241857Y-24841412D01*
X143125800Y-24893083D01*
X143118025Y-24900590D01*
X141372290Y-24900590D01*
X141234702Y-24839332D01*
X141059538Y-24802100D01*
X140880462Y-24802100D01*
X140705298Y-24839332D01*
X140541704Y-24912169D01*
X140538520Y-24914482D01*
X140538517Y-24914484D01*
X140400017Y-25015109D01*
X140396827Y-25017427D01*
X140277002Y-25150507D01*
X140275033Y-25153918D01*
X140196476Y-25289982D01*
X140187463Y-25305592D01*
X140132126Y-25475904D01*
X140113407Y-25654000D01*
X139286593Y-25654000D01*
X139267874Y-25475904D01*
X139212537Y-25305592D01*
X139203525Y-25289982D01*
X139124967Y-25153918D01*
X139122998Y-25150507D01*
X139003173Y-25017427D01*
X138999983Y-25015109D01*
X138861484Y-24914484D01*
X138861481Y-24914482D01*
X138858297Y-24912169D01*
X138694702Y-24839332D01*
X138519538Y-24802100D01*
X138340462Y-24802100D01*
X138165298Y-24839332D01*
X138001704Y-24912169D01*
X137998520Y-24914482D01*
X137998517Y-24914484D01*
X137860017Y-25015109D01*
X137856827Y-25017427D01*
X137737002Y-25150507D01*
X137735033Y-25153918D01*
X137656476Y-25289982D01*
X137647463Y-25305592D01*
X137592126Y-25475904D01*
X137573407Y-25654000D01*
X136746593Y-25654000D01*
X136727874Y-25475904D01*
X136672537Y-25305592D01*
X136663525Y-25289982D01*
X136584967Y-25153918D01*
X136582998Y-25150507D01*
X136463173Y-25017427D01*
X136459983Y-25015109D01*
X136321484Y-24914484D01*
X136321481Y-24914482D01*
X136318297Y-24912169D01*
X136154702Y-24839332D01*
X135979538Y-24802100D01*
X135800462Y-24802100D01*
X135625298Y-24839332D01*
X135461704Y-24912169D01*
X135458520Y-24914482D01*
X135458517Y-24914484D01*
X135320017Y-25015109D01*
X135316827Y-25017427D01*
X135197002Y-25150507D01*
X135195033Y-25153918D01*
X135116476Y-25289982D01*
X135107463Y-25305592D01*
X135052126Y-25475904D01*
X135033407Y-25654000D01*
X134206593Y-25654000D01*
X134187874Y-25475904D01*
X134132537Y-25305592D01*
X134123525Y-25289982D01*
X134044967Y-25153918D01*
X134042998Y-25150507D01*
X133923173Y-25017427D01*
X133919983Y-25015109D01*
X133781484Y-24914484D01*
X133781481Y-24914482D01*
X133778297Y-24912169D01*
X133614702Y-24839332D01*
X133439538Y-24802100D01*
X133260462Y-24802100D01*
X133240000Y-24806449D01*
X133240000Y-24028900D01*
X145034000Y-24028900D01*
X145034000Y-47070000D01*
G37*
%TD.AperFunction*%
%TD*%
%TA.AperFunction,Conductor*%
%TO.N,GND*%
G36*
X158750000Y-47070000D02*
G01*
X144924000Y-47070000D01*
X144924000Y-41148000D01*
X158750000Y-41148000D01*
X158750000Y-47070000D01*
G37*
%TD.AperFunction*%
%TD*%
%TA.AperFunction,Conductor*%
%TO.N,GND*%
G36*
X154940000Y-41228000D02*
G01*
X144924000Y-41228000D01*
X144924000Y-37338000D01*
X150876000Y-37338000D01*
X154940000Y-41228000D01*
G37*
%TD.AperFunction*%
%TD*%
%TA.AperFunction,Conductor*%
%TO.N,GND*%
G36*
X150876000Y-37338000D02*
G01*
X144924000Y-37418000D01*
X144924000Y-34036000D01*
X147574000Y-34036000D01*
X150876000Y-37338000D01*
G37*
%TD.AperFunction*%
%TD*%
%TA.AperFunction,Conductor*%
%TO.N,GND*%
G36*
X147574000Y-34036000D02*
G01*
X144780000Y-34036000D01*
X144780000Y-31242000D01*
X147574000Y-34036000D01*
G37*
%TD.AperFunction*%
%TD*%
%TA.AperFunction,Conductor*%
%TO.N,GND*%
G36*
X149990638Y-24244093D02*
G01*
X150016358Y-24288642D01*
X150017500Y-24301700D01*
X150017500Y-31477317D01*
X150017219Y-31483806D01*
X150014285Y-31517684D01*
X150014285Y-31517688D01*
X150013749Y-31523880D01*
X150015247Y-31529910D01*
X150015247Y-31529912D01*
X150023780Y-31564262D01*
X150024977Y-31570044D01*
X150030790Y-31604966D01*
X150030791Y-31604969D01*
X150031812Y-31611103D01*
X150034765Y-31616575D01*
X150036482Y-31621590D01*
X150038282Y-31626243D01*
X150040383Y-31631098D01*
X150041880Y-31637125D01*
X150045249Y-31642343D01*
X150045251Y-31642347D01*
X150064450Y-31672081D01*
X150067455Y-31677162D01*
X150084270Y-31708324D01*
X150084272Y-31708326D01*
X150087222Y-31713794D01*
X150091784Y-31718011D01*
X150095008Y-31722168D01*
X150098257Y-31726033D01*
X150101802Y-31729929D01*
X150105175Y-31735152D01*
X150137870Y-31760927D01*
X150142335Y-31764741D01*
X150172907Y-31793001D01*
X150178595Y-31795515D01*
X150183009Y-31798415D01*
X150187284Y-31800989D01*
X150191927Y-31803542D01*
X150196811Y-31807392D01*
X150202677Y-31809452D01*
X150236079Y-31821182D01*
X150241563Y-31823353D01*
X150256598Y-31830000D01*
X144924000Y-31830000D01*
X144924000Y-28179276D01*
X144995525Y-28179276D01*
X144995833Y-28182944D01*
X144995833Y-28182947D01*
X144997300Y-28200413D01*
X145012747Y-28384372D01*
X145013761Y-28387908D01*
X145063000Y-28559623D01*
X145069478Y-28582216D01*
X145163557Y-28765274D01*
X145291400Y-28926571D01*
X145294194Y-28928949D01*
X145294195Y-28928950D01*
X145330633Y-28959961D01*
X145448138Y-29059966D01*
X145451339Y-29061755D01*
X145451342Y-29061757D01*
X145487821Y-29082144D01*
X145627801Y-29160376D01*
X145823545Y-29223977D01*
X145936064Y-29237394D01*
X146024257Y-29247911D01*
X146024259Y-29247911D01*
X146027915Y-29248347D01*
X146233126Y-29232557D01*
X146387884Y-29189347D01*
X146427823Y-29178196D01*
X146427824Y-29178195D01*
X146431361Y-29177208D01*
X146434635Y-29175554D01*
X146434638Y-29175553D01*
X146519160Y-29132858D01*
X146615071Y-29084410D01*
X146617969Y-29082146D01*
X146617972Y-29082144D01*
X146774360Y-28959961D01*
X146774365Y-28959956D01*
X146777258Y-28957696D01*
X146783949Y-28949944D01*
X148198495Y-28949944D01*
X148203035Y-28953686D01*
X148321857Y-29006588D01*
X148329305Y-29009009D01*
X148496663Y-29044581D01*
X148504452Y-29045400D01*
X148675548Y-29045400D01*
X148683337Y-29044581D01*
X148850695Y-29009009D01*
X148858143Y-29006588D01*
X148974200Y-28954917D01*
X148981975Y-28947410D01*
X148979076Y-28942286D01*
X148599377Y-28562587D01*
X148589578Y-28558018D01*
X148583587Y-28559623D01*
X148203063Y-28940147D01*
X148198495Y-28949944D01*
X146783949Y-28949944D01*
X146804124Y-28926571D01*
X146909338Y-28804680D01*
X146909341Y-28804676D01*
X146911743Y-28801893D01*
X147013405Y-28622936D01*
X147078371Y-28427640D01*
X147083391Y-28387908D01*
X147103903Y-28225536D01*
X147103903Y-28225535D01*
X147104167Y-28223446D01*
X147104447Y-28203377D01*
X147104523Y-28197920D01*
X147734322Y-28197920D01*
X147752206Y-28368073D01*
X147753836Y-28375740D01*
X147806705Y-28538454D01*
X147809893Y-28545615D01*
X147828622Y-28578055D01*
X147836902Y-28585003D01*
X147839053Y-28585003D01*
X147841076Y-28583714D01*
X148221413Y-28203377D01*
X148225588Y-28194422D01*
X148954018Y-28194422D01*
X148955623Y-28200413D01*
X149335371Y-28580161D01*
X149345170Y-28584730D01*
X149347246Y-28584174D01*
X149348865Y-28582407D01*
X149370107Y-28545615D01*
X149373295Y-28538454D01*
X149426164Y-28375740D01*
X149427794Y-28368073D01*
X149445678Y-28197920D01*
X149445678Y-28190080D01*
X149427794Y-28019927D01*
X149426164Y-28012260D01*
X149373295Y-27849546D01*
X149370107Y-27842385D01*
X149351378Y-27809945D01*
X149343098Y-27802997D01*
X149340947Y-27802997D01*
X149338924Y-27804286D01*
X148958587Y-28184623D01*
X148954018Y-28194422D01*
X148225588Y-28194422D01*
X148225982Y-28193578D01*
X148224377Y-28187587D01*
X147844629Y-27807839D01*
X147834830Y-27803270D01*
X147832754Y-27803826D01*
X147831135Y-27805593D01*
X147809893Y-27842385D01*
X147806705Y-27849546D01*
X147753836Y-28012260D01*
X147752206Y-28019927D01*
X147734322Y-28190080D01*
X147734322Y-28197920D01*
X147104523Y-28197920D01*
X147104549Y-28196099D01*
X147104549Y-28196094D01*
X147104578Y-28194000D01*
X147103494Y-28182947D01*
X147084854Y-27992832D01*
X147084853Y-27992827D01*
X147084494Y-27989165D01*
X147025006Y-27792132D01*
X146928380Y-27610405D01*
X146798298Y-27450908D01*
X146794606Y-27447853D01*
X146785826Y-27440590D01*
X148198025Y-27440590D01*
X148200924Y-27445714D01*
X148580623Y-27825413D01*
X148590422Y-27829982D01*
X148596413Y-27828377D01*
X148976937Y-27447853D01*
X148981505Y-27438056D01*
X148976965Y-27434314D01*
X148858143Y-27381412D01*
X148850695Y-27378991D01*
X148683337Y-27343419D01*
X148675548Y-27342600D01*
X148504452Y-27342600D01*
X148496663Y-27343419D01*
X148329305Y-27378991D01*
X148321857Y-27381412D01*
X148205800Y-27433083D01*
X148198025Y-27440590D01*
X146785826Y-27440590D01*
X146642544Y-27322057D01*
X146639713Y-27319715D01*
X146458665Y-27221823D01*
X146262052Y-27160961D01*
X146159707Y-27150204D01*
X146061018Y-27139832D01*
X146061015Y-27139832D01*
X146057362Y-27139448D01*
X145954877Y-27148774D01*
X145856050Y-27157768D01*
X145856049Y-27157768D01*
X145852392Y-27158101D01*
X145848867Y-27159138D01*
X145848864Y-27159139D01*
X145658477Y-27215173D01*
X145658474Y-27215174D01*
X145654948Y-27216212D01*
X145651691Y-27217915D01*
X145651688Y-27217916D01*
X145475811Y-27309863D01*
X145472552Y-27311567D01*
X145469686Y-27313871D01*
X145469685Y-27313872D01*
X145315020Y-27438225D01*
X145315017Y-27438228D01*
X145312150Y-27440533D01*
X145309787Y-27443349D01*
X145309784Y-27443352D01*
X145182217Y-27595380D01*
X145182214Y-27595384D01*
X145179853Y-27598198D01*
X145178082Y-27601420D01*
X145178081Y-27601421D01*
X145173142Y-27610405D01*
X145080700Y-27778558D01*
X145018467Y-27974741D01*
X144995525Y-28179276D01*
X144924000Y-28179276D01*
X144924000Y-25639276D01*
X144995525Y-25639276D01*
X144995833Y-25642944D01*
X144995833Y-25642947D01*
X144997300Y-25660413D01*
X145012747Y-25844372D01*
X145013761Y-25847908D01*
X145063000Y-26019623D01*
X145069478Y-26042216D01*
X145163557Y-26225274D01*
X145291400Y-26386571D01*
X145294194Y-26388949D01*
X145294195Y-26388950D01*
X145330633Y-26419961D01*
X145448138Y-26519966D01*
X145451339Y-26521755D01*
X145451342Y-26521757D01*
X145487821Y-26542144D01*
X145627801Y-26620376D01*
X145823545Y-26683977D01*
X145936064Y-26697394D01*
X146024257Y-26707911D01*
X146024259Y-26707911D01*
X146027915Y-26708347D01*
X146233126Y-26692557D01*
X146387884Y-26649347D01*
X146427823Y-26638196D01*
X146427824Y-26638195D01*
X146431361Y-26637208D01*
X146434635Y-26635554D01*
X146434638Y-26635553D01*
X146519160Y-26592858D01*
X146615071Y-26544410D01*
X146617969Y-26542146D01*
X146617972Y-26542144D01*
X146774360Y-26419961D01*
X146774365Y-26419956D01*
X146777258Y-26417696D01*
X146783949Y-26409944D01*
X148198495Y-26409944D01*
X148203035Y-26413686D01*
X148321857Y-26466588D01*
X148329305Y-26469009D01*
X148496663Y-26504581D01*
X148504452Y-26505400D01*
X148675548Y-26505400D01*
X148683337Y-26504581D01*
X148850695Y-26469009D01*
X148858143Y-26466588D01*
X148974200Y-26414917D01*
X148981975Y-26407410D01*
X148979076Y-26402286D01*
X148599377Y-26022587D01*
X148589578Y-26018018D01*
X148583587Y-26019623D01*
X148203063Y-26400147D01*
X148198495Y-26409944D01*
X146783949Y-26409944D01*
X146804124Y-26386571D01*
X146909338Y-26264680D01*
X146909341Y-26264676D01*
X146911743Y-26261893D01*
X147013405Y-26082936D01*
X147078371Y-25887640D01*
X147083391Y-25847908D01*
X147103903Y-25685536D01*
X147103903Y-25685535D01*
X147104167Y-25683446D01*
X147104447Y-25663377D01*
X147104523Y-25657920D01*
X147734322Y-25657920D01*
X147752206Y-25828073D01*
X147753836Y-25835740D01*
X147806705Y-25998454D01*
X147809893Y-26005615D01*
X147828622Y-26038055D01*
X147836902Y-26045003D01*
X147839053Y-26045003D01*
X147841076Y-26043714D01*
X148221413Y-25663377D01*
X148225588Y-25654422D01*
X148954018Y-25654422D01*
X148955623Y-25660413D01*
X149335371Y-26040161D01*
X149345170Y-26044730D01*
X149347246Y-26044174D01*
X149348865Y-26042407D01*
X149370107Y-26005615D01*
X149373295Y-25998454D01*
X149426164Y-25835740D01*
X149427794Y-25828073D01*
X149445678Y-25657920D01*
X149445678Y-25650080D01*
X149427794Y-25479927D01*
X149426164Y-25472260D01*
X149373295Y-25309546D01*
X149370107Y-25302385D01*
X149351378Y-25269945D01*
X149343098Y-25262997D01*
X149340947Y-25262997D01*
X149338924Y-25264286D01*
X148958587Y-25644623D01*
X148954018Y-25654422D01*
X148225588Y-25654422D01*
X148225982Y-25653578D01*
X148224377Y-25647587D01*
X147844629Y-25267839D01*
X147834830Y-25263270D01*
X147832754Y-25263826D01*
X147831135Y-25265593D01*
X147809893Y-25302385D01*
X147806705Y-25309546D01*
X147753836Y-25472260D01*
X147752206Y-25479927D01*
X147734322Y-25650080D01*
X147734322Y-25657920D01*
X147104523Y-25657920D01*
X147104549Y-25656099D01*
X147104549Y-25656094D01*
X147104578Y-25654000D01*
X147103494Y-25642947D01*
X147084854Y-25452832D01*
X147084853Y-25452827D01*
X147084494Y-25449165D01*
X147025006Y-25252132D01*
X146928380Y-25070405D01*
X146798298Y-24910908D01*
X146794606Y-24907853D01*
X146785826Y-24900590D01*
X148198025Y-24900590D01*
X148200924Y-24905714D01*
X148580623Y-25285413D01*
X148590422Y-25289982D01*
X148596413Y-25288377D01*
X148976937Y-24907853D01*
X148981505Y-24898056D01*
X148976965Y-24894314D01*
X148858143Y-24841412D01*
X148850695Y-24838991D01*
X148683337Y-24803419D01*
X148675548Y-24802600D01*
X148504452Y-24802600D01*
X148496663Y-24803419D01*
X148329305Y-24838991D01*
X148321857Y-24841412D01*
X148205800Y-24893083D01*
X148198025Y-24900590D01*
X146785826Y-24900590D01*
X146642544Y-24782057D01*
X146639713Y-24779715D01*
X146458665Y-24681823D01*
X146262052Y-24620961D01*
X146159707Y-24610205D01*
X146061018Y-24599832D01*
X146061015Y-24599832D01*
X146057362Y-24599448D01*
X145954877Y-24608775D01*
X145856050Y-24617768D01*
X145856049Y-24617768D01*
X145852392Y-24618101D01*
X145848867Y-24619138D01*
X145848864Y-24619139D01*
X145658477Y-24675173D01*
X145658474Y-24675174D01*
X145654948Y-24676212D01*
X145651691Y-24677915D01*
X145651688Y-24677916D01*
X145475811Y-24769863D01*
X145472552Y-24771567D01*
X145469686Y-24773871D01*
X145469685Y-24773872D01*
X145315020Y-24898225D01*
X145315017Y-24898228D01*
X145312150Y-24900533D01*
X145309787Y-24903349D01*
X145309784Y-24903352D01*
X145182217Y-25055380D01*
X145182214Y-25055384D01*
X145179853Y-25058198D01*
X145178082Y-25061420D01*
X145178081Y-25061421D01*
X145173142Y-25070405D01*
X145080700Y-25238558D01*
X145018467Y-25434741D01*
X144995525Y-25639276D01*
X144924000Y-25639276D01*
X144924000Y-24226500D01*
X149942300Y-24226500D01*
X149990638Y-24244093D01*
G37*
%TD.AperFunction*%
%TD*%
%TA.AperFunction,Conductor*%
%TO.N,GND*%
G36*
X169802638Y-31864093D02*
G01*
X169828358Y-31908642D01*
X169829500Y-31921700D01*
X169829500Y-46990000D01*
X158640000Y-46990000D01*
X158640000Y-31846500D01*
X169754300Y-31846500D01*
X169802638Y-31864093D01*
G37*
%TD.AperFunction*%
%TD*%
%TA.AperFunction,Conductor*%
%TO.N,GND*%
G36*
X158750000Y-41228000D02*
G01*
X154830000Y-41228000D01*
X154830000Y-31846500D01*
X158750000Y-31846500D01*
X158750000Y-41228000D01*
G37*
%TD.AperFunction*%
%TD*%
%TA.AperFunction,Conductor*%
%TO.N,GND*%
G36*
X150014285Y-31517684D02*
G01*
X150014285Y-31517688D01*
X150013749Y-31523880D01*
X150015247Y-31529910D01*
X150015247Y-31529912D01*
X150023780Y-31564262D01*
X150024977Y-31570044D01*
X150030790Y-31604966D01*
X150030791Y-31604969D01*
X150031812Y-31611103D01*
X150034765Y-31616575D01*
X150036482Y-31621590D01*
X150038282Y-31626243D01*
X150040383Y-31631098D01*
X150041880Y-31637125D01*
X150045249Y-31642343D01*
X150045251Y-31642347D01*
X150064450Y-31672081D01*
X150067455Y-31677162D01*
X150084270Y-31708324D01*
X150084272Y-31708326D01*
X150087222Y-31713794D01*
X150091784Y-31718011D01*
X150095008Y-31722168D01*
X150098257Y-31726033D01*
X150101802Y-31729929D01*
X150105175Y-31735152D01*
X150137870Y-31760927D01*
X150142335Y-31764741D01*
X150172907Y-31793001D01*
X150178595Y-31795515D01*
X150183009Y-31798415D01*
X150187284Y-31800989D01*
X150191927Y-31803542D01*
X150196811Y-31807392D01*
X150202677Y-31809452D01*
X150236079Y-31821182D01*
X150241563Y-31823353D01*
X150279629Y-31840182D01*
X150285820Y-31840718D01*
X150290959Y-31842038D01*
X150297812Y-31843513D01*
X150297817Y-31843492D01*
X150302447Y-31844489D01*
X150306906Y-31846055D01*
X150312044Y-31846500D01*
X150349317Y-31846500D01*
X150355806Y-31846781D01*
X150389684Y-31849715D01*
X150389688Y-31849715D01*
X150395880Y-31850251D01*
X150402052Y-31848718D01*
X150420180Y-31846500D01*
X154940000Y-31846500D01*
X154940000Y-41148000D01*
X154432000Y-41148000D01*
X144780000Y-31496000D01*
X150016163Y-31496000D01*
X150014285Y-31517684D01*
G37*
%TD.AperFunction*%
%TD*%
M02*
