%TF.GenerationSoftware,KiCad,Pcbnew,(6.0.8)*%
%TF.CreationDate,2023-08-07T17:47:41+10:00*%
%TF.ProjectId,REDPITAYA-BRK,52454450-4954-4415-9941-2d42524b2e6b,rev?*%
%TF.SameCoordinates,Original*%
%TF.FileFunction,Other,User*%
%FSLAX46Y46*%
G04 Gerber Fmt 4.6, Leading zero omitted, Abs format (unit mm)*
G04 Created by KiCad (PCBNEW (6.0.8)) date 2023-08-07 17:47:41*
%MOMM*%
%LPD*%
G01*
G04 APERTURE LIST*
%ADD10C,0.050000*%
G04 APERTURE END LIST*
D10*
%TO.C,ANALOG_OUT_1*%
X156070000Y-47784000D02*
X156070000Y-51784000D01*
X156070000Y-51784000D02*
X151270000Y-51784000D01*
X151270000Y-47784000D02*
X156070000Y-47784000D01*
X151270000Y-51784000D02*
X151270000Y-47784000D01*
%TO.C,+5V1*%
X102984000Y-39510000D02*
X102984000Y-44310000D01*
X102984000Y-44310000D02*
X98984000Y-44310000D01*
X98984000Y-44310000D02*
X98984000Y-39510000D01*
X98984000Y-39510000D02*
X102984000Y-39510000D01*
%TO.C,I2C_SDA1*%
X124346000Y-56718000D02*
X124346000Y-52718000D01*
X129146000Y-56718000D02*
X124346000Y-56718000D01*
X129146000Y-52718000D02*
X129146000Y-56718000D01*
X124346000Y-52718000D02*
X129146000Y-52718000D01*
%TO.C,ANALOG_IN_3*%
X156070000Y-64148000D02*
X156070000Y-68148000D01*
X151270000Y-64148000D02*
X156070000Y-64148000D01*
X156070000Y-68148000D02*
X151270000Y-68148000D01*
X151270000Y-68148000D02*
X151270000Y-64148000D01*
%TO.C,-4V1*%
X98984000Y-46876000D02*
X102984000Y-46876000D01*
X102984000Y-51676000D02*
X98984000Y-51676000D01*
X98984000Y-51676000D02*
X98984000Y-46876000D01*
X102984000Y-46876000D02*
X102984000Y-51676000D01*
%TO.C,UART_RX1*%
X115938000Y-63640000D02*
X115938000Y-67640000D01*
X111138000Y-63640000D02*
X115938000Y-63640000D01*
X111138000Y-67640000D02*
X111138000Y-63640000D01*
X115938000Y-67640000D02*
X111138000Y-67640000D01*
%TO.C,ANALOG_IN_0*%
X142862000Y-67894000D02*
X138062000Y-67894000D01*
X138062000Y-63894000D02*
X142862000Y-63894000D01*
X138062000Y-67894000D02*
X138062000Y-63894000D01*
X142862000Y-63894000D02*
X142862000Y-67894000D01*
%TO.C,UART_TX1*%
X115938000Y-55512000D02*
X115938000Y-59512000D01*
X111138000Y-59512000D02*
X111138000Y-55512000D01*
X115938000Y-59512000D02*
X111138000Y-59512000D01*
X111138000Y-55512000D02*
X115938000Y-55512000D01*
%TO.C,EXT_COM1*%
X124092000Y-67894000D02*
X124092000Y-63894000D01*
X128892000Y-67894000D02*
X124092000Y-67894000D01*
X124092000Y-63894000D02*
X128892000Y-63894000D01*
X128892000Y-63894000D02*
X128892000Y-67894000D01*
%TO.C,MOSI1*%
X99092000Y-60058000D02*
X99092000Y-55258000D01*
X99092000Y-55258000D02*
X103092000Y-55258000D01*
X103092000Y-55258000D02*
X103092000Y-60058000D01*
X103092000Y-60058000D02*
X99092000Y-60058000D01*
%TO.C,ANALOG_IN_1*%
X138062000Y-52718000D02*
X142862000Y-52718000D01*
X142862000Y-56718000D02*
X138062000Y-56718000D01*
X138062000Y-56718000D02*
X138062000Y-52718000D01*
X142862000Y-52718000D02*
X142862000Y-56718000D01*
%TO.C,ANALOG_IN_2*%
X138062000Y-42050000D02*
X142862000Y-42050000D01*
X138062000Y-46050000D02*
X138062000Y-42050000D01*
X142862000Y-42050000D02*
X142862000Y-46050000D01*
X142862000Y-46050000D02*
X138062000Y-46050000D01*
%TO.C,CLK_N1*%
X167246000Y-39338000D02*
X162446000Y-39338000D01*
X167246000Y-35338000D02*
X167246000Y-39338000D01*
X162446000Y-35338000D02*
X167246000Y-35338000D01*
X162446000Y-39338000D02*
X162446000Y-35338000D01*
%TO.C,ANALOG_OUT_2*%
X166700000Y-63435000D02*
X166700000Y-68235000D01*
X162700000Y-63435000D02*
X166700000Y-63435000D01*
X162700000Y-68235000D02*
X162700000Y-63435000D01*
X166700000Y-68235000D02*
X162700000Y-68235000D01*
%TO.C,CS1*%
X115938000Y-51530000D02*
X111138000Y-51530000D01*
X111138000Y-51530000D02*
X111138000Y-47530000D01*
X111138000Y-47530000D02*
X115938000Y-47530000D01*
X115938000Y-47530000D02*
X115938000Y-51530000D01*
%TO.C,ANALOG_OUT_0*%
X156070000Y-59766000D02*
X151270000Y-59766000D01*
X151270000Y-59766000D02*
X151270000Y-55766000D01*
X151270000Y-55766000D02*
X156070000Y-55766000D01*
X156070000Y-55766000D02*
X156070000Y-59766000D01*
%TO.C,MISO1*%
X103133000Y-63683000D02*
X103133000Y-68483000D01*
X99133000Y-68483000D02*
X99133000Y-63683000D01*
X99133000Y-63683000D02*
X103133000Y-63683000D01*
X103133000Y-68483000D02*
X99133000Y-68483000D01*
%TO.C,ANALOG_OUT_3*%
X151270000Y-44926000D02*
X151270000Y-40926000D01*
X156070000Y-44926000D02*
X151270000Y-44926000D01*
X151270000Y-40926000D02*
X156070000Y-40926000D01*
X156070000Y-40926000D02*
X156070000Y-44926000D01*
%TO.C,CLK_P1*%
X162446000Y-45542000D02*
X162446000Y-41542000D01*
X162446000Y-41542000D02*
X167246000Y-41542000D01*
X167246000Y-45542000D02*
X162446000Y-45542000D01*
X167246000Y-41542000D02*
X167246000Y-45542000D01*
%TO.C,SCLK1*%
X111138000Y-43656000D02*
X111138000Y-39656000D01*
X111138000Y-39656000D02*
X115938000Y-39656000D01*
X115938000Y-39656000D02*
X115938000Y-43656000D01*
X115938000Y-43656000D02*
X111138000Y-43656000D01*
%TO.C,I2C_SCL1*%
X124346000Y-46050000D02*
X124346000Y-42050000D01*
X129146000Y-46050000D02*
X124346000Y-46050000D01*
X124346000Y-42050000D02*
X129146000Y-42050000D01*
X129146000Y-42050000D02*
X129146000Y-46050000D01*
%TD*%
M02*
