%TF.GenerationSoftware,KiCad,Pcbnew,(6.0.8)*%
%TF.CreationDate,2023-08-07T17:47:41+10:00*%
%TF.ProjectId,REDPITAYA-BRK,52454450-4954-4415-9941-2d42524b2e6b,rev?*%
%TF.SameCoordinates,Original*%
%TF.FileFunction,Copper,L4,Bot*%
%TF.FilePolarity,Positive*%
%FSLAX46Y46*%
G04 Gerber Fmt 4.6, Leading zero omitted, Abs format (unit mm)*
G04 Created by KiCad (PCBNEW (6.0.8)) date 2023-08-07 17:47:41*
%MOMM*%
%LPD*%
G01*
G04 APERTURE LIST*
%TA.AperFunction,ComponentPad*%
%ADD10R,1.398000X1.398000*%
%TD*%
%TA.AperFunction,ComponentPad*%
%ADD11C,1.398000*%
%TD*%
%TA.AperFunction,ViaPad*%
%ADD12C,0.600000*%
%TD*%
G04 APERTURE END LIST*
D10*
%TO.P,J1,1,1*%
%TO.N,/p5v*%
X118110000Y-28194000D03*
D11*
%TO.P,J1,2,2*%
%TO.N,/mosi*%
X120650000Y-28194000D03*
%TO.P,J1,3,3*%
%TO.N,/sclk*%
X123190000Y-28194000D03*
%TO.P,J1,4,4*%
%TO.N,/uart_tx*%
X125730000Y-28194000D03*
%TO.P,J1,5,5*%
%TO.N,/i2c_scl*%
X128270000Y-28194000D03*
%TO.P,J1,6,6*%
%TO.N,/ext_com*%
X130810000Y-28194000D03*
%TO.P,J1,7,7*%
%TO.N,/ai0*%
X133350000Y-28194000D03*
%TO.P,J1,8,8*%
%TO.N,/ai2*%
X135890000Y-28194000D03*
%TO.P,J1,9,9*%
%TO.N,/ao0*%
X138430000Y-28194000D03*
%TO.P,J1,10,10*%
%TO.N,/ao2*%
X140970000Y-28194000D03*
%TO.P,J1,11,11*%
%TO.N,GND*%
X143510000Y-28194000D03*
%TO.P,J1,12,12*%
%TO.N,/CLK_P*%
X146050000Y-28194000D03*
%TO.P,J1,13,13*%
%TO.N,GND*%
X148590000Y-28194000D03*
%TO.P,J1,14,14*%
%TO.N,/m4v*%
X118110000Y-25654000D03*
%TO.P,J1,15,15*%
%TO.N,/miso*%
X120650000Y-25654000D03*
%TO.P,J1,16,16*%
%TO.N,/cs*%
X123190000Y-25654000D03*
%TO.P,J1,17,17*%
%TO.N,/uart_rx*%
X125730000Y-25654000D03*
%TO.P,J1,18,18*%
%TO.N,/i2c_sda*%
X128270000Y-25654000D03*
%TO.P,J1,19,19*%
%TO.N,GND*%
X130810000Y-25654000D03*
%TO.P,J1,20,20*%
%TO.N,/ai1*%
X133350000Y-25654000D03*
%TO.P,J1,21,21*%
%TO.N,/ai3*%
X135890000Y-25654000D03*
%TO.P,J1,22,22*%
%TO.N,/ao1*%
X138430000Y-25654000D03*
%TO.P,J1,23,23*%
%TO.N,/ao3*%
X140970000Y-25654000D03*
%TO.P,J1,24,24*%
%TO.N,GND*%
X143510000Y-25654000D03*
%TO.P,J1,25,25*%
%TO.N,/CLK_N*%
X146050000Y-25654000D03*
%TO.P,J1,26,26*%
%TO.N,GND*%
X148590000Y-25654000D03*
%TD*%
D12*
%TO.N,GND*%
X145796000Y-51816000D03*
X134874000Y-42672000D03*
X165100000Y-40386000D03*
X165862000Y-41402000D03*
X165862000Y-39370000D03*
X163576000Y-39370000D03*
X163576000Y-41402000D03*
X151892000Y-35052000D03*
X155702000Y-38862000D03*
X154940000Y-38100000D03*
X151130000Y-34290000D03*
X148336000Y-31242000D03*
X148844000Y-32004000D03*
X149606000Y-32766000D03*
X148336000Y-30226000D03*
X152654000Y-35814000D03*
X153416000Y-36576000D03*
X154178000Y-37338000D03*
X150368000Y-33528000D03*
X156464000Y-39370000D03*
X159512000Y-39370000D03*
X157480000Y-39370000D03*
X162560000Y-39370000D03*
X161544000Y-39370000D03*
X160528000Y-39370000D03*
X158496000Y-39370000D03*
X162560000Y-41402000D03*
X161544000Y-41402000D03*
X160528000Y-41402000D03*
X159512000Y-41402000D03*
X158496000Y-41402000D03*
X157480000Y-41402000D03*
X156464000Y-41402000D03*
X155194000Y-40894000D03*
X154432000Y-40132000D03*
X153670000Y-39370000D03*
X152908000Y-38608000D03*
X152146000Y-37846000D03*
X151384000Y-37084000D03*
X150622000Y-36322000D03*
X149860000Y-35560000D03*
X149098000Y-34798000D03*
X148336000Y-34036000D03*
X147574000Y-33274000D03*
X146812000Y-32512000D03*
X146304000Y-31242000D03*
X146304000Y-30226000D03*
X135636000Y-51562000D03*
X162306000Y-45212000D03*
X102108000Y-60452000D03*
X100837000Y-63600000D03*
X147320000Y-66040000D03*
X140462000Y-49022000D03*
X138012000Y-56324000D03*
X165862000Y-55880000D03*
X129261000Y-67468600D03*
X129281000Y-53363600D03*
X99198000Y-60467000D03*
X111047000Y-41915000D03*
X100584000Y-35560000D03*
X100827000Y-68555000D03*
X99402000Y-63615000D03*
X107696000Y-67310000D03*
X129246000Y-66033600D03*
X156215000Y-42648000D03*
X147828000Y-56388000D03*
X116001000Y-64488600D03*
X116018000Y-57643000D03*
X102008000Y-46791000D03*
X116083000Y-51235000D03*
X99033000Y-46796000D03*
X116013000Y-56143000D03*
X144272000Y-61214000D03*
X167386000Y-45212000D03*
X151259000Y-64715000D03*
X151145000Y-59044000D03*
X156209000Y-66160000D03*
X163884000Y-63386800D03*
X102030000Y-55285000D03*
X116083000Y-49760000D03*
X129286000Y-56338600D03*
X102033000Y-44251000D03*
X111046000Y-64468600D03*
X124271000Y-54898600D03*
X137997000Y-53414000D03*
X124460000Y-48514000D03*
X99058000Y-44256000D03*
X151145000Y-57569000D03*
X108204000Y-63246000D03*
X129286000Y-54863600D03*
X129246000Y-64558600D03*
X158750000Y-54356000D03*
X156194000Y-64725000D03*
X120118092Y-65250947D03*
X129004000Y-45890000D03*
X102302000Y-68555000D03*
X142882000Y-56329000D03*
X165349000Y-68301800D03*
X111003000Y-59109000D03*
X167401000Y-38100000D03*
X156209000Y-67635000D03*
X99120000Y-55300000D03*
X166794000Y-63371800D03*
X163874000Y-68301800D03*
X164846000Y-50038000D03*
X156215000Y-49760000D03*
X99392000Y-68570000D03*
X162306000Y-35560000D03*
X128989000Y-44455000D03*
X124271000Y-56373600D03*
X110998000Y-56134000D03*
X111023000Y-48299000D03*
X129540000Y-49530000D03*
X121158000Y-59436000D03*
X142882000Y-54854000D03*
X160274000Y-66802000D03*
X100555000Y-55285000D03*
X156215000Y-44123000D03*
X104648000Y-51308000D03*
X123896000Y-66013600D03*
X138041000Y-64595000D03*
X128989000Y-42980000D03*
X156215000Y-51235000D03*
X142981000Y-64555000D03*
X124266000Y-53398600D03*
X138012000Y-45747600D03*
X156225000Y-59044000D03*
X162306000Y-36830000D03*
X116077000Y-43360000D03*
X132080000Y-30734000D03*
X151274000Y-67625000D03*
X156210000Y-54356000D03*
X149606000Y-49530000D03*
X167386000Y-35560000D03*
X156210000Y-56134000D03*
X100533000Y-51736000D03*
X105410000Y-58928000D03*
X143002000Y-44245000D03*
X111061000Y-67378600D03*
X116016000Y-67398600D03*
X167386000Y-36830000D03*
X102028000Y-39281000D03*
X143002000Y-45720000D03*
X124206000Y-44401000D03*
X106426000Y-34290000D03*
X167371000Y-42302000D03*
X100533000Y-46791000D03*
X142867000Y-53419000D03*
X124221000Y-45836000D03*
X138012000Y-44272600D03*
X116077000Y-41885000D03*
X138012000Y-54849000D03*
X100593000Y-39296000D03*
X158242000Y-37084000D03*
X151135000Y-49760000D03*
X142987000Y-42810000D03*
X167371000Y-43777000D03*
X152146000Y-41656000D03*
X116001000Y-65963600D03*
X156225000Y-57569000D03*
X102312000Y-63600000D03*
X132080000Y-61468000D03*
X142996000Y-67465000D03*
X151274000Y-66150000D03*
X159512000Y-44704000D03*
X125222000Y-42672000D03*
X123911000Y-67448600D03*
X100558000Y-44251000D03*
X116018000Y-59118000D03*
X111046000Y-65943600D03*
X99118000Y-39296000D03*
X138056000Y-66030000D03*
X142981000Y-66030000D03*
X111023000Y-49774000D03*
X139446000Y-58674000D03*
X147828000Y-48006000D03*
X164338000Y-60706000D03*
X138056000Y-67505000D03*
X151130000Y-56134000D03*
X155702000Y-33782000D03*
X151135000Y-42926000D03*
X102008000Y-51736000D03*
X162291000Y-43777000D03*
X111047000Y-43390000D03*
X116078000Y-48260000D03*
X165359000Y-63386800D03*
X119634000Y-54102000D03*
X130556000Y-34798000D03*
X166784000Y-68286800D03*
X100633000Y-60452000D03*
X156210000Y-48260000D03*
X111003000Y-57634000D03*
X123896000Y-64538600D03*
X137997000Y-42837600D03*
X111038000Y-51209000D03*
X133604000Y-65532000D03*
X99033000Y-51741000D03*
%TD*%
%TA.AperFunction,Conductor*%
%TO.N,GND*%
G36*
X170000238Y-46933593D02*
G01*
X170025958Y-46978142D01*
X170027100Y-46991200D01*
X170027100Y-71145900D01*
X170009507Y-71194238D01*
X169964958Y-71219958D01*
X169951900Y-71221100D01*
X96748100Y-71221100D01*
X96699762Y-71203507D01*
X96674042Y-71158958D01*
X96672900Y-71145900D01*
X96672900Y-46916000D01*
X169951900Y-46916000D01*
X170000238Y-46933593D01*
G37*
%TD.AperFunction*%
%TD*%
%TA.AperFunction,Conductor*%
%TO.N,GND*%
G36*
X133440000Y-24802198D02*
G01*
X133439538Y-24802100D01*
X133260462Y-24802100D01*
X133085298Y-24839332D01*
X132921704Y-24912169D01*
X132918520Y-24914482D01*
X132918517Y-24914484D01*
X132780017Y-25015109D01*
X132776827Y-25017427D01*
X132657002Y-25150507D01*
X132655033Y-25153918D01*
X132576476Y-25289982D01*
X132567463Y-25305592D01*
X132512126Y-25475904D01*
X132493407Y-25654000D01*
X132512126Y-25832096D01*
X132567463Y-26002408D01*
X132569434Y-26005822D01*
X132569435Y-26005824D01*
X132577402Y-26019623D01*
X132657002Y-26157493D01*
X132776827Y-26290573D01*
X132780015Y-26292889D01*
X132780017Y-26292891D01*
X132918516Y-26393516D01*
X132918519Y-26393518D01*
X132921703Y-26395831D01*
X133085298Y-26468668D01*
X133260462Y-26505900D01*
X133439538Y-26505900D01*
X133440000Y-26505802D01*
X133440000Y-27342198D01*
X133439538Y-27342100D01*
X133260462Y-27342100D01*
X133085298Y-27379332D01*
X132921704Y-27452169D01*
X132918520Y-27454482D01*
X132918517Y-27454484D01*
X132780017Y-27555109D01*
X132776827Y-27557427D01*
X132657002Y-27690507D01*
X132567463Y-27845592D01*
X132512126Y-28015904D01*
X132493407Y-28194000D01*
X132512126Y-28372096D01*
X132567463Y-28542408D01*
X132657002Y-28697493D01*
X132776827Y-28830573D01*
X132780015Y-28832889D01*
X132780017Y-28832891D01*
X132918516Y-28933516D01*
X132918519Y-28933518D01*
X132921703Y-28935831D01*
X133085298Y-29008668D01*
X133260462Y-29045900D01*
X133439538Y-29045900D01*
X133440000Y-29045802D01*
X133440000Y-47070000D01*
X96672900Y-47070000D01*
X96672900Y-31470100D01*
X96690493Y-31421762D01*
X96735042Y-31396042D01*
X96748100Y-31394900D01*
X116301968Y-31394900D01*
X116321430Y-31397462D01*
X116332000Y-31400294D01*
X116342570Y-31397462D01*
X116352131Y-31394900D01*
X116401586Y-31381649D01*
X116401587Y-31381649D01*
X116411147Y-31379087D01*
X116469087Y-31321147D01*
X116490294Y-31242000D01*
X116487462Y-31231430D01*
X116484900Y-31211968D01*
X116484900Y-27479943D01*
X117258100Y-27479943D01*
X117258101Y-28908056D01*
X117266972Y-28952658D01*
X117300766Y-29003234D01*
X117306923Y-29007348D01*
X117345183Y-29032913D01*
X117345184Y-29032914D01*
X117351342Y-29037028D01*
X117358606Y-29038473D01*
X117391826Y-29045081D01*
X117395943Y-29045900D01*
X118109903Y-29045900D01*
X118824056Y-29045899D01*
X118868658Y-29037028D01*
X118919234Y-29003234D01*
X118953028Y-28952658D01*
X118961900Y-28908057D01*
X118961899Y-28194000D01*
X119793407Y-28194000D01*
X119812126Y-28372096D01*
X119867463Y-28542408D01*
X119957002Y-28697493D01*
X120076827Y-28830573D01*
X120080015Y-28832889D01*
X120080017Y-28832891D01*
X120218516Y-28933516D01*
X120218519Y-28933518D01*
X120221703Y-28935831D01*
X120385298Y-29008668D01*
X120560462Y-29045900D01*
X120739538Y-29045900D01*
X120914702Y-29008668D01*
X121078297Y-28935831D01*
X121081481Y-28933518D01*
X121081484Y-28933516D01*
X121219983Y-28832891D01*
X121219985Y-28832889D01*
X121223173Y-28830573D01*
X121342998Y-28697493D01*
X121432537Y-28542408D01*
X121487874Y-28372096D01*
X121506593Y-28194000D01*
X122333407Y-28194000D01*
X122352126Y-28372096D01*
X122407463Y-28542408D01*
X122497002Y-28697493D01*
X122616827Y-28830573D01*
X122620015Y-28832889D01*
X122620017Y-28832891D01*
X122758516Y-28933516D01*
X122758519Y-28933518D01*
X122761703Y-28935831D01*
X122925298Y-29008668D01*
X123100462Y-29045900D01*
X123279538Y-29045900D01*
X123454702Y-29008668D01*
X123618297Y-28935831D01*
X123621481Y-28933518D01*
X123621484Y-28933516D01*
X123759983Y-28832891D01*
X123759985Y-28832889D01*
X123763173Y-28830573D01*
X123882998Y-28697493D01*
X123972537Y-28542408D01*
X124027874Y-28372096D01*
X124046593Y-28194000D01*
X124873407Y-28194000D01*
X124892126Y-28372096D01*
X124947463Y-28542408D01*
X125037002Y-28697493D01*
X125156827Y-28830573D01*
X125160015Y-28832889D01*
X125160017Y-28832891D01*
X125298516Y-28933516D01*
X125298519Y-28933518D01*
X125301703Y-28935831D01*
X125465298Y-29008668D01*
X125640462Y-29045900D01*
X125819538Y-29045900D01*
X125994702Y-29008668D01*
X126158297Y-28935831D01*
X126161481Y-28933518D01*
X126161484Y-28933516D01*
X126299983Y-28832891D01*
X126299985Y-28832889D01*
X126303173Y-28830573D01*
X126422998Y-28697493D01*
X126512537Y-28542408D01*
X126567874Y-28372096D01*
X126586593Y-28194000D01*
X127413407Y-28194000D01*
X127432126Y-28372096D01*
X127487463Y-28542408D01*
X127577002Y-28697493D01*
X127696827Y-28830573D01*
X127700015Y-28832889D01*
X127700017Y-28832891D01*
X127838516Y-28933516D01*
X127838519Y-28933518D01*
X127841703Y-28935831D01*
X128005298Y-29008668D01*
X128180462Y-29045900D01*
X128359538Y-29045900D01*
X128534702Y-29008668D01*
X128698297Y-28935831D01*
X128701481Y-28933518D01*
X128701484Y-28933516D01*
X128839983Y-28832891D01*
X128839985Y-28832889D01*
X128843173Y-28830573D01*
X128962998Y-28697493D01*
X129052537Y-28542408D01*
X129107874Y-28372096D01*
X129126593Y-28194000D01*
X129953407Y-28194000D01*
X129972126Y-28372096D01*
X130027463Y-28542408D01*
X130117002Y-28697493D01*
X130236827Y-28830573D01*
X130240015Y-28832889D01*
X130240017Y-28832891D01*
X130378516Y-28933516D01*
X130378519Y-28933518D01*
X130381703Y-28935831D01*
X130545298Y-29008668D01*
X130720462Y-29045900D01*
X130899538Y-29045900D01*
X131074702Y-29008668D01*
X131238297Y-28935831D01*
X131241481Y-28933518D01*
X131241484Y-28933516D01*
X131379983Y-28832891D01*
X131379985Y-28832889D01*
X131383173Y-28830573D01*
X131502998Y-28697493D01*
X131592537Y-28542408D01*
X131647874Y-28372096D01*
X131666593Y-28194000D01*
X131647874Y-28015904D01*
X131592537Y-27845592D01*
X131502998Y-27690507D01*
X131383173Y-27557427D01*
X131281615Y-27483641D01*
X131241484Y-27454484D01*
X131241481Y-27454482D01*
X131238297Y-27452169D01*
X131074702Y-27379332D01*
X130899538Y-27342100D01*
X130720462Y-27342100D01*
X130545298Y-27379332D01*
X130381704Y-27452169D01*
X130378520Y-27454482D01*
X130378517Y-27454484D01*
X130240017Y-27555109D01*
X130236827Y-27557427D01*
X130117002Y-27690507D01*
X130027463Y-27845592D01*
X129972126Y-28015904D01*
X129953407Y-28194000D01*
X129126593Y-28194000D01*
X129107874Y-28015904D01*
X129052537Y-27845592D01*
X128962998Y-27690507D01*
X128843173Y-27557427D01*
X128741615Y-27483641D01*
X128701484Y-27454484D01*
X128701481Y-27454482D01*
X128698297Y-27452169D01*
X128534702Y-27379332D01*
X128359538Y-27342100D01*
X128180462Y-27342100D01*
X128005298Y-27379332D01*
X127841704Y-27452169D01*
X127838520Y-27454482D01*
X127838517Y-27454484D01*
X127700017Y-27555109D01*
X127696827Y-27557427D01*
X127577002Y-27690507D01*
X127487463Y-27845592D01*
X127432126Y-28015904D01*
X127413407Y-28194000D01*
X126586593Y-28194000D01*
X126567874Y-28015904D01*
X126512537Y-27845592D01*
X126422998Y-27690507D01*
X126303173Y-27557427D01*
X126201615Y-27483641D01*
X126161484Y-27454484D01*
X126161481Y-27454482D01*
X126158297Y-27452169D01*
X125994702Y-27379332D01*
X125819538Y-27342100D01*
X125640462Y-27342100D01*
X125465298Y-27379332D01*
X125301704Y-27452169D01*
X125298520Y-27454482D01*
X125298517Y-27454484D01*
X125160017Y-27555109D01*
X125156827Y-27557427D01*
X125037002Y-27690507D01*
X124947463Y-27845592D01*
X124892126Y-28015904D01*
X124873407Y-28194000D01*
X124046593Y-28194000D01*
X124027874Y-28015904D01*
X123972537Y-27845592D01*
X123882998Y-27690507D01*
X123763173Y-27557427D01*
X123661615Y-27483641D01*
X123621484Y-27454484D01*
X123621481Y-27454482D01*
X123618297Y-27452169D01*
X123454702Y-27379332D01*
X123279538Y-27342100D01*
X123100462Y-27342100D01*
X122925298Y-27379332D01*
X122761704Y-27452169D01*
X122758520Y-27454482D01*
X122758517Y-27454484D01*
X122620017Y-27555109D01*
X122616827Y-27557427D01*
X122497002Y-27690507D01*
X122407463Y-27845592D01*
X122352126Y-28015904D01*
X122333407Y-28194000D01*
X121506593Y-28194000D01*
X121487874Y-28015904D01*
X121432537Y-27845592D01*
X121342998Y-27690507D01*
X121223173Y-27557427D01*
X121121615Y-27483641D01*
X121081484Y-27454484D01*
X121081481Y-27454482D01*
X121078297Y-27452169D01*
X120914702Y-27379332D01*
X120739538Y-27342100D01*
X120560462Y-27342100D01*
X120385298Y-27379332D01*
X120221704Y-27452169D01*
X120218520Y-27454482D01*
X120218517Y-27454484D01*
X120080017Y-27555109D01*
X120076827Y-27557427D01*
X119957002Y-27690507D01*
X119867463Y-27845592D01*
X119812126Y-28015904D01*
X119793407Y-28194000D01*
X118961899Y-28194000D01*
X118961899Y-27479944D01*
X118953028Y-27435342D01*
X118919234Y-27384766D01*
X118913077Y-27380652D01*
X118874817Y-27355087D01*
X118874816Y-27355086D01*
X118868658Y-27350972D01*
X118861394Y-27349527D01*
X118827682Y-27342821D01*
X118827681Y-27342821D01*
X118824057Y-27342100D01*
X118110097Y-27342100D01*
X117395944Y-27342101D01*
X117351342Y-27350972D01*
X117300766Y-27384766D01*
X117266972Y-27435342D01*
X117258100Y-27479943D01*
X116484900Y-27479943D01*
X116484900Y-25654000D01*
X117253407Y-25654000D01*
X117272126Y-25832096D01*
X117327463Y-26002408D01*
X117329434Y-26005822D01*
X117329435Y-26005824D01*
X117337402Y-26019623D01*
X117417002Y-26157493D01*
X117536827Y-26290573D01*
X117540015Y-26292889D01*
X117540017Y-26292891D01*
X117678516Y-26393516D01*
X117678519Y-26393518D01*
X117681703Y-26395831D01*
X117845298Y-26468668D01*
X118020462Y-26505900D01*
X118199538Y-26505900D01*
X118374702Y-26468668D01*
X118538297Y-26395831D01*
X118541481Y-26393518D01*
X118541484Y-26393516D01*
X118679983Y-26292891D01*
X118679985Y-26292889D01*
X118683173Y-26290573D01*
X118802998Y-26157493D01*
X118882598Y-26019623D01*
X118890565Y-26005824D01*
X118890566Y-26005822D01*
X118892537Y-26002408D01*
X118947874Y-25832096D01*
X118966593Y-25654000D01*
X119793407Y-25654000D01*
X119812126Y-25832096D01*
X119867463Y-26002408D01*
X119869434Y-26005822D01*
X119869435Y-26005824D01*
X119877402Y-26019623D01*
X119957002Y-26157493D01*
X120076827Y-26290573D01*
X120080015Y-26292889D01*
X120080017Y-26292891D01*
X120218516Y-26393516D01*
X120218519Y-26393518D01*
X120221703Y-26395831D01*
X120385298Y-26468668D01*
X120560462Y-26505900D01*
X120739538Y-26505900D01*
X120914702Y-26468668D01*
X121078297Y-26395831D01*
X121081481Y-26393518D01*
X121081484Y-26393516D01*
X121219983Y-26292891D01*
X121219985Y-26292889D01*
X121223173Y-26290573D01*
X121342998Y-26157493D01*
X121422598Y-26019623D01*
X121430565Y-26005824D01*
X121430566Y-26005822D01*
X121432537Y-26002408D01*
X121487874Y-25832096D01*
X121506593Y-25654000D01*
X122333407Y-25654000D01*
X122352126Y-25832096D01*
X122407463Y-26002408D01*
X122409434Y-26005822D01*
X122409435Y-26005824D01*
X122417402Y-26019623D01*
X122497002Y-26157493D01*
X122616827Y-26290573D01*
X122620015Y-26292889D01*
X122620017Y-26292891D01*
X122758516Y-26393516D01*
X122758519Y-26393518D01*
X122761703Y-26395831D01*
X122925298Y-26468668D01*
X123100462Y-26505900D01*
X123279538Y-26505900D01*
X123454702Y-26468668D01*
X123618297Y-26395831D01*
X123621481Y-26393518D01*
X123621484Y-26393516D01*
X123759983Y-26292891D01*
X123759985Y-26292889D01*
X123763173Y-26290573D01*
X123882998Y-26157493D01*
X123962598Y-26019623D01*
X123970565Y-26005824D01*
X123970566Y-26005822D01*
X123972537Y-26002408D01*
X124027874Y-25832096D01*
X124046593Y-25654000D01*
X124873407Y-25654000D01*
X124892126Y-25832096D01*
X124947463Y-26002408D01*
X124949434Y-26005822D01*
X124949435Y-26005824D01*
X124957402Y-26019623D01*
X125037002Y-26157493D01*
X125156827Y-26290573D01*
X125160015Y-26292889D01*
X125160017Y-26292891D01*
X125298516Y-26393516D01*
X125298519Y-26393518D01*
X125301703Y-26395831D01*
X125465298Y-26468668D01*
X125640462Y-26505900D01*
X125819538Y-26505900D01*
X125994702Y-26468668D01*
X126158297Y-26395831D01*
X126161481Y-26393518D01*
X126161484Y-26393516D01*
X126299983Y-26292891D01*
X126299985Y-26292889D01*
X126303173Y-26290573D01*
X126422998Y-26157493D01*
X126502598Y-26019623D01*
X126510565Y-26005824D01*
X126510566Y-26005822D01*
X126512537Y-26002408D01*
X126567874Y-25832096D01*
X126586593Y-25654000D01*
X127413407Y-25654000D01*
X127432126Y-25832096D01*
X127487463Y-26002408D01*
X127489434Y-26005822D01*
X127489435Y-26005824D01*
X127497402Y-26019623D01*
X127577002Y-26157493D01*
X127696827Y-26290573D01*
X127700015Y-26292889D01*
X127700017Y-26292891D01*
X127838516Y-26393516D01*
X127838519Y-26393518D01*
X127841703Y-26395831D01*
X128005298Y-26468668D01*
X128180462Y-26505900D01*
X128359538Y-26505900D01*
X128534702Y-26468668D01*
X128666599Y-26409944D01*
X130418495Y-26409944D01*
X130423035Y-26413686D01*
X130541857Y-26466588D01*
X130549305Y-26469009D01*
X130716663Y-26504581D01*
X130724452Y-26505400D01*
X130895548Y-26505400D01*
X130903337Y-26504581D01*
X131070695Y-26469009D01*
X131078143Y-26466588D01*
X131194200Y-26414917D01*
X131201975Y-26407410D01*
X131199076Y-26402286D01*
X130819377Y-26022587D01*
X130809578Y-26018018D01*
X130803587Y-26019623D01*
X130423063Y-26400147D01*
X130418495Y-26409944D01*
X128666599Y-26409944D01*
X128698297Y-26395831D01*
X128701481Y-26393518D01*
X128701484Y-26393516D01*
X128839983Y-26292891D01*
X128839985Y-26292889D01*
X128843173Y-26290573D01*
X128962998Y-26157493D01*
X129042598Y-26019623D01*
X129050565Y-26005824D01*
X129050566Y-26005822D01*
X129052537Y-26002408D01*
X129107874Y-25832096D01*
X129126181Y-25657920D01*
X129954322Y-25657920D01*
X129972206Y-25828073D01*
X129973836Y-25835740D01*
X130026705Y-25998454D01*
X130029893Y-26005615D01*
X130048622Y-26038055D01*
X130056902Y-26045003D01*
X130059053Y-26045003D01*
X130061076Y-26043714D01*
X130441413Y-25663377D01*
X130445588Y-25654422D01*
X131174018Y-25654422D01*
X131175623Y-25660413D01*
X131555371Y-26040161D01*
X131565170Y-26044730D01*
X131567246Y-26044174D01*
X131568865Y-26042407D01*
X131590107Y-26005615D01*
X131593295Y-25998454D01*
X131646164Y-25835740D01*
X131647794Y-25828073D01*
X131665678Y-25657920D01*
X131665678Y-25650080D01*
X131647794Y-25479927D01*
X131646164Y-25472260D01*
X131593295Y-25309546D01*
X131590107Y-25302385D01*
X131571378Y-25269945D01*
X131563098Y-25262997D01*
X131560947Y-25262997D01*
X131558924Y-25264286D01*
X131178587Y-25644623D01*
X131174018Y-25654422D01*
X130445588Y-25654422D01*
X130445982Y-25653578D01*
X130444377Y-25647587D01*
X130064629Y-25267839D01*
X130054830Y-25263270D01*
X130052754Y-25263826D01*
X130051135Y-25265593D01*
X130029893Y-25302385D01*
X130026705Y-25309546D01*
X129973836Y-25472260D01*
X129972206Y-25479927D01*
X129954322Y-25650080D01*
X129954322Y-25657920D01*
X129126181Y-25657920D01*
X129126593Y-25654000D01*
X129107874Y-25475904D01*
X129052537Y-25305592D01*
X129043525Y-25289982D01*
X128964967Y-25153918D01*
X128962998Y-25150507D01*
X128843173Y-25017427D01*
X128839983Y-25015109D01*
X128701484Y-24914484D01*
X128701481Y-24914482D01*
X128698297Y-24912169D01*
X128672290Y-24900590D01*
X130418025Y-24900590D01*
X130420924Y-24905714D01*
X130800623Y-25285413D01*
X130810422Y-25289982D01*
X130816413Y-25288377D01*
X131196937Y-24907853D01*
X131201505Y-24898056D01*
X131196965Y-24894314D01*
X131078143Y-24841412D01*
X131070695Y-24838991D01*
X130903337Y-24803419D01*
X130895548Y-24802600D01*
X130724452Y-24802600D01*
X130716663Y-24803419D01*
X130549305Y-24838991D01*
X130541857Y-24841412D01*
X130425800Y-24893083D01*
X130418025Y-24900590D01*
X128672290Y-24900590D01*
X128534702Y-24839332D01*
X128359538Y-24802100D01*
X128180462Y-24802100D01*
X128005298Y-24839332D01*
X127841704Y-24912169D01*
X127838520Y-24914482D01*
X127838517Y-24914484D01*
X127700017Y-25015109D01*
X127696827Y-25017427D01*
X127577002Y-25150507D01*
X127575033Y-25153918D01*
X127496476Y-25289982D01*
X127487463Y-25305592D01*
X127432126Y-25475904D01*
X127413407Y-25654000D01*
X126586593Y-25654000D01*
X126567874Y-25475904D01*
X126512537Y-25305592D01*
X126503525Y-25289982D01*
X126424967Y-25153918D01*
X126422998Y-25150507D01*
X126303173Y-25017427D01*
X126299983Y-25015109D01*
X126161484Y-24914484D01*
X126161481Y-24914482D01*
X126158297Y-24912169D01*
X125994702Y-24839332D01*
X125819538Y-24802100D01*
X125640462Y-24802100D01*
X125465298Y-24839332D01*
X125301704Y-24912169D01*
X125298520Y-24914482D01*
X125298517Y-24914484D01*
X125160017Y-25015109D01*
X125156827Y-25017427D01*
X125037002Y-25150507D01*
X125035033Y-25153918D01*
X124956476Y-25289982D01*
X124947463Y-25305592D01*
X124892126Y-25475904D01*
X124873407Y-25654000D01*
X124046593Y-25654000D01*
X124027874Y-25475904D01*
X123972537Y-25305592D01*
X123963525Y-25289982D01*
X123884967Y-25153918D01*
X123882998Y-25150507D01*
X123763173Y-25017427D01*
X123759983Y-25015109D01*
X123621484Y-24914484D01*
X123621481Y-24914482D01*
X123618297Y-24912169D01*
X123454702Y-24839332D01*
X123279538Y-24802100D01*
X123100462Y-24802100D01*
X122925298Y-24839332D01*
X122761704Y-24912169D01*
X122758520Y-24914482D01*
X122758517Y-24914484D01*
X122620017Y-25015109D01*
X122616827Y-25017427D01*
X122497002Y-25150507D01*
X122495033Y-25153918D01*
X122416476Y-25289982D01*
X122407463Y-25305592D01*
X122352126Y-25475904D01*
X122333407Y-25654000D01*
X121506593Y-25654000D01*
X121487874Y-25475904D01*
X121432537Y-25305592D01*
X121423525Y-25289982D01*
X121344967Y-25153918D01*
X121342998Y-25150507D01*
X121223173Y-25017427D01*
X121219983Y-25015109D01*
X121081484Y-24914484D01*
X121081481Y-24914482D01*
X121078297Y-24912169D01*
X120914702Y-24839332D01*
X120739538Y-24802100D01*
X120560462Y-24802100D01*
X120385298Y-24839332D01*
X120221704Y-24912169D01*
X120218520Y-24914482D01*
X120218517Y-24914484D01*
X120080017Y-25015109D01*
X120076827Y-25017427D01*
X119957002Y-25150507D01*
X119955033Y-25153918D01*
X119876476Y-25289982D01*
X119867463Y-25305592D01*
X119812126Y-25475904D01*
X119793407Y-25654000D01*
X118966593Y-25654000D01*
X118947874Y-25475904D01*
X118892537Y-25305592D01*
X118883525Y-25289982D01*
X118804967Y-25153918D01*
X118802998Y-25150507D01*
X118683173Y-25017427D01*
X118679983Y-25015109D01*
X118541484Y-24914484D01*
X118541481Y-24914482D01*
X118538297Y-24912169D01*
X118374702Y-24839332D01*
X118199538Y-24802100D01*
X118020462Y-24802100D01*
X117845298Y-24839332D01*
X117681704Y-24912169D01*
X117678520Y-24914482D01*
X117678517Y-24914484D01*
X117540017Y-25015109D01*
X117536827Y-25017427D01*
X117417002Y-25150507D01*
X117415033Y-25153918D01*
X117336476Y-25289982D01*
X117327463Y-25305592D01*
X117272126Y-25475904D01*
X117253407Y-25654000D01*
X116484900Y-25654000D01*
X116484900Y-24104100D01*
X116502493Y-24055762D01*
X116547042Y-24030042D01*
X116560100Y-24028900D01*
X133440000Y-24028900D01*
X133440000Y-24802198D01*
G37*
%TD.AperFunction*%
%TD*%
%TA.AperFunction,Conductor*%
%TO.N,GND*%
G36*
X145034000Y-47070000D02*
G01*
X133240000Y-47070000D01*
X133240000Y-29041551D01*
X133260462Y-29045900D01*
X133439538Y-29045900D01*
X133614702Y-29008668D01*
X133778297Y-28935831D01*
X133781481Y-28933518D01*
X133781484Y-28933516D01*
X133919983Y-28832891D01*
X133919985Y-28832889D01*
X133923173Y-28830573D01*
X134042998Y-28697493D01*
X134122598Y-28559623D01*
X134130565Y-28545824D01*
X134130566Y-28545822D01*
X134132537Y-28542408D01*
X134187874Y-28372096D01*
X134206593Y-28194000D01*
X135033407Y-28194000D01*
X135052126Y-28372096D01*
X135107463Y-28542408D01*
X135109434Y-28545822D01*
X135109435Y-28545824D01*
X135117402Y-28559623D01*
X135197002Y-28697493D01*
X135316827Y-28830573D01*
X135320015Y-28832889D01*
X135320017Y-28832891D01*
X135458516Y-28933516D01*
X135458519Y-28933518D01*
X135461703Y-28935831D01*
X135625298Y-29008668D01*
X135800462Y-29045900D01*
X135979538Y-29045900D01*
X136154702Y-29008668D01*
X136318297Y-28935831D01*
X136321481Y-28933518D01*
X136321484Y-28933516D01*
X136459983Y-28832891D01*
X136459985Y-28832889D01*
X136463173Y-28830573D01*
X136582998Y-28697493D01*
X136662598Y-28559623D01*
X136670565Y-28545824D01*
X136670566Y-28545822D01*
X136672537Y-28542408D01*
X136727874Y-28372096D01*
X136746593Y-28194000D01*
X137573407Y-28194000D01*
X137592126Y-28372096D01*
X137647463Y-28542408D01*
X137649434Y-28545822D01*
X137649435Y-28545824D01*
X137657402Y-28559623D01*
X137737002Y-28697493D01*
X137856827Y-28830573D01*
X137860015Y-28832889D01*
X137860017Y-28832891D01*
X137998516Y-28933516D01*
X137998519Y-28933518D01*
X138001703Y-28935831D01*
X138165298Y-29008668D01*
X138340462Y-29045900D01*
X138519538Y-29045900D01*
X138694702Y-29008668D01*
X138858297Y-28935831D01*
X138861481Y-28933518D01*
X138861484Y-28933516D01*
X138999983Y-28832891D01*
X138999985Y-28832889D01*
X139003173Y-28830573D01*
X139122998Y-28697493D01*
X139202598Y-28559623D01*
X139210565Y-28545824D01*
X139210566Y-28545822D01*
X139212537Y-28542408D01*
X139267874Y-28372096D01*
X139286593Y-28194000D01*
X140113407Y-28194000D01*
X140132126Y-28372096D01*
X140187463Y-28542408D01*
X140189434Y-28545822D01*
X140189435Y-28545824D01*
X140197402Y-28559623D01*
X140277002Y-28697493D01*
X140396827Y-28830573D01*
X140400015Y-28832889D01*
X140400017Y-28832891D01*
X140538516Y-28933516D01*
X140538519Y-28933518D01*
X140541703Y-28935831D01*
X140705298Y-29008668D01*
X140880462Y-29045900D01*
X141059538Y-29045900D01*
X141234702Y-29008668D01*
X141366599Y-28949944D01*
X143118495Y-28949944D01*
X143123035Y-28953686D01*
X143241857Y-29006588D01*
X143249305Y-29009009D01*
X143416663Y-29044581D01*
X143424452Y-29045400D01*
X143595548Y-29045400D01*
X143603337Y-29044581D01*
X143770695Y-29009009D01*
X143778143Y-29006588D01*
X143894200Y-28954917D01*
X143901975Y-28947410D01*
X143899076Y-28942286D01*
X143519377Y-28562587D01*
X143509578Y-28558018D01*
X143503587Y-28559623D01*
X143123063Y-28940147D01*
X143118495Y-28949944D01*
X141366599Y-28949944D01*
X141398297Y-28935831D01*
X141401481Y-28933518D01*
X141401484Y-28933516D01*
X141539983Y-28832891D01*
X141539985Y-28832889D01*
X141543173Y-28830573D01*
X141662998Y-28697493D01*
X141742598Y-28559623D01*
X141750565Y-28545824D01*
X141750566Y-28545822D01*
X141752537Y-28542408D01*
X141807874Y-28372096D01*
X141826181Y-28197920D01*
X142654322Y-28197920D01*
X142672206Y-28368073D01*
X142673836Y-28375740D01*
X142726705Y-28538454D01*
X142729893Y-28545615D01*
X142748622Y-28578055D01*
X142756902Y-28585003D01*
X142759053Y-28585003D01*
X142761076Y-28583714D01*
X143141413Y-28203377D01*
X143145588Y-28194422D01*
X143874018Y-28194422D01*
X143875623Y-28200413D01*
X144255371Y-28580161D01*
X144265170Y-28584730D01*
X144267246Y-28584174D01*
X144268865Y-28582407D01*
X144290107Y-28545615D01*
X144293295Y-28538454D01*
X144346164Y-28375740D01*
X144347794Y-28368073D01*
X144365678Y-28197920D01*
X144365678Y-28190080D01*
X144347794Y-28019927D01*
X144346164Y-28012260D01*
X144293295Y-27849546D01*
X144290107Y-27842385D01*
X144271378Y-27809945D01*
X144263098Y-27802997D01*
X144260947Y-27802997D01*
X144258924Y-27804286D01*
X143878587Y-28184623D01*
X143874018Y-28194422D01*
X143145588Y-28194422D01*
X143145982Y-28193578D01*
X143144377Y-28187587D01*
X142764629Y-27807839D01*
X142754830Y-27803270D01*
X142752754Y-27803826D01*
X142751135Y-27805593D01*
X142729893Y-27842385D01*
X142726705Y-27849546D01*
X142673836Y-28012260D01*
X142672206Y-28019927D01*
X142654322Y-28190080D01*
X142654322Y-28197920D01*
X141826181Y-28197920D01*
X141826593Y-28194000D01*
X141807874Y-28015904D01*
X141752537Y-27845592D01*
X141743525Y-27829982D01*
X141664967Y-27693918D01*
X141662998Y-27690507D01*
X141543173Y-27557427D01*
X141539983Y-27555109D01*
X141401484Y-27454484D01*
X141401481Y-27454482D01*
X141398297Y-27452169D01*
X141372290Y-27440590D01*
X143118025Y-27440590D01*
X143120924Y-27445714D01*
X143500623Y-27825413D01*
X143510422Y-27829982D01*
X143516413Y-27828377D01*
X143896937Y-27447853D01*
X143901505Y-27438056D01*
X143896965Y-27434314D01*
X143778143Y-27381412D01*
X143770695Y-27378991D01*
X143603337Y-27343419D01*
X143595548Y-27342600D01*
X143424452Y-27342600D01*
X143416663Y-27343419D01*
X143249305Y-27378991D01*
X143241857Y-27381412D01*
X143125800Y-27433083D01*
X143118025Y-27440590D01*
X141372290Y-27440590D01*
X141234702Y-27379332D01*
X141059538Y-27342100D01*
X140880462Y-27342100D01*
X140705298Y-27379332D01*
X140541704Y-27452169D01*
X140538520Y-27454482D01*
X140538517Y-27454484D01*
X140400017Y-27555109D01*
X140396827Y-27557427D01*
X140277002Y-27690507D01*
X140275033Y-27693918D01*
X140196476Y-27829982D01*
X140187463Y-27845592D01*
X140132126Y-28015904D01*
X140113407Y-28194000D01*
X139286593Y-28194000D01*
X139267874Y-28015904D01*
X139212537Y-27845592D01*
X139203525Y-27829982D01*
X139124967Y-27693918D01*
X139122998Y-27690507D01*
X139003173Y-27557427D01*
X138999983Y-27555109D01*
X138861484Y-27454484D01*
X138861481Y-27454482D01*
X138858297Y-27452169D01*
X138694702Y-27379332D01*
X138519538Y-27342100D01*
X138340462Y-27342100D01*
X138165298Y-27379332D01*
X138001704Y-27452169D01*
X137998520Y-27454482D01*
X137998517Y-27454484D01*
X137860017Y-27555109D01*
X137856827Y-27557427D01*
X137737002Y-27690507D01*
X137735033Y-27693918D01*
X137656476Y-27829982D01*
X137647463Y-27845592D01*
X137592126Y-28015904D01*
X137573407Y-28194000D01*
X136746593Y-28194000D01*
X136727874Y-28015904D01*
X136672537Y-27845592D01*
X136663525Y-27829982D01*
X136584967Y-27693918D01*
X136582998Y-27690507D01*
X136463173Y-27557427D01*
X136459983Y-27555109D01*
X136321484Y-27454484D01*
X136321481Y-27454482D01*
X136318297Y-27452169D01*
X136154702Y-27379332D01*
X135979538Y-27342100D01*
X135800462Y-27342100D01*
X135625298Y-27379332D01*
X135461704Y-27452169D01*
X135458520Y-27454482D01*
X135458517Y-27454484D01*
X135320017Y-27555109D01*
X135316827Y-27557427D01*
X135197002Y-27690507D01*
X135195033Y-27693918D01*
X135116476Y-27829982D01*
X135107463Y-27845592D01*
X135052126Y-28015904D01*
X135033407Y-28194000D01*
X134206593Y-28194000D01*
X134187874Y-28015904D01*
X134132537Y-27845592D01*
X134123525Y-27829982D01*
X134044967Y-27693918D01*
X134042998Y-27690507D01*
X133923173Y-27557427D01*
X133919983Y-27555109D01*
X133781484Y-27454484D01*
X133781481Y-27454482D01*
X133778297Y-27452169D01*
X133614702Y-27379332D01*
X133439538Y-27342100D01*
X133260462Y-27342100D01*
X133240000Y-27346449D01*
X133240000Y-26501551D01*
X133260462Y-26505900D01*
X133439538Y-26505900D01*
X133614702Y-26468668D01*
X133778297Y-26395831D01*
X133781481Y-26393518D01*
X133781484Y-26393516D01*
X133919983Y-26292891D01*
X133919985Y-26292889D01*
X133923173Y-26290573D01*
X134042998Y-26157493D01*
X134122598Y-26019623D01*
X134130565Y-26005824D01*
X134130566Y-26005822D01*
X134132537Y-26002408D01*
X134187874Y-25832096D01*
X134206593Y-25654000D01*
X135033407Y-25654000D01*
X135052126Y-25832096D01*
X135107463Y-26002408D01*
X135109434Y-26005822D01*
X135109435Y-26005824D01*
X135117402Y-26019623D01*
X135197002Y-26157493D01*
X135316827Y-26290573D01*
X135320015Y-26292889D01*
X135320017Y-26292891D01*
X135458516Y-26393516D01*
X135458519Y-26393518D01*
X135461703Y-26395831D01*
X135625298Y-26468668D01*
X135800462Y-26505900D01*
X135979538Y-26505900D01*
X136154702Y-26468668D01*
X136318297Y-26395831D01*
X136321481Y-26393518D01*
X136321484Y-26393516D01*
X136459983Y-26292891D01*
X136459985Y-26292889D01*
X136463173Y-26290573D01*
X136582998Y-26157493D01*
X136662598Y-26019623D01*
X136670565Y-26005824D01*
X136670566Y-26005822D01*
X136672537Y-26002408D01*
X136727874Y-25832096D01*
X136746593Y-25654000D01*
X137573407Y-25654000D01*
X137592126Y-25832096D01*
X137647463Y-26002408D01*
X137649434Y-26005822D01*
X137649435Y-26005824D01*
X137657402Y-26019623D01*
X137737002Y-26157493D01*
X137856827Y-26290573D01*
X137860015Y-26292889D01*
X137860017Y-26292891D01*
X137998516Y-26393516D01*
X137998519Y-26393518D01*
X138001703Y-26395831D01*
X138165298Y-26468668D01*
X138340462Y-26505900D01*
X138519538Y-26505900D01*
X138694702Y-26468668D01*
X138858297Y-26395831D01*
X138861481Y-26393518D01*
X138861484Y-26393516D01*
X138999983Y-26292891D01*
X138999985Y-26292889D01*
X139003173Y-26290573D01*
X139122998Y-26157493D01*
X139202598Y-26019623D01*
X139210565Y-26005824D01*
X139210566Y-26005822D01*
X139212537Y-26002408D01*
X139267874Y-25832096D01*
X139286593Y-25654000D01*
X140113407Y-25654000D01*
X140132126Y-25832096D01*
X140187463Y-26002408D01*
X140189434Y-26005822D01*
X140189435Y-26005824D01*
X140197402Y-26019623D01*
X140277002Y-26157493D01*
X140396827Y-26290573D01*
X140400015Y-26292889D01*
X140400017Y-26292891D01*
X140538516Y-26393516D01*
X140538519Y-26393518D01*
X140541703Y-26395831D01*
X140705298Y-26468668D01*
X140880462Y-26505900D01*
X141059538Y-26505900D01*
X141234702Y-26468668D01*
X141366599Y-26409944D01*
X143118495Y-26409944D01*
X143123035Y-26413686D01*
X143241857Y-26466588D01*
X143249305Y-26469009D01*
X143416663Y-26504581D01*
X143424452Y-26505400D01*
X143595548Y-26505400D01*
X143603337Y-26504581D01*
X143770695Y-26469009D01*
X143778143Y-26466588D01*
X143894200Y-26414917D01*
X143901975Y-26407410D01*
X143899076Y-26402286D01*
X143519377Y-26022587D01*
X143509578Y-26018018D01*
X143503587Y-26019623D01*
X143123063Y-26400147D01*
X143118495Y-26409944D01*
X141366599Y-26409944D01*
X141398297Y-26395831D01*
X141401481Y-26393518D01*
X141401484Y-26393516D01*
X141539983Y-26292891D01*
X141539985Y-26292889D01*
X141543173Y-26290573D01*
X141662998Y-26157493D01*
X141742598Y-26019623D01*
X141750565Y-26005824D01*
X141750566Y-26005822D01*
X141752537Y-26002408D01*
X141807874Y-25832096D01*
X141826181Y-25657920D01*
X142654322Y-25657920D01*
X142672206Y-25828073D01*
X142673836Y-25835740D01*
X142726705Y-25998454D01*
X142729893Y-26005615D01*
X142748622Y-26038055D01*
X142756902Y-26045003D01*
X142759053Y-26045003D01*
X142761076Y-26043714D01*
X143141413Y-25663377D01*
X143145588Y-25654422D01*
X143874018Y-25654422D01*
X143875623Y-25660413D01*
X144255371Y-26040161D01*
X144265170Y-26044730D01*
X144267246Y-26044174D01*
X144268865Y-26042407D01*
X144290107Y-26005615D01*
X144293295Y-25998454D01*
X144346164Y-25835740D01*
X144347794Y-25828073D01*
X144365678Y-25657920D01*
X144365678Y-25650080D01*
X144347794Y-25479927D01*
X144346164Y-25472260D01*
X144293295Y-25309546D01*
X144290107Y-25302385D01*
X144271378Y-25269945D01*
X144263098Y-25262997D01*
X144260947Y-25262997D01*
X144258924Y-25264286D01*
X143878587Y-25644623D01*
X143874018Y-25654422D01*
X143145588Y-25654422D01*
X143145982Y-25653578D01*
X143144377Y-25647587D01*
X142764629Y-25267839D01*
X142754830Y-25263270D01*
X142752754Y-25263826D01*
X142751135Y-25265593D01*
X142729893Y-25302385D01*
X142726705Y-25309546D01*
X142673836Y-25472260D01*
X142672206Y-25479927D01*
X142654322Y-25650080D01*
X142654322Y-25657920D01*
X141826181Y-25657920D01*
X141826593Y-25654000D01*
X141807874Y-25475904D01*
X141752537Y-25305592D01*
X141743525Y-25289982D01*
X141664967Y-25153918D01*
X141662998Y-25150507D01*
X141543173Y-25017427D01*
X141539983Y-25015109D01*
X141401484Y-24914484D01*
X141401481Y-24914482D01*
X141398297Y-24912169D01*
X141372290Y-24900590D01*
X143118025Y-24900590D01*
X143120924Y-24905714D01*
X143500623Y-25285413D01*
X143510422Y-25289982D01*
X143516413Y-25288377D01*
X143896937Y-24907853D01*
X143901505Y-24898056D01*
X143896965Y-24894314D01*
X143778143Y-24841412D01*
X143770695Y-24838991D01*
X143603337Y-24803419D01*
X143595548Y-24802600D01*
X143424452Y-24802600D01*
X143416663Y-24803419D01*
X143249305Y-24838991D01*
X143241857Y-24841412D01*
X143125800Y-24893083D01*
X143118025Y-24900590D01*
X141372290Y-24900590D01*
X141234702Y-24839332D01*
X141059538Y-24802100D01*
X140880462Y-24802100D01*
X140705298Y-24839332D01*
X140541704Y-24912169D01*
X140538520Y-24914482D01*
X140538517Y-24914484D01*
X140400017Y-25015109D01*
X140396827Y-25017427D01*
X140277002Y-25150507D01*
X140275033Y-25153918D01*
X140196476Y-25289982D01*
X140187463Y-25305592D01*
X140132126Y-25475904D01*
X140113407Y-25654000D01*
X139286593Y-25654000D01*
X139267874Y-25475904D01*
X139212537Y-25305592D01*
X139203525Y-25289982D01*
X139124967Y-25153918D01*
X139122998Y-25150507D01*
X139003173Y-25017427D01*
X138999983Y-25015109D01*
X138861484Y-24914484D01*
X138861481Y-24914482D01*
X138858297Y-24912169D01*
X138694702Y-24839332D01*
X138519538Y-24802100D01*
X138340462Y-24802100D01*
X138165298Y-24839332D01*
X138001704Y-24912169D01*
X137998520Y-24914482D01*
X137998517Y-24914484D01*
X137860017Y-25015109D01*
X137856827Y-25017427D01*
X137737002Y-25150507D01*
X137735033Y-25153918D01*
X137656476Y-25289982D01*
X137647463Y-25305592D01*
X137592126Y-25475904D01*
X137573407Y-25654000D01*
X136746593Y-25654000D01*
X136727874Y-25475904D01*
X136672537Y-25305592D01*
X136663525Y-25289982D01*
X136584967Y-25153918D01*
X136582998Y-25150507D01*
X136463173Y-25017427D01*
X136459983Y-25015109D01*
X136321484Y-24914484D01*
X136321481Y-24914482D01*
X136318297Y-24912169D01*
X136154702Y-24839332D01*
X135979538Y-24802100D01*
X135800462Y-24802100D01*
X135625298Y-24839332D01*
X135461704Y-24912169D01*
X135458520Y-24914482D01*
X135458517Y-24914484D01*
X135320017Y-25015109D01*
X135316827Y-25017427D01*
X135197002Y-25150507D01*
X135195033Y-25153918D01*
X135116476Y-25289982D01*
X135107463Y-25305592D01*
X135052126Y-25475904D01*
X135033407Y-25654000D01*
X134206593Y-25654000D01*
X134187874Y-25475904D01*
X134132537Y-25305592D01*
X134123525Y-25289982D01*
X134044967Y-25153918D01*
X134042998Y-25150507D01*
X133923173Y-25017427D01*
X133919983Y-25015109D01*
X133781484Y-24914484D01*
X133781481Y-24914482D01*
X133778297Y-24912169D01*
X133614702Y-24839332D01*
X133439538Y-24802100D01*
X133260462Y-24802100D01*
X133240000Y-24806449D01*
X133240000Y-24028900D01*
X145034000Y-24028900D01*
X145034000Y-47070000D01*
G37*
%TD.AperFunction*%
%TD*%
%TA.AperFunction,Conductor*%
%TO.N,GND*%
G36*
X158750000Y-47070000D02*
G01*
X144924000Y-47070000D01*
X144924000Y-41148000D01*
X158750000Y-41148000D01*
X158750000Y-47070000D01*
G37*
%TD.AperFunction*%
%TD*%
%TA.AperFunction,Conductor*%
%TO.N,GND*%
G36*
X154940000Y-41228000D02*
G01*
X144924000Y-41228000D01*
X144924000Y-37338000D01*
X150876000Y-37338000D01*
X154940000Y-41228000D01*
G37*
%TD.AperFunction*%
%TD*%
%TA.AperFunction,Conductor*%
%TO.N,GND*%
G36*
X150876000Y-37338000D02*
G01*
X144924000Y-37418000D01*
X144924000Y-34036000D01*
X147574000Y-34036000D01*
X150876000Y-37338000D01*
G37*
%TD.AperFunction*%
%TD*%
%TA.AperFunction,Conductor*%
%TO.N,GND*%
G36*
X147574000Y-34036000D02*
G01*
X144780000Y-34036000D01*
X144780000Y-31242000D01*
X147574000Y-34036000D01*
G37*
%TD.AperFunction*%
%TD*%
%TA.AperFunction,Conductor*%
%TO.N,GND*%
G36*
X149990638Y-24244093D02*
G01*
X150016358Y-24288642D01*
X150017500Y-24301700D01*
X150017500Y-31477317D01*
X150017219Y-31483806D01*
X150014285Y-31517684D01*
X150014285Y-31517688D01*
X150013749Y-31523880D01*
X150015247Y-31529910D01*
X150015247Y-31529912D01*
X150023780Y-31564262D01*
X150024977Y-31570044D01*
X150030790Y-31604966D01*
X150030791Y-31604969D01*
X150031812Y-31611103D01*
X150034765Y-31616575D01*
X150036482Y-31621590D01*
X150038282Y-31626243D01*
X150040383Y-31631098D01*
X150041880Y-31637125D01*
X150045249Y-31642343D01*
X150045251Y-31642347D01*
X150064450Y-31672081D01*
X150067455Y-31677162D01*
X150084270Y-31708324D01*
X150084272Y-31708326D01*
X150087222Y-31713794D01*
X150091784Y-31718011D01*
X150095008Y-31722168D01*
X150098257Y-31726033D01*
X150101802Y-31729929D01*
X150105175Y-31735152D01*
X150137870Y-31760927D01*
X150142335Y-31764741D01*
X150172907Y-31793001D01*
X150178595Y-31795515D01*
X150183009Y-31798415D01*
X150187284Y-31800989D01*
X150191927Y-31803542D01*
X150196811Y-31807392D01*
X150202677Y-31809452D01*
X150236079Y-31821182D01*
X150241563Y-31823353D01*
X150256598Y-31830000D01*
X144924000Y-31830000D01*
X144924000Y-28179276D01*
X144995525Y-28179276D01*
X144995833Y-28182944D01*
X144995833Y-28182947D01*
X144997300Y-28200413D01*
X145012747Y-28384372D01*
X145013761Y-28387908D01*
X145063000Y-28559623D01*
X145069478Y-28582216D01*
X145163557Y-28765274D01*
X145291400Y-28926571D01*
X145294194Y-28928949D01*
X145294195Y-28928950D01*
X145330633Y-28959961D01*
X145448138Y-29059966D01*
X145451339Y-29061755D01*
X145451342Y-29061757D01*
X145487821Y-29082144D01*
X145627801Y-29160376D01*
X145823545Y-29223977D01*
X145936064Y-29237394D01*
X146024257Y-29247911D01*
X146024259Y-29247911D01*
X146027915Y-29248347D01*
X146233126Y-29232557D01*
X146387884Y-29189347D01*
X146427823Y-29178196D01*
X146427824Y-29178195D01*
X146431361Y-29177208D01*
X146434635Y-29175554D01*
X146434638Y-29175553D01*
X146519160Y-29132858D01*
X146615071Y-29084410D01*
X146617969Y-29082146D01*
X146617972Y-29082144D01*
X146774360Y-28959961D01*
X146774365Y-28959956D01*
X146777258Y-28957696D01*
X146783949Y-28949944D01*
X148198495Y-28949944D01*
X148203035Y-28953686D01*
X148321857Y-29006588D01*
X148329305Y-29009009D01*
X148496663Y-29044581D01*
X148504452Y-29045400D01*
X148675548Y-29045400D01*
X148683337Y-29044581D01*
X148850695Y-29009009D01*
X148858143Y-29006588D01*
X148974200Y-28954917D01*
X148981975Y-28947410D01*
X148979076Y-28942286D01*
X148599377Y-28562587D01*
X148589578Y-28558018D01*
X148583587Y-28559623D01*
X148203063Y-28940147D01*
X148198495Y-28949944D01*
X146783949Y-28949944D01*
X146804124Y-28926571D01*
X146909338Y-28804680D01*
X146909341Y-28804676D01*
X146911743Y-28801893D01*
X147013405Y-28622936D01*
X147078371Y-28427640D01*
X147083391Y-28387908D01*
X147103903Y-28225536D01*
X147103903Y-28225535D01*
X147104167Y-28223446D01*
X147104447Y-28203377D01*
X147104523Y-28197920D01*
X147734322Y-28197920D01*
X147752206Y-28368073D01*
X147753836Y-28375740D01*
X147806705Y-28538454D01*
X147809893Y-28545615D01*
X147828622Y-28578055D01*
X147836902Y-28585003D01*
X147839053Y-28585003D01*
X147841076Y-28583714D01*
X148221413Y-28203377D01*
X148225588Y-28194422D01*
X148954018Y-28194422D01*
X148955623Y-28200413D01*
X149335371Y-28580161D01*
X149345170Y-28584730D01*
X149347246Y-28584174D01*
X149348865Y-28582407D01*
X149370107Y-28545615D01*
X149373295Y-28538454D01*
X149426164Y-28375740D01*
X149427794Y-28368073D01*
X149445678Y-28197920D01*
X149445678Y-28190080D01*
X149427794Y-28019927D01*
X149426164Y-28012260D01*
X149373295Y-27849546D01*
X149370107Y-27842385D01*
X149351378Y-27809945D01*
X149343098Y-27802997D01*
X149340947Y-27802997D01*
X149338924Y-27804286D01*
X148958587Y-28184623D01*
X148954018Y-28194422D01*
X148225588Y-28194422D01*
X148225982Y-28193578D01*
X148224377Y-28187587D01*
X147844629Y-27807839D01*
X147834830Y-27803270D01*
X147832754Y-27803826D01*
X147831135Y-27805593D01*
X147809893Y-27842385D01*
X147806705Y-27849546D01*
X147753836Y-28012260D01*
X147752206Y-28019927D01*
X147734322Y-28190080D01*
X147734322Y-28197920D01*
X147104523Y-28197920D01*
X147104549Y-28196099D01*
X147104549Y-28196094D01*
X147104578Y-28194000D01*
X147103494Y-28182947D01*
X147084854Y-27992832D01*
X147084853Y-27992827D01*
X147084494Y-27989165D01*
X147025006Y-27792132D01*
X146928380Y-27610405D01*
X146798298Y-27450908D01*
X146794606Y-27447853D01*
X146785826Y-27440590D01*
X148198025Y-27440590D01*
X148200924Y-27445714D01*
X148580623Y-27825413D01*
X148590422Y-27829982D01*
X148596413Y-27828377D01*
X148976937Y-27447853D01*
X148981505Y-27438056D01*
X148976965Y-27434314D01*
X148858143Y-27381412D01*
X148850695Y-27378991D01*
X148683337Y-27343419D01*
X148675548Y-27342600D01*
X148504452Y-27342600D01*
X148496663Y-27343419D01*
X148329305Y-27378991D01*
X148321857Y-27381412D01*
X148205800Y-27433083D01*
X148198025Y-27440590D01*
X146785826Y-27440590D01*
X146642544Y-27322057D01*
X146639713Y-27319715D01*
X146458665Y-27221823D01*
X146262052Y-27160961D01*
X146159707Y-27150204D01*
X146061018Y-27139832D01*
X146061015Y-27139832D01*
X146057362Y-27139448D01*
X145954877Y-27148774D01*
X145856050Y-27157768D01*
X145856049Y-27157768D01*
X145852392Y-27158101D01*
X145848867Y-27159138D01*
X145848864Y-27159139D01*
X145658477Y-27215173D01*
X145658474Y-27215174D01*
X145654948Y-27216212D01*
X145651691Y-27217915D01*
X145651688Y-27217916D01*
X145475811Y-27309863D01*
X145472552Y-27311567D01*
X145469686Y-27313871D01*
X145469685Y-27313872D01*
X145315020Y-27438225D01*
X145315017Y-27438228D01*
X145312150Y-27440533D01*
X145309787Y-27443349D01*
X145309784Y-27443352D01*
X145182217Y-27595380D01*
X145182214Y-27595384D01*
X145179853Y-27598198D01*
X145178082Y-27601420D01*
X145178081Y-27601421D01*
X145173142Y-27610405D01*
X145080700Y-27778558D01*
X145018467Y-27974741D01*
X144995525Y-28179276D01*
X144924000Y-28179276D01*
X144924000Y-25639276D01*
X144995525Y-25639276D01*
X144995833Y-25642944D01*
X144995833Y-25642947D01*
X144997300Y-25660413D01*
X145012747Y-25844372D01*
X145013761Y-25847908D01*
X145063000Y-26019623D01*
X145069478Y-26042216D01*
X145163557Y-26225274D01*
X145291400Y-26386571D01*
X145294194Y-26388949D01*
X145294195Y-26388950D01*
X145330633Y-26419961D01*
X145448138Y-26519966D01*
X145451339Y-26521755D01*
X145451342Y-26521757D01*
X145487821Y-26542144D01*
X145627801Y-26620376D01*
X145823545Y-26683977D01*
X145936064Y-26697394D01*
X146024257Y-26707911D01*
X146024259Y-26707911D01*
X146027915Y-26708347D01*
X146233126Y-26692557D01*
X146387884Y-26649347D01*
X146427823Y-26638196D01*
X146427824Y-26638195D01*
X146431361Y-26637208D01*
X146434635Y-26635554D01*
X146434638Y-26635553D01*
X146519160Y-26592858D01*
X146615071Y-26544410D01*
X146617969Y-26542146D01*
X146617972Y-26542144D01*
X146774360Y-26419961D01*
X146774365Y-26419956D01*
X146777258Y-26417696D01*
X146783949Y-26409944D01*
X148198495Y-26409944D01*
X148203035Y-26413686D01*
X148321857Y-26466588D01*
X148329305Y-26469009D01*
X148496663Y-26504581D01*
X148504452Y-26505400D01*
X148675548Y-26505400D01*
X148683337Y-26504581D01*
X148850695Y-26469009D01*
X148858143Y-26466588D01*
X148974200Y-26414917D01*
X148981975Y-26407410D01*
X148979076Y-26402286D01*
X148599377Y-26022587D01*
X148589578Y-26018018D01*
X148583587Y-26019623D01*
X148203063Y-26400147D01*
X148198495Y-26409944D01*
X146783949Y-26409944D01*
X146804124Y-26386571D01*
X146909338Y-26264680D01*
X146909341Y-26264676D01*
X146911743Y-26261893D01*
X147013405Y-26082936D01*
X147078371Y-25887640D01*
X147083391Y-25847908D01*
X147103903Y-25685536D01*
X147103903Y-25685535D01*
X147104167Y-25683446D01*
X147104447Y-25663377D01*
X147104523Y-25657920D01*
X147734322Y-25657920D01*
X147752206Y-25828073D01*
X147753836Y-25835740D01*
X147806705Y-25998454D01*
X147809893Y-26005615D01*
X147828622Y-26038055D01*
X147836902Y-26045003D01*
X147839053Y-26045003D01*
X147841076Y-26043714D01*
X148221413Y-25663377D01*
X148225588Y-25654422D01*
X148954018Y-25654422D01*
X148955623Y-25660413D01*
X149335371Y-26040161D01*
X149345170Y-26044730D01*
X149347246Y-26044174D01*
X149348865Y-26042407D01*
X149370107Y-26005615D01*
X149373295Y-25998454D01*
X149426164Y-25835740D01*
X149427794Y-25828073D01*
X149445678Y-25657920D01*
X149445678Y-25650080D01*
X149427794Y-25479927D01*
X149426164Y-25472260D01*
X149373295Y-25309546D01*
X149370107Y-25302385D01*
X149351378Y-25269945D01*
X149343098Y-25262997D01*
X149340947Y-25262997D01*
X149338924Y-25264286D01*
X148958587Y-25644623D01*
X148954018Y-25654422D01*
X148225588Y-25654422D01*
X148225982Y-25653578D01*
X148224377Y-25647587D01*
X147844629Y-25267839D01*
X147834830Y-25263270D01*
X147832754Y-25263826D01*
X147831135Y-25265593D01*
X147809893Y-25302385D01*
X147806705Y-25309546D01*
X147753836Y-25472260D01*
X147752206Y-25479927D01*
X147734322Y-25650080D01*
X147734322Y-25657920D01*
X147104523Y-25657920D01*
X147104549Y-25656099D01*
X147104549Y-25656094D01*
X147104578Y-25654000D01*
X147103494Y-25642947D01*
X147084854Y-25452832D01*
X147084853Y-25452827D01*
X147084494Y-25449165D01*
X147025006Y-25252132D01*
X146928380Y-25070405D01*
X146798298Y-24910908D01*
X146794606Y-24907853D01*
X146785826Y-24900590D01*
X148198025Y-24900590D01*
X148200924Y-24905714D01*
X148580623Y-25285413D01*
X148590422Y-25289982D01*
X148596413Y-25288377D01*
X148976937Y-24907853D01*
X148981505Y-24898056D01*
X148976965Y-24894314D01*
X148858143Y-24841412D01*
X148850695Y-24838991D01*
X148683337Y-24803419D01*
X148675548Y-24802600D01*
X148504452Y-24802600D01*
X148496663Y-24803419D01*
X148329305Y-24838991D01*
X148321857Y-24841412D01*
X148205800Y-24893083D01*
X148198025Y-24900590D01*
X146785826Y-24900590D01*
X146642544Y-24782057D01*
X146639713Y-24779715D01*
X146458665Y-24681823D01*
X146262052Y-24620961D01*
X146159707Y-24610205D01*
X146061018Y-24599832D01*
X146061015Y-24599832D01*
X146057362Y-24599448D01*
X145954877Y-24608775D01*
X145856050Y-24617768D01*
X145856049Y-24617768D01*
X145852392Y-24618101D01*
X145848867Y-24619138D01*
X145848864Y-24619139D01*
X145658477Y-24675173D01*
X145658474Y-24675174D01*
X145654948Y-24676212D01*
X145651691Y-24677915D01*
X145651688Y-24677916D01*
X145475811Y-24769863D01*
X145472552Y-24771567D01*
X145469686Y-24773871D01*
X145469685Y-24773872D01*
X145315020Y-24898225D01*
X145315017Y-24898228D01*
X145312150Y-24900533D01*
X145309787Y-24903349D01*
X145309784Y-24903352D01*
X145182217Y-25055380D01*
X145182214Y-25055384D01*
X145179853Y-25058198D01*
X145178082Y-25061420D01*
X145178081Y-25061421D01*
X145173142Y-25070405D01*
X145080700Y-25238558D01*
X145018467Y-25434741D01*
X144995525Y-25639276D01*
X144924000Y-25639276D01*
X144924000Y-24226500D01*
X149942300Y-24226500D01*
X149990638Y-24244093D01*
G37*
%TD.AperFunction*%
%TD*%
%TA.AperFunction,Conductor*%
%TO.N,GND*%
G36*
X169802638Y-31864093D02*
G01*
X169828358Y-31908642D01*
X169829500Y-31921700D01*
X169829500Y-46990000D01*
X158640000Y-46990000D01*
X158640000Y-31921700D01*
X158657593Y-31873362D01*
X158702142Y-31847642D01*
X158715200Y-31846500D01*
X169754300Y-31846500D01*
X169802638Y-31864093D01*
G37*
%TD.AperFunction*%
%TD*%
%TA.AperFunction,Conductor*%
%TO.N,GND*%
G36*
X158750000Y-41228000D02*
G01*
X154830000Y-41228000D01*
X154830000Y-31846500D01*
X158750000Y-31846500D01*
X158750000Y-41228000D01*
G37*
%TD.AperFunction*%
%TD*%
%TA.AperFunction,Conductor*%
%TO.N,GND*%
G36*
X149996356Y-31513593D02*
G01*
X150021000Y-31553070D01*
X150023780Y-31564261D01*
X150024977Y-31570044D01*
X150030790Y-31604966D01*
X150030791Y-31604969D01*
X150031812Y-31611103D01*
X150034765Y-31616575D01*
X150036482Y-31621590D01*
X150038282Y-31626243D01*
X150040383Y-31631098D01*
X150041880Y-31637125D01*
X150045249Y-31642343D01*
X150045251Y-31642347D01*
X150064450Y-31672081D01*
X150067455Y-31677162D01*
X150084270Y-31708324D01*
X150084272Y-31708326D01*
X150087222Y-31713794D01*
X150091784Y-31718011D01*
X150095008Y-31722168D01*
X150098257Y-31726033D01*
X150101802Y-31729929D01*
X150105175Y-31735152D01*
X150137870Y-31760927D01*
X150142335Y-31764741D01*
X150172907Y-31793001D01*
X150178595Y-31795515D01*
X150183009Y-31798415D01*
X150187284Y-31800989D01*
X150191927Y-31803542D01*
X150196811Y-31807392D01*
X150202677Y-31809452D01*
X150236079Y-31821182D01*
X150241563Y-31823353D01*
X150279629Y-31840182D01*
X150285820Y-31840718D01*
X150290959Y-31842038D01*
X150297812Y-31843513D01*
X150297817Y-31843492D01*
X150302447Y-31844489D01*
X150306906Y-31846055D01*
X150312044Y-31846500D01*
X150349317Y-31846500D01*
X150355806Y-31846781D01*
X150389684Y-31849715D01*
X150389688Y-31849715D01*
X150395880Y-31850251D01*
X150402052Y-31848718D01*
X150420180Y-31846500D01*
X154940000Y-31846500D01*
X154940000Y-41148000D01*
X154432000Y-41148000D01*
X144780000Y-31496000D01*
X149948018Y-31496000D01*
X149996356Y-31513593D01*
G37*
%TD.AperFunction*%
%TD*%
M02*
